%TF.GenerationSoftware,KiCad,Pcbnew,8.0.2*%
%TF.CreationDate,2025-03-15T23:17:04-04:00*%
%TF.ProjectId,proyecto final,70726f79-6563-4746-9f20-66696e616c2e,rev?*%
%TF.SameCoordinates,Original*%
%TF.FileFunction,Drillmap*%
%TF.FilePolarity,Positive*%
%FSLAX45Y45*%
G04 Gerber Fmt 4.5, Leading zero omitted, Abs format (unit mm)*
G04 Created by KiCad (PCBNEW 8.0.2) date 2025-03-15 23:17:04*
%MOMM*%
%LPD*%
G01*
G04 APERTURE LIST*
%ADD10C,0.050000*%
%ADD11C,0.200000*%
%ADD12C,0.300000*%
G04 APERTURE END LIST*
D10*
X9450000Y-5150000D02*
X17550000Y-5150000D01*
X17550000Y-12750000D01*
X9450000Y-12750000D01*
X9450000Y-5150000D01*
D11*
D12*
X11472000Y-7252500D02*
X11772000Y-7552500D01*
X11772000Y-7252500D02*
X11472000Y-7552500D01*
X11472000Y-11947500D02*
X11772000Y-12247500D01*
X11772000Y-11947500D02*
X11472000Y-12247500D01*
X13923000Y-7252500D02*
X14223000Y-7552500D01*
X14223000Y-7252500D02*
X13923000Y-7552500D01*
X13923000Y-11947500D02*
X14223000Y-12247500D01*
X14223000Y-11947500D02*
X13923000Y-12247500D01*
D11*
X9708277Y-13063984D02*
X9708277Y-12863984D01*
X9708277Y-12863984D02*
X9755896Y-12863984D01*
X9755896Y-12863984D02*
X9784467Y-12873508D01*
X9784467Y-12873508D02*
X9803515Y-12892555D01*
X9803515Y-12892555D02*
X9813039Y-12911603D01*
X9813039Y-12911603D02*
X9822563Y-12949698D01*
X9822563Y-12949698D02*
X9822563Y-12978269D01*
X9822563Y-12978269D02*
X9813039Y-13016365D01*
X9813039Y-13016365D02*
X9803515Y-13035412D01*
X9803515Y-13035412D02*
X9784467Y-13054460D01*
X9784467Y-13054460D02*
X9755896Y-13063984D01*
X9755896Y-13063984D02*
X9708277Y-13063984D01*
X9908277Y-13063984D02*
X9908277Y-12930650D01*
X9908277Y-12968746D02*
X9917801Y-12949698D01*
X9917801Y-12949698D02*
X9927324Y-12940174D01*
X9927324Y-12940174D02*
X9946372Y-12930650D01*
X9946372Y-12930650D02*
X9965420Y-12930650D01*
X10032086Y-13063984D02*
X10032086Y-12930650D01*
X10032086Y-12863984D02*
X10022563Y-12873508D01*
X10022563Y-12873508D02*
X10032086Y-12883031D01*
X10032086Y-12883031D02*
X10041610Y-12873508D01*
X10041610Y-12873508D02*
X10032086Y-12863984D01*
X10032086Y-12863984D02*
X10032086Y-12883031D01*
X10155896Y-13063984D02*
X10136848Y-13054460D01*
X10136848Y-13054460D02*
X10127324Y-13035412D01*
X10127324Y-13035412D02*
X10127324Y-12863984D01*
X10260658Y-13063984D02*
X10241610Y-13054460D01*
X10241610Y-13054460D02*
X10232086Y-13035412D01*
X10232086Y-13035412D02*
X10232086Y-12863984D01*
X10489229Y-13063984D02*
X10489229Y-12863984D01*
X10489229Y-12863984D02*
X10555896Y-13006841D01*
X10555896Y-13006841D02*
X10622563Y-12863984D01*
X10622563Y-12863984D02*
X10622563Y-13063984D01*
X10803515Y-13063984D02*
X10803515Y-12959222D01*
X10803515Y-12959222D02*
X10793991Y-12940174D01*
X10793991Y-12940174D02*
X10774944Y-12930650D01*
X10774944Y-12930650D02*
X10736848Y-12930650D01*
X10736848Y-12930650D02*
X10717801Y-12940174D01*
X10803515Y-13054460D02*
X10784467Y-13063984D01*
X10784467Y-13063984D02*
X10736848Y-13063984D01*
X10736848Y-13063984D02*
X10717801Y-13054460D01*
X10717801Y-13054460D02*
X10708277Y-13035412D01*
X10708277Y-13035412D02*
X10708277Y-13016365D01*
X10708277Y-13016365D02*
X10717801Y-12997317D01*
X10717801Y-12997317D02*
X10736848Y-12987793D01*
X10736848Y-12987793D02*
X10784467Y-12987793D01*
X10784467Y-12987793D02*
X10803515Y-12978269D01*
X10898753Y-12930650D02*
X10898753Y-13130650D01*
X10898753Y-12940174D02*
X10917801Y-12930650D01*
X10917801Y-12930650D02*
X10955896Y-12930650D01*
X10955896Y-12930650D02*
X10974944Y-12940174D01*
X10974944Y-12940174D02*
X10984467Y-12949698D01*
X10984467Y-12949698D02*
X10993991Y-12968746D01*
X10993991Y-12968746D02*
X10993991Y-13025888D01*
X10993991Y-13025888D02*
X10984467Y-13044936D01*
X10984467Y-13044936D02*
X10974944Y-13054460D01*
X10974944Y-13054460D02*
X10955896Y-13063984D01*
X10955896Y-13063984D02*
X10917801Y-13063984D01*
X10917801Y-13063984D02*
X10898753Y-13054460D01*
X11079705Y-13044936D02*
X11089229Y-13054460D01*
X11089229Y-13054460D02*
X11079705Y-13063984D01*
X11079705Y-13063984D02*
X11070182Y-13054460D01*
X11070182Y-13054460D02*
X11079705Y-13044936D01*
X11079705Y-13044936D02*
X11079705Y-13063984D01*
X11079705Y-12940174D02*
X11089229Y-12949698D01*
X11089229Y-12949698D02*
X11079705Y-12959222D01*
X11079705Y-12959222D02*
X11070182Y-12949698D01*
X11070182Y-12949698D02*
X11079705Y-12940174D01*
X11079705Y-12940174D02*
X11079705Y-12959222D01*
X9247500Y-13292500D02*
X9447500Y-13492500D01*
X9447500Y-13292500D02*
X9247500Y-13492500D01*
X9689229Y-13283984D02*
X9813039Y-13283984D01*
X9813039Y-13283984D02*
X9746372Y-13360174D01*
X9746372Y-13360174D02*
X9774944Y-13360174D01*
X9774944Y-13360174D02*
X9793991Y-13369698D01*
X9793991Y-13369698D02*
X9803515Y-13379222D01*
X9803515Y-13379222D02*
X9813039Y-13398269D01*
X9813039Y-13398269D02*
X9813039Y-13445888D01*
X9813039Y-13445888D02*
X9803515Y-13464936D01*
X9803515Y-13464936D02*
X9793991Y-13474460D01*
X9793991Y-13474460D02*
X9774944Y-13483984D01*
X9774944Y-13483984D02*
X9717801Y-13483984D01*
X9717801Y-13483984D02*
X9698753Y-13474460D01*
X9698753Y-13474460D02*
X9689229Y-13464936D01*
X9898753Y-13464936D02*
X9908277Y-13474460D01*
X9908277Y-13474460D02*
X9898753Y-13483984D01*
X9898753Y-13483984D02*
X9889229Y-13474460D01*
X9889229Y-13474460D02*
X9898753Y-13464936D01*
X9898753Y-13464936D02*
X9898753Y-13483984D01*
X10032086Y-13283984D02*
X10051134Y-13283984D01*
X10051134Y-13283984D02*
X10070182Y-13293508D01*
X10070182Y-13293508D02*
X10079705Y-13303031D01*
X10079705Y-13303031D02*
X10089229Y-13322079D01*
X10089229Y-13322079D02*
X10098753Y-13360174D01*
X10098753Y-13360174D02*
X10098753Y-13407793D01*
X10098753Y-13407793D02*
X10089229Y-13445888D01*
X10089229Y-13445888D02*
X10079705Y-13464936D01*
X10079705Y-13464936D02*
X10070182Y-13474460D01*
X10070182Y-13474460D02*
X10051134Y-13483984D01*
X10051134Y-13483984D02*
X10032086Y-13483984D01*
X10032086Y-13483984D02*
X10013039Y-13474460D01*
X10013039Y-13474460D02*
X10003515Y-13464936D01*
X10003515Y-13464936D02*
X9993991Y-13445888D01*
X9993991Y-13445888D02*
X9984467Y-13407793D01*
X9984467Y-13407793D02*
X9984467Y-13360174D01*
X9984467Y-13360174D02*
X9993991Y-13322079D01*
X9993991Y-13322079D02*
X10003515Y-13303031D01*
X10003515Y-13303031D02*
X10013039Y-13293508D01*
X10013039Y-13293508D02*
X10032086Y-13283984D01*
X10222563Y-13283984D02*
X10241610Y-13283984D01*
X10241610Y-13283984D02*
X10260658Y-13293508D01*
X10260658Y-13293508D02*
X10270182Y-13303031D01*
X10270182Y-13303031D02*
X10279705Y-13322079D01*
X10279705Y-13322079D02*
X10289229Y-13360174D01*
X10289229Y-13360174D02*
X10289229Y-13407793D01*
X10289229Y-13407793D02*
X10279705Y-13445888D01*
X10279705Y-13445888D02*
X10270182Y-13464936D01*
X10270182Y-13464936D02*
X10260658Y-13474460D01*
X10260658Y-13474460D02*
X10241610Y-13483984D01*
X10241610Y-13483984D02*
X10222563Y-13483984D01*
X10222563Y-13483984D02*
X10203515Y-13474460D01*
X10203515Y-13474460D02*
X10193991Y-13464936D01*
X10193991Y-13464936D02*
X10184467Y-13445888D01*
X10184467Y-13445888D02*
X10174944Y-13407793D01*
X10174944Y-13407793D02*
X10174944Y-13360174D01*
X10174944Y-13360174D02*
X10184467Y-13322079D01*
X10184467Y-13322079D02*
X10193991Y-13303031D01*
X10193991Y-13303031D02*
X10203515Y-13293508D01*
X10203515Y-13293508D02*
X10222563Y-13283984D01*
X10413039Y-13283984D02*
X10432086Y-13283984D01*
X10432086Y-13283984D02*
X10451134Y-13293508D01*
X10451134Y-13293508D02*
X10460658Y-13303031D01*
X10460658Y-13303031D02*
X10470182Y-13322079D01*
X10470182Y-13322079D02*
X10479705Y-13360174D01*
X10479705Y-13360174D02*
X10479705Y-13407793D01*
X10479705Y-13407793D02*
X10470182Y-13445888D01*
X10470182Y-13445888D02*
X10460658Y-13464936D01*
X10460658Y-13464936D02*
X10451134Y-13474460D01*
X10451134Y-13474460D02*
X10432086Y-13483984D01*
X10432086Y-13483984D02*
X10413039Y-13483984D01*
X10413039Y-13483984D02*
X10393991Y-13474460D01*
X10393991Y-13474460D02*
X10384467Y-13464936D01*
X10384467Y-13464936D02*
X10374944Y-13445888D01*
X10374944Y-13445888D02*
X10365420Y-13407793D01*
X10365420Y-13407793D02*
X10365420Y-13360174D01*
X10365420Y-13360174D02*
X10374944Y-13322079D01*
X10374944Y-13322079D02*
X10384467Y-13303031D01*
X10384467Y-13303031D02*
X10393991Y-13293508D01*
X10393991Y-13293508D02*
X10413039Y-13283984D01*
X10565420Y-13483984D02*
X10565420Y-13350650D01*
X10565420Y-13369698D02*
X10574944Y-13360174D01*
X10574944Y-13360174D02*
X10593991Y-13350650D01*
X10593991Y-13350650D02*
X10622563Y-13350650D01*
X10622563Y-13350650D02*
X10641610Y-13360174D01*
X10641610Y-13360174D02*
X10651134Y-13379222D01*
X10651134Y-13379222D02*
X10651134Y-13483984D01*
X10651134Y-13379222D02*
X10660658Y-13360174D01*
X10660658Y-13360174D02*
X10679705Y-13350650D01*
X10679705Y-13350650D02*
X10708277Y-13350650D01*
X10708277Y-13350650D02*
X10727325Y-13360174D01*
X10727325Y-13360174D02*
X10736848Y-13379222D01*
X10736848Y-13379222D02*
X10736848Y-13483984D01*
X10832086Y-13483984D02*
X10832086Y-13350650D01*
X10832086Y-13369698D02*
X10841610Y-13360174D01*
X10841610Y-13360174D02*
X10860658Y-13350650D01*
X10860658Y-13350650D02*
X10889229Y-13350650D01*
X10889229Y-13350650D02*
X10908277Y-13360174D01*
X10908277Y-13360174D02*
X10917801Y-13379222D01*
X10917801Y-13379222D02*
X10917801Y-13483984D01*
X10917801Y-13379222D02*
X10927325Y-13360174D01*
X10927325Y-13360174D02*
X10946372Y-13350650D01*
X10946372Y-13350650D02*
X10974944Y-13350650D01*
X10974944Y-13350650D02*
X10993991Y-13360174D01*
X10993991Y-13360174D02*
X11003515Y-13379222D01*
X11003515Y-13379222D02*
X11003515Y-13483984D01*
X11393991Y-13274460D02*
X11222563Y-13531603D01*
X11651134Y-13283984D02*
X11670182Y-13283984D01*
X11670182Y-13283984D02*
X11689229Y-13293508D01*
X11689229Y-13293508D02*
X11698753Y-13303031D01*
X11698753Y-13303031D02*
X11708277Y-13322079D01*
X11708277Y-13322079D02*
X11717801Y-13360174D01*
X11717801Y-13360174D02*
X11717801Y-13407793D01*
X11717801Y-13407793D02*
X11708277Y-13445888D01*
X11708277Y-13445888D02*
X11698753Y-13464936D01*
X11698753Y-13464936D02*
X11689229Y-13474460D01*
X11689229Y-13474460D02*
X11670182Y-13483984D01*
X11670182Y-13483984D02*
X11651134Y-13483984D01*
X11651134Y-13483984D02*
X11632086Y-13474460D01*
X11632086Y-13474460D02*
X11622563Y-13464936D01*
X11622563Y-13464936D02*
X11613039Y-13445888D01*
X11613039Y-13445888D02*
X11603515Y-13407793D01*
X11603515Y-13407793D02*
X11603515Y-13360174D01*
X11603515Y-13360174D02*
X11613039Y-13322079D01*
X11613039Y-13322079D02*
X11622563Y-13303031D01*
X11622563Y-13303031D02*
X11632086Y-13293508D01*
X11632086Y-13293508D02*
X11651134Y-13283984D01*
X11803515Y-13464936D02*
X11813039Y-13474460D01*
X11813039Y-13474460D02*
X11803515Y-13483984D01*
X11803515Y-13483984D02*
X11793991Y-13474460D01*
X11793991Y-13474460D02*
X11803515Y-13464936D01*
X11803515Y-13464936D02*
X11803515Y-13483984D01*
X12003515Y-13483984D02*
X11889229Y-13483984D01*
X11946372Y-13483984D02*
X11946372Y-13283984D01*
X11946372Y-13283984D02*
X11927325Y-13312555D01*
X11927325Y-13312555D02*
X11908277Y-13331603D01*
X11908277Y-13331603D02*
X11889229Y-13341127D01*
X12193991Y-13483984D02*
X12079706Y-13483984D01*
X12136848Y-13483984D02*
X12136848Y-13283984D01*
X12136848Y-13283984D02*
X12117801Y-13312555D01*
X12117801Y-13312555D02*
X12098753Y-13331603D01*
X12098753Y-13331603D02*
X12079706Y-13341127D01*
X12308277Y-13369698D02*
X12289229Y-13360174D01*
X12289229Y-13360174D02*
X12279706Y-13350650D01*
X12279706Y-13350650D02*
X12270182Y-13331603D01*
X12270182Y-13331603D02*
X12270182Y-13322079D01*
X12270182Y-13322079D02*
X12279706Y-13303031D01*
X12279706Y-13303031D02*
X12289229Y-13293508D01*
X12289229Y-13293508D02*
X12308277Y-13283984D01*
X12308277Y-13283984D02*
X12346372Y-13283984D01*
X12346372Y-13283984D02*
X12365420Y-13293508D01*
X12365420Y-13293508D02*
X12374944Y-13303031D01*
X12374944Y-13303031D02*
X12384467Y-13322079D01*
X12384467Y-13322079D02*
X12384467Y-13331603D01*
X12384467Y-13331603D02*
X12374944Y-13350650D01*
X12374944Y-13350650D02*
X12365420Y-13360174D01*
X12365420Y-13360174D02*
X12346372Y-13369698D01*
X12346372Y-13369698D02*
X12308277Y-13369698D01*
X12308277Y-13369698D02*
X12289229Y-13379222D01*
X12289229Y-13379222D02*
X12279706Y-13388746D01*
X12279706Y-13388746D02*
X12270182Y-13407793D01*
X12270182Y-13407793D02*
X12270182Y-13445888D01*
X12270182Y-13445888D02*
X12279706Y-13464936D01*
X12279706Y-13464936D02*
X12289229Y-13474460D01*
X12289229Y-13474460D02*
X12308277Y-13483984D01*
X12308277Y-13483984D02*
X12346372Y-13483984D01*
X12346372Y-13483984D02*
X12365420Y-13474460D01*
X12365420Y-13474460D02*
X12374944Y-13464936D01*
X12374944Y-13464936D02*
X12384467Y-13445888D01*
X12384467Y-13445888D02*
X12384467Y-13407793D01*
X12384467Y-13407793D02*
X12374944Y-13388746D01*
X12374944Y-13388746D02*
X12365420Y-13379222D01*
X12365420Y-13379222D02*
X12346372Y-13369698D01*
X12574944Y-13483984D02*
X12460658Y-13483984D01*
X12517801Y-13483984D02*
X12517801Y-13283984D01*
X12517801Y-13283984D02*
X12498753Y-13312555D01*
X12498753Y-13312555D02*
X12479706Y-13331603D01*
X12479706Y-13331603D02*
X12460658Y-13341127D01*
X12651134Y-13283984D02*
X12651134Y-13322079D01*
X12727325Y-13283984D02*
X12727325Y-13322079D01*
X13022563Y-13560174D02*
X13013039Y-13550650D01*
X13013039Y-13550650D02*
X12993991Y-13522079D01*
X12993991Y-13522079D02*
X12984468Y-13503031D01*
X12984468Y-13503031D02*
X12974944Y-13474460D01*
X12974944Y-13474460D02*
X12965420Y-13426841D01*
X12965420Y-13426841D02*
X12965420Y-13388746D01*
X12965420Y-13388746D02*
X12974944Y-13341127D01*
X12974944Y-13341127D02*
X12984468Y-13312555D01*
X12984468Y-13312555D02*
X12993991Y-13293508D01*
X12993991Y-13293508D02*
X13013039Y-13264936D01*
X13013039Y-13264936D02*
X13022563Y-13255412D01*
X13184468Y-13350650D02*
X13184468Y-13483984D01*
X13136848Y-13274460D02*
X13089229Y-13417317D01*
X13089229Y-13417317D02*
X13213039Y-13417317D01*
X13441610Y-13483984D02*
X13441610Y-13283984D01*
X13527325Y-13483984D02*
X13527325Y-13379222D01*
X13527325Y-13379222D02*
X13517801Y-13360174D01*
X13517801Y-13360174D02*
X13498753Y-13350650D01*
X13498753Y-13350650D02*
X13470182Y-13350650D01*
X13470182Y-13350650D02*
X13451134Y-13360174D01*
X13451134Y-13360174D02*
X13441610Y-13369698D01*
X13651134Y-13483984D02*
X13632087Y-13474460D01*
X13632087Y-13474460D02*
X13622563Y-13464936D01*
X13622563Y-13464936D02*
X13613039Y-13445888D01*
X13613039Y-13445888D02*
X13613039Y-13388746D01*
X13613039Y-13388746D02*
X13622563Y-13369698D01*
X13622563Y-13369698D02*
X13632087Y-13360174D01*
X13632087Y-13360174D02*
X13651134Y-13350650D01*
X13651134Y-13350650D02*
X13679706Y-13350650D01*
X13679706Y-13350650D02*
X13698753Y-13360174D01*
X13698753Y-13360174D02*
X13708277Y-13369698D01*
X13708277Y-13369698D02*
X13717801Y-13388746D01*
X13717801Y-13388746D02*
X13717801Y-13445888D01*
X13717801Y-13445888D02*
X13708277Y-13464936D01*
X13708277Y-13464936D02*
X13698753Y-13474460D01*
X13698753Y-13474460D02*
X13679706Y-13483984D01*
X13679706Y-13483984D02*
X13651134Y-13483984D01*
X13832087Y-13483984D02*
X13813039Y-13474460D01*
X13813039Y-13474460D02*
X13803515Y-13455412D01*
X13803515Y-13455412D02*
X13803515Y-13283984D01*
X13984468Y-13474460D02*
X13965420Y-13483984D01*
X13965420Y-13483984D02*
X13927325Y-13483984D01*
X13927325Y-13483984D02*
X13908277Y-13474460D01*
X13908277Y-13474460D02*
X13898753Y-13455412D01*
X13898753Y-13455412D02*
X13898753Y-13379222D01*
X13898753Y-13379222D02*
X13908277Y-13360174D01*
X13908277Y-13360174D02*
X13927325Y-13350650D01*
X13927325Y-13350650D02*
X13965420Y-13350650D01*
X13965420Y-13350650D02*
X13984468Y-13360174D01*
X13984468Y-13360174D02*
X13993991Y-13379222D01*
X13993991Y-13379222D02*
X13993991Y-13398269D01*
X13993991Y-13398269D02*
X13898753Y-13417317D01*
X14070182Y-13474460D02*
X14089230Y-13483984D01*
X14089230Y-13483984D02*
X14127325Y-13483984D01*
X14127325Y-13483984D02*
X14146372Y-13474460D01*
X14146372Y-13474460D02*
X14155896Y-13455412D01*
X14155896Y-13455412D02*
X14155896Y-13445888D01*
X14155896Y-13445888D02*
X14146372Y-13426841D01*
X14146372Y-13426841D02*
X14127325Y-13417317D01*
X14127325Y-13417317D02*
X14098753Y-13417317D01*
X14098753Y-13417317D02*
X14079706Y-13407793D01*
X14079706Y-13407793D02*
X14070182Y-13388746D01*
X14070182Y-13388746D02*
X14070182Y-13379222D01*
X14070182Y-13379222D02*
X14079706Y-13360174D01*
X14079706Y-13360174D02*
X14098753Y-13350650D01*
X14098753Y-13350650D02*
X14127325Y-13350650D01*
X14127325Y-13350650D02*
X14146372Y-13360174D01*
X14222563Y-13560174D02*
X14232087Y-13550650D01*
X14232087Y-13550650D02*
X14251134Y-13522079D01*
X14251134Y-13522079D02*
X14260658Y-13503031D01*
X14260658Y-13503031D02*
X14270182Y-13474460D01*
X14270182Y-13474460D02*
X14279706Y-13426841D01*
X14279706Y-13426841D02*
X14279706Y-13388746D01*
X14279706Y-13388746D02*
X14270182Y-13341127D01*
X14270182Y-13341127D02*
X14260658Y-13312555D01*
X14260658Y-13312555D02*
X14251134Y-13293508D01*
X14251134Y-13293508D02*
X14232087Y-13264936D01*
X14232087Y-13264936D02*
X14222563Y-13255412D01*
X14584468Y-13560174D02*
X14574944Y-13550650D01*
X14574944Y-13550650D02*
X14555896Y-13522079D01*
X14555896Y-13522079D02*
X14546372Y-13503031D01*
X14546372Y-13503031D02*
X14536849Y-13474460D01*
X14536849Y-13474460D02*
X14527325Y-13426841D01*
X14527325Y-13426841D02*
X14527325Y-13388746D01*
X14527325Y-13388746D02*
X14536849Y-13341127D01*
X14536849Y-13341127D02*
X14546372Y-13312555D01*
X14546372Y-13312555D02*
X14555896Y-13293508D01*
X14555896Y-13293508D02*
X14574944Y-13264936D01*
X14574944Y-13264936D02*
X14584468Y-13255412D01*
X14660658Y-13350650D02*
X14660658Y-13483984D01*
X14660658Y-13369698D02*
X14670182Y-13360174D01*
X14670182Y-13360174D02*
X14689230Y-13350650D01*
X14689230Y-13350650D02*
X14717801Y-13350650D01*
X14717801Y-13350650D02*
X14736849Y-13360174D01*
X14736849Y-13360174D02*
X14746372Y-13379222D01*
X14746372Y-13379222D02*
X14746372Y-13483984D01*
X14870182Y-13483984D02*
X14851134Y-13474460D01*
X14851134Y-13474460D02*
X14841611Y-13464936D01*
X14841611Y-13464936D02*
X14832087Y-13445888D01*
X14832087Y-13445888D02*
X14832087Y-13388746D01*
X14832087Y-13388746D02*
X14841611Y-13369698D01*
X14841611Y-13369698D02*
X14851134Y-13360174D01*
X14851134Y-13360174D02*
X14870182Y-13350650D01*
X14870182Y-13350650D02*
X14898753Y-13350650D01*
X14898753Y-13350650D02*
X14917801Y-13360174D01*
X14917801Y-13360174D02*
X14927325Y-13369698D01*
X14927325Y-13369698D02*
X14936849Y-13388746D01*
X14936849Y-13388746D02*
X14936849Y-13445888D01*
X14936849Y-13445888D02*
X14927325Y-13464936D01*
X14927325Y-13464936D02*
X14917801Y-13474460D01*
X14917801Y-13474460D02*
X14898753Y-13483984D01*
X14898753Y-13483984D02*
X14870182Y-13483984D01*
X14993992Y-13350650D02*
X15070182Y-13350650D01*
X15022563Y-13283984D02*
X15022563Y-13455412D01*
X15022563Y-13455412D02*
X15032087Y-13474460D01*
X15032087Y-13474460D02*
X15051134Y-13483984D01*
X15051134Y-13483984D02*
X15070182Y-13483984D01*
X15289230Y-13350650D02*
X15289230Y-13550650D01*
X15289230Y-13360174D02*
X15308277Y-13350650D01*
X15308277Y-13350650D02*
X15346373Y-13350650D01*
X15346373Y-13350650D02*
X15365420Y-13360174D01*
X15365420Y-13360174D02*
X15374944Y-13369698D01*
X15374944Y-13369698D02*
X15384468Y-13388746D01*
X15384468Y-13388746D02*
X15384468Y-13445888D01*
X15384468Y-13445888D02*
X15374944Y-13464936D01*
X15374944Y-13464936D02*
X15365420Y-13474460D01*
X15365420Y-13474460D02*
X15346373Y-13483984D01*
X15346373Y-13483984D02*
X15308277Y-13483984D01*
X15308277Y-13483984D02*
X15289230Y-13474460D01*
X15498753Y-13483984D02*
X15479706Y-13474460D01*
X15479706Y-13474460D02*
X15470182Y-13455412D01*
X15470182Y-13455412D02*
X15470182Y-13283984D01*
X15660658Y-13483984D02*
X15660658Y-13379222D01*
X15660658Y-13379222D02*
X15651134Y-13360174D01*
X15651134Y-13360174D02*
X15632087Y-13350650D01*
X15632087Y-13350650D02*
X15593992Y-13350650D01*
X15593992Y-13350650D02*
X15574944Y-13360174D01*
X15660658Y-13474460D02*
X15641611Y-13483984D01*
X15641611Y-13483984D02*
X15593992Y-13483984D01*
X15593992Y-13483984D02*
X15574944Y-13474460D01*
X15574944Y-13474460D02*
X15565420Y-13455412D01*
X15565420Y-13455412D02*
X15565420Y-13436365D01*
X15565420Y-13436365D02*
X15574944Y-13417317D01*
X15574944Y-13417317D02*
X15593992Y-13407793D01*
X15593992Y-13407793D02*
X15641611Y-13407793D01*
X15641611Y-13407793D02*
X15660658Y-13398269D01*
X15727325Y-13350650D02*
X15803515Y-13350650D01*
X15755896Y-13283984D02*
X15755896Y-13455412D01*
X15755896Y-13455412D02*
X15765420Y-13474460D01*
X15765420Y-13474460D02*
X15784468Y-13483984D01*
X15784468Y-13483984D02*
X15803515Y-13483984D01*
X15946373Y-13474460D02*
X15927325Y-13483984D01*
X15927325Y-13483984D02*
X15889230Y-13483984D01*
X15889230Y-13483984D02*
X15870182Y-13474460D01*
X15870182Y-13474460D02*
X15860658Y-13455412D01*
X15860658Y-13455412D02*
X15860658Y-13379222D01*
X15860658Y-13379222D02*
X15870182Y-13360174D01*
X15870182Y-13360174D02*
X15889230Y-13350650D01*
X15889230Y-13350650D02*
X15927325Y-13350650D01*
X15927325Y-13350650D02*
X15946373Y-13360174D01*
X15946373Y-13360174D02*
X15955896Y-13379222D01*
X15955896Y-13379222D02*
X15955896Y-13398269D01*
X15955896Y-13398269D02*
X15860658Y-13417317D01*
X16127325Y-13483984D02*
X16127325Y-13283984D01*
X16127325Y-13474460D02*
X16108277Y-13483984D01*
X16108277Y-13483984D02*
X16070182Y-13483984D01*
X16070182Y-13483984D02*
X16051134Y-13474460D01*
X16051134Y-13474460D02*
X16041611Y-13464936D01*
X16041611Y-13464936D02*
X16032087Y-13445888D01*
X16032087Y-13445888D02*
X16032087Y-13388746D01*
X16032087Y-13388746D02*
X16041611Y-13369698D01*
X16041611Y-13369698D02*
X16051134Y-13360174D01*
X16051134Y-13360174D02*
X16070182Y-13350650D01*
X16070182Y-13350650D02*
X16108277Y-13350650D01*
X16108277Y-13350650D02*
X16127325Y-13360174D01*
X16203515Y-13560174D02*
X16213039Y-13550650D01*
X16213039Y-13550650D02*
X16232087Y-13522079D01*
X16232087Y-13522079D02*
X16241611Y-13503031D01*
X16241611Y-13503031D02*
X16251134Y-13474460D01*
X16251134Y-13474460D02*
X16260658Y-13426841D01*
X16260658Y-13426841D02*
X16260658Y-13388746D01*
X16260658Y-13388746D02*
X16251134Y-13341127D01*
X16251134Y-13341127D02*
X16241611Y-13312555D01*
X16241611Y-13312555D02*
X16232087Y-13293508D01*
X16232087Y-13293508D02*
X16213039Y-13264936D01*
X16213039Y-13264936D02*
X16203515Y-13255412D01*
M02*
