M48
; DRILL file {KiCad 8.0.2} date 2025-03-15T23:16:25-0400
; FORMAT={-:-/ absolute / metric / decimal}
; #@! TF.CreationDate,2025-03-15T23:16:25-04:00
; #@! TF.GenerationSoftware,Kicad,Pcbnew,8.0.2
; #@! TF.FileFunction,Plated,1,2,PTH
FMAT,2
METRIC
; #@! TA.AperFunction,Plated,PTH,ViaDrill
T1C0.400
; #@! TA.AperFunction,Plated,PTH,ComponentDrill
T2C1.020
; #@! TA.AperFunction,Plated,PTH,ComponentDrill
T3C1.300
; #@! TA.AperFunction,Plated,PTH,ComponentDrill
T4C1.520
; #@! TA.AperFunction,Plated,PTH,ComponentDrill
T5C2.200
%
G90
G05
T1
X98.99Y-90.792
X103.258Y-118.869
X107.5Y-89.605
X108.523Y-115.25
X109.65Y-67.694
X113.0Y-81.907
X130.5Y-99.765
X132.38Y-68.297
X132.582Y-115.052
X134.52Y-79.546
X142.811Y-64.731
X149.264Y-93.474
X153.0Y-109.793
X157.0Y-67.5
X158.0Y-118.064
X166.392Y-94.361
X167.0Y-90.677
X168.0Y-98.568
X170.547Y-65.398
X171.648Y-82.5
T2
X115.8Y-81.985
X115.8Y-84.525
X115.8Y-87.065
X115.8Y-89.605
X115.8Y-92.145
X115.8Y-94.685
X115.8Y-97.225
X115.8Y-99.765
X115.8Y-102.305
X115.8Y-104.845
X115.8Y-107.385
X115.8Y-109.925
X115.8Y-112.465
X115.8Y-115.005
X115.8Y-117.545
X141.2Y-81.985
X141.2Y-84.525
X141.2Y-87.065
X141.2Y-89.605
X141.2Y-92.145
X141.2Y-94.685
X141.2Y-97.225
X141.2Y-99.765
X141.2Y-102.305
X141.2Y-104.845
X141.2Y-107.385
X141.2Y-109.925
X141.2Y-112.465
X141.2Y-115.005
X141.2Y-117.545
T3
X146.3Y-64.0
X148.3Y-58.0
X148.3Y-70.0
X149.433Y-77.0
X149.433Y-89.2
X155.433Y-91.2
X160.5Y-58.0
X160.5Y-70.0
X161.433Y-77.0
X161.433Y-89.2
T4
X100.92Y-60.5
X102.0Y-80.38
X102.0Y-85.46
X102.0Y-90.54
X102.0Y-96.42
X102.0Y-101.5
X106.0Y-60.5
X111.08Y-60.5
X117.46Y-60.5
X122.54Y-60.5
X130.5Y-60.5
X135.58Y-60.5
X140.66Y-60.5
X168.5Y-116.96
X168.5Y-122.04
X169.0Y-79.96
X169.0Y-85.04
T5
X97.0Y-54.5
X97.5Y-124.0
X148.5Y-124.0
X172.0Y-55.0
M30
