%TF.GenerationSoftware,KiCad,Pcbnew,8.0.2*%
%TF.CreationDate,2025-03-15T23:19:11-04:00*%
%TF.ProjectId,proyecto final,70726f79-6563-4746-9f20-66696e616c2e,rev?*%
%TF.SameCoordinates,Original*%
%TF.FileFunction,Soldermask,Bot*%
%TF.FilePolarity,Negative*%
%FSLAX46Y46*%
G04 Gerber Fmt 4.6, Leading zero omitted, Abs format (unit mm)*
G04 Created by KiCad (PCBNEW 8.0.2) date 2025-03-15 23:19:11*
%MOMM*%
%LPD*%
G01*
G04 APERTURE LIST*
G04 Aperture macros list*
%AMRoundRect*
0 Rectangle with rounded corners*
0 $1 Rounding radius*
0 $2 $3 $4 $5 $6 $7 $8 $9 X,Y pos of 4 corners*
0 Add a 4 corners polygon primitive as box body*
4,1,4,$2,$3,$4,$5,$6,$7,$8,$9,$2,$3,0*
0 Add four circle primitives for the rounded corners*
1,1,$1+$1,$2,$3*
1,1,$1+$1,$4,$5*
1,1,$1+$1,$6,$7*
1,1,$1+$1,$8,$9*
0 Add four rect primitives between the rounded corners*
20,1,$1+$1,$2,$3,$4,$5,0*
20,1,$1+$1,$4,$5,$6,$7,0*
20,1,$1+$1,$6,$7,$8,$9,0*
20,1,$1+$1,$8,$9,$2,$3,0*%
G04 Aperture macros list end*
%ADD10C,3.800000*%
%ADD11R,3.000000X3.000000*%
%ADD12C,3.000000*%
%ADD13RoundRect,0.102000X-1.000000X-1.000000X1.000000X-1.000000X1.000000X1.000000X-1.000000X1.000000X0*%
%ADD14C,2.204000*%
%ADD15C,2.400000*%
%ADD16RoundRect,0.250000X1.000000X-1.000000X1.000000X1.000000X-1.000000X1.000000X-1.000000X-1.000000X0*%
%ADD17RoundRect,0.250000X1.000000X1.000000X-1.000000X1.000000X-1.000000X-1.000000X1.000000X-1.000000X0*%
G04 APERTURE END LIST*
D10*
%TO.C,REF\u002A\u002A*%
X97000000Y-54500000D03*
%TD*%
D11*
%TO.C,J4*%
X140660000Y-60500000D03*
D12*
X135580000Y-60500000D03*
X130500000Y-60500000D03*
%TD*%
D11*
%TO.C,J5*%
X102000000Y-96420000D03*
D12*
X102000000Y-101500000D03*
%TD*%
D11*
%TO.C,J3*%
X111080000Y-60500000D03*
D12*
X106000000Y-60500000D03*
X100920000Y-60500000D03*
%TD*%
D11*
%TO.C,J1*%
X122540000Y-60500000D03*
D12*
X117460000Y-60500000D03*
%TD*%
D11*
%TO.C,J2*%
X102000000Y-80380000D03*
D12*
X102000000Y-85460000D03*
X102000000Y-90540000D03*
%TD*%
D11*
%TO.C,J7*%
X168500000Y-122040000D03*
D12*
X168500000Y-116960000D03*
%TD*%
D11*
%TO.C,J6*%
X169000000Y-85040000D03*
D12*
X169000000Y-79960000D03*
%TD*%
D10*
%TO.C,REF\u002A\u002A*%
X148500000Y-124000000D03*
%TD*%
%TO.C,REF\u002A\u002A*%
X97500000Y-124000000D03*
%TD*%
D12*
%TO.C,U2*%
X116220000Y-74025000D03*
X116220000Y-120975000D03*
X140730000Y-74025000D03*
X140730000Y-120975000D03*
D13*
X115800000Y-81985000D03*
D14*
X115800000Y-84525000D03*
X115800000Y-87065000D03*
X115800000Y-89605000D03*
X115800000Y-92145000D03*
X115800000Y-94685000D03*
X115800000Y-97225000D03*
X115800000Y-99765000D03*
X115800000Y-102305000D03*
X115800000Y-104845000D03*
X115800000Y-107385000D03*
X115800000Y-109925000D03*
X115800000Y-112465000D03*
X115800000Y-115005000D03*
X115800000Y-117545000D03*
X141200000Y-117545000D03*
X141200000Y-115005000D03*
X141200000Y-112465000D03*
X141200000Y-109925000D03*
X141200000Y-107385000D03*
X141200000Y-104845000D03*
X141200000Y-102305000D03*
X141200000Y-99765000D03*
X141200000Y-97225000D03*
X141200000Y-94685000D03*
X141200000Y-92145000D03*
X141200000Y-89605000D03*
X141200000Y-87065000D03*
X141200000Y-84525000D03*
X141200000Y-81985000D03*
%TD*%
D15*
%TO.C,K2*%
X146300000Y-64000000D03*
X160500000Y-58000000D03*
X160500000Y-70000000D03*
D16*
X148300000Y-70000000D03*
D15*
X148300000Y-58000000D03*
%TD*%
%TO.C,K1*%
X155432500Y-91200000D03*
X149432500Y-77000000D03*
X161432500Y-77000000D03*
D17*
X161432500Y-89200000D03*
D15*
X149432500Y-89200000D03*
%TD*%
D10*
%TO.C,REF\u002A\u002A*%
X172000000Y-55000000D03*
%TD*%
M02*
