%TF.GenerationSoftware,KiCad,Pcbnew,8.0.2*%
%TF.CreationDate,2025-03-15T23:19:11-04:00*%
%TF.ProjectId,proyecto final,70726f79-6563-4746-9f20-66696e616c2e,rev?*%
%TF.SameCoordinates,Original*%
%TF.FileFunction,Legend,Top*%
%TF.FilePolarity,Positive*%
%FSLAX46Y46*%
G04 Gerber Fmt 4.6, Leading zero omitted, Abs format (unit mm)*
G04 Created by KiCad (PCBNEW 8.0.2) date 2025-03-15 23:19:11*
%MOMM*%
%LPD*%
G01*
G04 APERTURE LIST*
%ADD10C,0.450000*%
%ADD11C,0.325000*%
%ADD12C,0.300000*%
%ADD13C,0.150000*%
%ADD14C,0.120000*%
%ADD15C,0.100000*%
%ADD16C,0.127000*%
%ADD17C,0.200000*%
G04 APERTURE END LIST*
D10*
X127238909Y-87231838D02*
X127238909Y-88660409D01*
X127238909Y-88660409D02*
X127153194Y-88946123D01*
X127153194Y-88946123D02*
X126981766Y-89136600D01*
X126981766Y-89136600D02*
X126724623Y-89231838D01*
X126724623Y-89231838D02*
X126553194Y-89231838D01*
X130924624Y-89231838D02*
X130838910Y-89231838D01*
X130838910Y-89231838D02*
X130667481Y-89136600D01*
X130667481Y-89136600D02*
X130410338Y-88850885D01*
X130410338Y-88850885D02*
X129981767Y-88279457D01*
X129981767Y-88279457D02*
X129810338Y-87993742D01*
X129810338Y-87993742D02*
X129724624Y-87708028D01*
X129724624Y-87708028D02*
X129724624Y-87517552D01*
X129724624Y-87517552D02*
X129810338Y-87327076D01*
X129810338Y-87327076D02*
X129981767Y-87231838D01*
X129981767Y-87231838D02*
X130067481Y-87231838D01*
X130067481Y-87231838D02*
X130238910Y-87327076D01*
X130238910Y-87327076D02*
X130324624Y-87517552D01*
X130324624Y-87517552D02*
X130324624Y-87612790D01*
X130324624Y-87612790D02*
X130238910Y-87803266D01*
X130238910Y-87803266D02*
X130153195Y-87898504D01*
X130153195Y-87898504D02*
X129638910Y-88279457D01*
X129638910Y-88279457D02*
X129553195Y-88374695D01*
X129553195Y-88374695D02*
X129467481Y-88565171D01*
X129467481Y-88565171D02*
X129467481Y-88850885D01*
X129467481Y-88850885D02*
X129553195Y-89041361D01*
X129553195Y-89041361D02*
X129638910Y-89136600D01*
X129638910Y-89136600D02*
X129810338Y-89231838D01*
X129810338Y-89231838D02*
X130067481Y-89231838D01*
X130067481Y-89231838D02*
X130238910Y-89136600D01*
X130238910Y-89136600D02*
X130324624Y-89041361D01*
X130324624Y-89041361D02*
X130581767Y-88660409D01*
X130581767Y-88660409D02*
X130667481Y-88374695D01*
X130667481Y-88374695D02*
X130667481Y-88184219D01*
X133924624Y-89231838D02*
X133067481Y-89231838D01*
X133067481Y-89231838D02*
X133067481Y-87231838D01*
D11*
X122359529Y-124495004D02*
X122359529Y-125423576D01*
X122359529Y-125423576D02*
X122288100Y-125609290D01*
X122288100Y-125609290D02*
X122145243Y-125733100D01*
X122145243Y-125733100D02*
X121930957Y-125795004D01*
X121930957Y-125795004D02*
X121788100Y-125795004D01*
X123288100Y-125795004D02*
X123145243Y-125733100D01*
X123145243Y-125733100D02*
X123073814Y-125671195D01*
X123073814Y-125671195D02*
X123002386Y-125547385D01*
X123002386Y-125547385D02*
X123002386Y-125175957D01*
X123002386Y-125175957D02*
X123073814Y-125052147D01*
X123073814Y-125052147D02*
X123145243Y-124990242D01*
X123145243Y-124990242D02*
X123288100Y-124928338D01*
X123288100Y-124928338D02*
X123502386Y-124928338D01*
X123502386Y-124928338D02*
X123645243Y-124990242D01*
X123645243Y-124990242D02*
X123716672Y-125052147D01*
X123716672Y-125052147D02*
X123788100Y-125175957D01*
X123788100Y-125175957D02*
X123788100Y-125547385D01*
X123788100Y-125547385D02*
X123716672Y-125671195D01*
X123716672Y-125671195D02*
X123645243Y-125733100D01*
X123645243Y-125733100D02*
X123502386Y-125795004D01*
X123502386Y-125795004D02*
X123288100Y-125795004D01*
X124359529Y-125733100D02*
X124502386Y-125795004D01*
X124502386Y-125795004D02*
X124788100Y-125795004D01*
X124788100Y-125795004D02*
X124930957Y-125733100D01*
X124930957Y-125733100D02*
X125002386Y-125609290D01*
X125002386Y-125609290D02*
X125002386Y-125547385D01*
X125002386Y-125547385D02*
X124930957Y-125423576D01*
X124930957Y-125423576D02*
X124788100Y-125361671D01*
X124788100Y-125361671D02*
X124573815Y-125361671D01*
X124573815Y-125361671D02*
X124430957Y-125299766D01*
X124430957Y-125299766D02*
X124359529Y-125175957D01*
X124359529Y-125175957D02*
X124359529Y-125114052D01*
X124359529Y-125114052D02*
X124430957Y-124990242D01*
X124430957Y-124990242D02*
X124573815Y-124928338D01*
X124573815Y-124928338D02*
X124788100Y-124928338D01*
X124788100Y-124928338D02*
X124930957Y-124990242D01*
X125645243Y-124928338D02*
X125645243Y-125795004D01*
X125645243Y-125052147D02*
X125716672Y-124990242D01*
X125716672Y-124990242D02*
X125859529Y-124928338D01*
X125859529Y-124928338D02*
X126073815Y-124928338D01*
X126073815Y-124928338D02*
X126216672Y-124990242D01*
X126216672Y-124990242D02*
X126288101Y-125114052D01*
X126288101Y-125114052D02*
X126288101Y-125795004D01*
X127573815Y-125733100D02*
X127430958Y-125795004D01*
X127430958Y-125795004D02*
X127145244Y-125795004D01*
X127145244Y-125795004D02*
X127002386Y-125733100D01*
X127002386Y-125733100D02*
X126930958Y-125609290D01*
X126930958Y-125609290D02*
X126930958Y-125114052D01*
X126930958Y-125114052D02*
X127002386Y-124990242D01*
X127002386Y-124990242D02*
X127145244Y-124928338D01*
X127145244Y-124928338D02*
X127430958Y-124928338D01*
X127430958Y-124928338D02*
X127573815Y-124990242D01*
X127573815Y-124990242D02*
X127645244Y-125114052D01*
X127645244Y-125114052D02*
X127645244Y-125237861D01*
X127645244Y-125237861D02*
X126930958Y-125361671D01*
X128502386Y-125795004D02*
X128359529Y-125733100D01*
X128359529Y-125733100D02*
X128288100Y-125609290D01*
X128288100Y-125609290D02*
X128288100Y-124495004D01*
X129288100Y-125795004D02*
X129145243Y-125733100D01*
X129145243Y-125733100D02*
X129073814Y-125609290D01*
X129073814Y-125609290D02*
X129073814Y-124495004D01*
X132216671Y-125795004D02*
X132145243Y-125795004D01*
X132145243Y-125795004D02*
X132002385Y-125733100D01*
X132002385Y-125733100D02*
X131788100Y-125547385D01*
X131788100Y-125547385D02*
X131430957Y-125175957D01*
X131430957Y-125175957D02*
X131288100Y-124990242D01*
X131288100Y-124990242D02*
X131216671Y-124804528D01*
X131216671Y-124804528D02*
X131216671Y-124680719D01*
X131216671Y-124680719D02*
X131288100Y-124556909D01*
X131288100Y-124556909D02*
X131430957Y-124495004D01*
X131430957Y-124495004D02*
X131502385Y-124495004D01*
X131502385Y-124495004D02*
X131645243Y-124556909D01*
X131645243Y-124556909D02*
X131716671Y-124680719D01*
X131716671Y-124680719D02*
X131716671Y-124742623D01*
X131716671Y-124742623D02*
X131645243Y-124866433D01*
X131645243Y-124866433D02*
X131573814Y-124928338D01*
X131573814Y-124928338D02*
X131145243Y-125175957D01*
X131145243Y-125175957D02*
X131073814Y-125237861D01*
X131073814Y-125237861D02*
X131002385Y-125361671D01*
X131002385Y-125361671D02*
X131002385Y-125547385D01*
X131002385Y-125547385D02*
X131073814Y-125671195D01*
X131073814Y-125671195D02*
X131145243Y-125733100D01*
X131145243Y-125733100D02*
X131288100Y-125795004D01*
X131288100Y-125795004D02*
X131502385Y-125795004D01*
X131502385Y-125795004D02*
X131645243Y-125733100D01*
X131645243Y-125733100D02*
X131716671Y-125671195D01*
X131716671Y-125671195D02*
X131930957Y-125423576D01*
X131930957Y-125423576D02*
X132002385Y-125237861D01*
X132002385Y-125237861D02*
X132002385Y-125114052D01*
X134716671Y-125795004D02*
X134002385Y-125795004D01*
X134002385Y-125795004D02*
X134002385Y-124495004D01*
X135859529Y-124928338D02*
X135859529Y-125795004D01*
X135216671Y-124928338D02*
X135216671Y-125609290D01*
X135216671Y-125609290D02*
X135288100Y-125733100D01*
X135288100Y-125733100D02*
X135430957Y-125795004D01*
X135430957Y-125795004D02*
X135645243Y-125795004D01*
X135645243Y-125795004D02*
X135788100Y-125733100D01*
X135788100Y-125733100D02*
X135859529Y-125671195D01*
X136573814Y-125795004D02*
X136573814Y-124928338D01*
X136573814Y-124495004D02*
X136502386Y-124556909D01*
X136502386Y-124556909D02*
X136573814Y-124618814D01*
X136573814Y-124618814D02*
X136645243Y-124556909D01*
X136645243Y-124556909D02*
X136573814Y-124495004D01*
X136573814Y-124495004D02*
X136573814Y-124618814D01*
X137216672Y-125733100D02*
X137359529Y-125795004D01*
X137359529Y-125795004D02*
X137645243Y-125795004D01*
X137645243Y-125795004D02*
X137788100Y-125733100D01*
X137788100Y-125733100D02*
X137859529Y-125609290D01*
X137859529Y-125609290D02*
X137859529Y-125547385D01*
X137859529Y-125547385D02*
X137788100Y-125423576D01*
X137788100Y-125423576D02*
X137645243Y-125361671D01*
X137645243Y-125361671D02*
X137430958Y-125361671D01*
X137430958Y-125361671D02*
X137288100Y-125299766D01*
X137288100Y-125299766D02*
X137216672Y-125175957D01*
X137216672Y-125175957D02*
X137216672Y-125114052D01*
X137216672Y-125114052D02*
X137288100Y-124990242D01*
X137288100Y-124990242D02*
X137430958Y-124928338D01*
X137430958Y-124928338D02*
X137645243Y-124928338D01*
X137645243Y-124928338D02*
X137788100Y-124990242D01*
D12*
X120385000Y-123475000D02*
X139615000Y-123475000D01*
X139615000Y-126500000D01*
X120385000Y-126500000D01*
X120385000Y-123475000D01*
D13*
X111699580Y-70666666D02*
X111747200Y-70714285D01*
X111747200Y-70714285D02*
X111794819Y-70857142D01*
X111794819Y-70857142D02*
X111794819Y-70952380D01*
X111794819Y-70952380D02*
X111747200Y-71095237D01*
X111747200Y-71095237D02*
X111651961Y-71190475D01*
X111651961Y-71190475D02*
X111556723Y-71238094D01*
X111556723Y-71238094D02*
X111366247Y-71285713D01*
X111366247Y-71285713D02*
X111223390Y-71285713D01*
X111223390Y-71285713D02*
X111032914Y-71238094D01*
X111032914Y-71238094D02*
X110937676Y-71190475D01*
X110937676Y-71190475D02*
X110842438Y-71095237D01*
X110842438Y-71095237D02*
X110794819Y-70952380D01*
X110794819Y-70952380D02*
X110794819Y-70857142D01*
X110794819Y-70857142D02*
X110842438Y-70714285D01*
X110842438Y-70714285D02*
X110890057Y-70666666D01*
X111128152Y-69809523D02*
X111794819Y-69809523D01*
X110747200Y-70047618D02*
X111461485Y-70285713D01*
X111461485Y-70285713D02*
X111461485Y-69666666D01*
X112833333Y-67199580D02*
X112785714Y-67247200D01*
X112785714Y-67247200D02*
X112642857Y-67294819D01*
X112642857Y-67294819D02*
X112547619Y-67294819D01*
X112547619Y-67294819D02*
X112404762Y-67247200D01*
X112404762Y-67247200D02*
X112309524Y-67151961D01*
X112309524Y-67151961D02*
X112261905Y-67056723D01*
X112261905Y-67056723D02*
X112214286Y-66866247D01*
X112214286Y-66866247D02*
X112214286Y-66723390D01*
X112214286Y-66723390D02*
X112261905Y-66532914D01*
X112261905Y-66532914D02*
X112309524Y-66437676D01*
X112309524Y-66437676D02*
X112404762Y-66342438D01*
X112404762Y-66342438D02*
X112547619Y-66294819D01*
X112547619Y-66294819D02*
X112642857Y-66294819D01*
X112642857Y-66294819D02*
X112785714Y-66342438D01*
X112785714Y-66342438D02*
X112833333Y-66390057D01*
X113166667Y-66294819D02*
X113785714Y-66294819D01*
X113785714Y-66294819D02*
X113452381Y-66675771D01*
X113452381Y-66675771D02*
X113595238Y-66675771D01*
X113595238Y-66675771D02*
X113690476Y-66723390D01*
X113690476Y-66723390D02*
X113738095Y-66771009D01*
X113738095Y-66771009D02*
X113785714Y-66866247D01*
X113785714Y-66866247D02*
X113785714Y-67104342D01*
X113785714Y-67104342D02*
X113738095Y-67199580D01*
X113738095Y-67199580D02*
X113690476Y-67247200D01*
X113690476Y-67247200D02*
X113595238Y-67294819D01*
X113595238Y-67294819D02*
X113309524Y-67294819D01*
X113309524Y-67294819D02*
X113214286Y-67247200D01*
X113214286Y-67247200D02*
X113166667Y-67199580D01*
X154050057Y-118595238D02*
X154002438Y-118690476D01*
X154002438Y-118690476D02*
X153907200Y-118785714D01*
X153907200Y-118785714D02*
X153764342Y-118928571D01*
X153764342Y-118928571D02*
X153716723Y-119023809D01*
X153716723Y-119023809D02*
X153716723Y-119119047D01*
X153954819Y-119071428D02*
X153907200Y-119166666D01*
X153907200Y-119166666D02*
X153811961Y-119261904D01*
X153811961Y-119261904D02*
X153621485Y-119309523D01*
X153621485Y-119309523D02*
X153288152Y-119309523D01*
X153288152Y-119309523D02*
X153097676Y-119261904D01*
X153097676Y-119261904D02*
X153002438Y-119166666D01*
X153002438Y-119166666D02*
X152954819Y-119071428D01*
X152954819Y-119071428D02*
X152954819Y-118880952D01*
X152954819Y-118880952D02*
X153002438Y-118785714D01*
X153002438Y-118785714D02*
X153097676Y-118690476D01*
X153097676Y-118690476D02*
X153288152Y-118642857D01*
X153288152Y-118642857D02*
X153621485Y-118642857D01*
X153621485Y-118642857D02*
X153811961Y-118690476D01*
X153811961Y-118690476D02*
X153907200Y-118785714D01*
X153907200Y-118785714D02*
X153954819Y-118880952D01*
X153954819Y-118880952D02*
X153954819Y-119071428D01*
X153050057Y-118261904D02*
X153002438Y-118214285D01*
X153002438Y-118214285D02*
X152954819Y-118119047D01*
X152954819Y-118119047D02*
X152954819Y-117880952D01*
X152954819Y-117880952D02*
X153002438Y-117785714D01*
X153002438Y-117785714D02*
X153050057Y-117738095D01*
X153050057Y-117738095D02*
X153145295Y-117690476D01*
X153145295Y-117690476D02*
X153240533Y-117690476D01*
X153240533Y-117690476D02*
X153383390Y-117738095D01*
X153383390Y-117738095D02*
X153954819Y-118309523D01*
X153954819Y-118309523D02*
X153954819Y-117690476D01*
X111323333Y-111994819D02*
X110990000Y-111518628D01*
X110751905Y-111994819D02*
X110751905Y-110994819D01*
X110751905Y-110994819D02*
X111132857Y-110994819D01*
X111132857Y-110994819D02*
X111228095Y-111042438D01*
X111228095Y-111042438D02*
X111275714Y-111090057D01*
X111275714Y-111090057D02*
X111323333Y-111185295D01*
X111323333Y-111185295D02*
X111323333Y-111328152D01*
X111323333Y-111328152D02*
X111275714Y-111423390D01*
X111275714Y-111423390D02*
X111228095Y-111471009D01*
X111228095Y-111471009D02*
X111132857Y-111518628D01*
X111132857Y-111518628D02*
X110751905Y-111518628D01*
X111799524Y-111994819D02*
X111990000Y-111994819D01*
X111990000Y-111994819D02*
X112085238Y-111947200D01*
X112085238Y-111947200D02*
X112132857Y-111899580D01*
X112132857Y-111899580D02*
X112228095Y-111756723D01*
X112228095Y-111756723D02*
X112275714Y-111566247D01*
X112275714Y-111566247D02*
X112275714Y-111185295D01*
X112275714Y-111185295D02*
X112228095Y-111090057D01*
X112228095Y-111090057D02*
X112180476Y-111042438D01*
X112180476Y-111042438D02*
X112085238Y-110994819D01*
X112085238Y-110994819D02*
X111894762Y-110994819D01*
X111894762Y-110994819D02*
X111799524Y-111042438D01*
X111799524Y-111042438D02*
X111751905Y-111090057D01*
X111751905Y-111090057D02*
X111704286Y-111185295D01*
X111704286Y-111185295D02*
X111704286Y-111423390D01*
X111704286Y-111423390D02*
X111751905Y-111518628D01*
X111751905Y-111518628D02*
X111799524Y-111566247D01*
X111799524Y-111566247D02*
X111894762Y-111613866D01*
X111894762Y-111613866D02*
X112085238Y-111613866D01*
X112085238Y-111613866D02*
X112180476Y-111566247D01*
X112180476Y-111566247D02*
X112228095Y-111518628D01*
X112228095Y-111518628D02*
X112275714Y-111423390D01*
X135276666Y-64604819D02*
X135276666Y-65319104D01*
X135276666Y-65319104D02*
X135229047Y-65461961D01*
X135229047Y-65461961D02*
X135133809Y-65557200D01*
X135133809Y-65557200D02*
X134990952Y-65604819D01*
X134990952Y-65604819D02*
X134895714Y-65604819D01*
X136181428Y-64938152D02*
X136181428Y-65604819D01*
X135943333Y-64557200D02*
X135705238Y-65271485D01*
X135705238Y-65271485D02*
X136324285Y-65271485D01*
X130460952Y-55874819D02*
X129984762Y-55874819D01*
X129984762Y-55874819D02*
X129984762Y-54874819D01*
X130794286Y-55874819D02*
X130794286Y-54874819D01*
X131270476Y-55874819D02*
X131270476Y-54874819D01*
X131270476Y-54874819D02*
X131603809Y-55589104D01*
X131603809Y-55589104D02*
X131937142Y-54874819D01*
X131937142Y-54874819D02*
X131937142Y-55874819D01*
X132413333Y-55874819D02*
X132413333Y-54874819D01*
X132746666Y-54874819D02*
X133318094Y-54874819D01*
X133032380Y-55874819D02*
X133032380Y-54874819D01*
X134365714Y-55827200D02*
X134508571Y-55874819D01*
X134508571Y-55874819D02*
X134746666Y-55874819D01*
X134746666Y-55874819D02*
X134841904Y-55827200D01*
X134841904Y-55827200D02*
X134889523Y-55779580D01*
X134889523Y-55779580D02*
X134937142Y-55684342D01*
X134937142Y-55684342D02*
X134937142Y-55589104D01*
X134937142Y-55589104D02*
X134889523Y-55493866D01*
X134889523Y-55493866D02*
X134841904Y-55446247D01*
X134841904Y-55446247D02*
X134746666Y-55398628D01*
X134746666Y-55398628D02*
X134556190Y-55351009D01*
X134556190Y-55351009D02*
X134460952Y-55303390D01*
X134460952Y-55303390D02*
X134413333Y-55255771D01*
X134413333Y-55255771D02*
X134365714Y-55160533D01*
X134365714Y-55160533D02*
X134365714Y-55065295D01*
X134365714Y-55065295D02*
X134413333Y-54970057D01*
X134413333Y-54970057D02*
X134460952Y-54922438D01*
X134460952Y-54922438D02*
X134556190Y-54874819D01*
X134556190Y-54874819D02*
X134794285Y-54874819D01*
X134794285Y-54874819D02*
X134937142Y-54922438D01*
X135270476Y-54874819D02*
X135508571Y-55874819D01*
X135508571Y-55874819D02*
X135699047Y-55160533D01*
X135699047Y-55160533D02*
X135889523Y-55874819D01*
X135889523Y-55874819D02*
X136127619Y-54874819D01*
X136508571Y-55874819D02*
X136508571Y-54874819D01*
X136841904Y-54874819D02*
X137413332Y-54874819D01*
X137127618Y-55874819D02*
X137127618Y-54874819D01*
X138318094Y-55779580D02*
X138270475Y-55827200D01*
X138270475Y-55827200D02*
X138127618Y-55874819D01*
X138127618Y-55874819D02*
X138032380Y-55874819D01*
X138032380Y-55874819D02*
X137889523Y-55827200D01*
X137889523Y-55827200D02*
X137794285Y-55731961D01*
X137794285Y-55731961D02*
X137746666Y-55636723D01*
X137746666Y-55636723D02*
X137699047Y-55446247D01*
X137699047Y-55446247D02*
X137699047Y-55303390D01*
X137699047Y-55303390D02*
X137746666Y-55112914D01*
X137746666Y-55112914D02*
X137794285Y-55017676D01*
X137794285Y-55017676D02*
X137889523Y-54922438D01*
X137889523Y-54922438D02*
X138032380Y-54874819D01*
X138032380Y-54874819D02*
X138127618Y-54874819D01*
X138127618Y-54874819D02*
X138270475Y-54922438D01*
X138270475Y-54922438D02*
X138318094Y-54970057D01*
X138746666Y-55874819D02*
X138746666Y-54874819D01*
X138746666Y-55351009D02*
X139318094Y-55351009D01*
X139318094Y-55874819D02*
X139318094Y-54874819D01*
X139794285Y-55351009D02*
X140127618Y-55351009D01*
X140270475Y-55874819D02*
X139794285Y-55874819D01*
X139794285Y-55874819D02*
X139794285Y-54874819D01*
X139794285Y-54874819D02*
X140270475Y-54874819D01*
X140651428Y-55827200D02*
X140794285Y-55874819D01*
X140794285Y-55874819D02*
X141032380Y-55874819D01*
X141032380Y-55874819D02*
X141127618Y-55827200D01*
X141127618Y-55827200D02*
X141175237Y-55779580D01*
X141175237Y-55779580D02*
X141222856Y-55684342D01*
X141222856Y-55684342D02*
X141222856Y-55589104D01*
X141222856Y-55589104D02*
X141175237Y-55493866D01*
X141175237Y-55493866D02*
X141127618Y-55446247D01*
X141127618Y-55446247D02*
X141032380Y-55398628D01*
X141032380Y-55398628D02*
X140841904Y-55351009D01*
X140841904Y-55351009D02*
X140746666Y-55303390D01*
X140746666Y-55303390D02*
X140699047Y-55255771D01*
X140699047Y-55255771D02*
X140651428Y-55160533D01*
X140651428Y-55160533D02*
X140651428Y-55065295D01*
X140651428Y-55065295D02*
X140699047Y-54970057D01*
X140699047Y-54970057D02*
X140746666Y-54922438D01*
X140746666Y-54922438D02*
X140841904Y-54874819D01*
X140841904Y-54874819D02*
X141079999Y-54874819D01*
X141079999Y-54874819D02*
X141222856Y-54922438D01*
X106534819Y-99293333D02*
X107249104Y-99293333D01*
X107249104Y-99293333D02*
X107391961Y-99340952D01*
X107391961Y-99340952D02*
X107487200Y-99436190D01*
X107487200Y-99436190D02*
X107534819Y-99579047D01*
X107534819Y-99579047D02*
X107534819Y-99674285D01*
X106534819Y-98340952D02*
X106534819Y-98817142D01*
X106534819Y-98817142D02*
X107011009Y-98864761D01*
X107011009Y-98864761D02*
X106963390Y-98817142D01*
X106963390Y-98817142D02*
X106915771Y-98721904D01*
X106915771Y-98721904D02*
X106915771Y-98483809D01*
X106915771Y-98483809D02*
X106963390Y-98388571D01*
X106963390Y-98388571D02*
X107011009Y-98340952D01*
X107011009Y-98340952D02*
X107106247Y-98293333D01*
X107106247Y-98293333D02*
X107344342Y-98293333D01*
X107344342Y-98293333D02*
X107439580Y-98340952D01*
X107439580Y-98340952D02*
X107487200Y-98388571D01*
X107487200Y-98388571D02*
X107534819Y-98483809D01*
X107534819Y-98483809D02*
X107534819Y-98721904D01*
X107534819Y-98721904D02*
X107487200Y-98817142D01*
X107487200Y-98817142D02*
X107439580Y-98864761D01*
X96851009Y-101817143D02*
X96898628Y-101674286D01*
X96898628Y-101674286D02*
X96946247Y-101626667D01*
X96946247Y-101626667D02*
X97041485Y-101579048D01*
X97041485Y-101579048D02*
X97184342Y-101579048D01*
X97184342Y-101579048D02*
X97279580Y-101626667D01*
X97279580Y-101626667D02*
X97327200Y-101674286D01*
X97327200Y-101674286D02*
X97374819Y-101769524D01*
X97374819Y-101769524D02*
X97374819Y-102150476D01*
X97374819Y-102150476D02*
X96374819Y-102150476D01*
X96374819Y-102150476D02*
X96374819Y-101817143D01*
X96374819Y-101817143D02*
X96422438Y-101721905D01*
X96422438Y-101721905D02*
X96470057Y-101674286D01*
X96470057Y-101674286D02*
X96565295Y-101626667D01*
X96565295Y-101626667D02*
X96660533Y-101626667D01*
X96660533Y-101626667D02*
X96755771Y-101674286D01*
X96755771Y-101674286D02*
X96803390Y-101721905D01*
X96803390Y-101721905D02*
X96851009Y-101817143D01*
X96851009Y-101817143D02*
X96851009Y-102150476D01*
X97374819Y-101007619D02*
X97327200Y-101102857D01*
X97327200Y-101102857D02*
X97279580Y-101150476D01*
X97279580Y-101150476D02*
X97184342Y-101198095D01*
X97184342Y-101198095D02*
X96898628Y-101198095D01*
X96898628Y-101198095D02*
X96803390Y-101150476D01*
X96803390Y-101150476D02*
X96755771Y-101102857D01*
X96755771Y-101102857D02*
X96708152Y-101007619D01*
X96708152Y-101007619D02*
X96708152Y-100864762D01*
X96708152Y-100864762D02*
X96755771Y-100769524D01*
X96755771Y-100769524D02*
X96803390Y-100721905D01*
X96803390Y-100721905D02*
X96898628Y-100674286D01*
X96898628Y-100674286D02*
X97184342Y-100674286D01*
X97184342Y-100674286D02*
X97279580Y-100721905D01*
X97279580Y-100721905D02*
X97327200Y-100769524D01*
X97327200Y-100769524D02*
X97374819Y-100864762D01*
X97374819Y-100864762D02*
X97374819Y-101007619D01*
X96708152Y-100388571D02*
X96708152Y-100007619D01*
X96374819Y-100245714D02*
X97231961Y-100245714D01*
X97231961Y-100245714D02*
X97327200Y-100198095D01*
X97327200Y-100198095D02*
X97374819Y-100102857D01*
X97374819Y-100102857D02*
X97374819Y-100007619D01*
X97374819Y-99531428D02*
X97327200Y-99626666D01*
X97327200Y-99626666D02*
X97279580Y-99674285D01*
X97279580Y-99674285D02*
X97184342Y-99721904D01*
X97184342Y-99721904D02*
X96898628Y-99721904D01*
X96898628Y-99721904D02*
X96803390Y-99674285D01*
X96803390Y-99674285D02*
X96755771Y-99626666D01*
X96755771Y-99626666D02*
X96708152Y-99531428D01*
X96708152Y-99531428D02*
X96708152Y-99388571D01*
X96708152Y-99388571D02*
X96755771Y-99293333D01*
X96755771Y-99293333D02*
X96803390Y-99245714D01*
X96803390Y-99245714D02*
X96898628Y-99198095D01*
X96898628Y-99198095D02*
X97184342Y-99198095D01*
X97184342Y-99198095D02*
X97279580Y-99245714D01*
X97279580Y-99245714D02*
X97327200Y-99293333D01*
X97327200Y-99293333D02*
X97374819Y-99388571D01*
X97374819Y-99388571D02*
X97374819Y-99531428D01*
X96708152Y-98769523D02*
X97374819Y-98769523D01*
X96803390Y-98769523D02*
X96755771Y-98721904D01*
X96755771Y-98721904D02*
X96708152Y-98626666D01*
X96708152Y-98626666D02*
X96708152Y-98483809D01*
X96708152Y-98483809D02*
X96755771Y-98388571D01*
X96755771Y-98388571D02*
X96851009Y-98340952D01*
X96851009Y-98340952D02*
X97374819Y-98340952D01*
X96708152Y-97102856D02*
X97708152Y-97102856D01*
X96755771Y-97102856D02*
X96708152Y-97007618D01*
X96708152Y-97007618D02*
X96708152Y-96817142D01*
X96708152Y-96817142D02*
X96755771Y-96721904D01*
X96755771Y-96721904D02*
X96803390Y-96674285D01*
X96803390Y-96674285D02*
X96898628Y-96626666D01*
X96898628Y-96626666D02*
X97184342Y-96626666D01*
X97184342Y-96626666D02*
X97279580Y-96674285D01*
X97279580Y-96674285D02*
X97327200Y-96721904D01*
X97327200Y-96721904D02*
X97374819Y-96817142D01*
X97374819Y-96817142D02*
X97374819Y-97007618D01*
X97374819Y-97007618D02*
X97327200Y-97102856D01*
X96708152Y-96198094D02*
X97708152Y-96198094D01*
X96755771Y-96198094D02*
X96708152Y-96102856D01*
X96708152Y-96102856D02*
X96708152Y-95912380D01*
X96708152Y-95912380D02*
X96755771Y-95817142D01*
X96755771Y-95817142D02*
X96803390Y-95769523D01*
X96803390Y-95769523D02*
X96898628Y-95721904D01*
X96898628Y-95721904D02*
X97184342Y-95721904D01*
X97184342Y-95721904D02*
X97279580Y-95769523D01*
X97279580Y-95769523D02*
X97327200Y-95817142D01*
X97327200Y-95817142D02*
X97374819Y-95912380D01*
X97374819Y-95912380D02*
X97374819Y-96102856D01*
X97374819Y-96102856D02*
X97327200Y-96198094D01*
X171454819Y-102142857D02*
X170978628Y-102476190D01*
X171454819Y-102714285D02*
X170454819Y-102714285D01*
X170454819Y-102714285D02*
X170454819Y-102333333D01*
X170454819Y-102333333D02*
X170502438Y-102238095D01*
X170502438Y-102238095D02*
X170550057Y-102190476D01*
X170550057Y-102190476D02*
X170645295Y-102142857D01*
X170645295Y-102142857D02*
X170788152Y-102142857D01*
X170788152Y-102142857D02*
X170883390Y-102190476D01*
X170883390Y-102190476D02*
X170931009Y-102238095D01*
X170931009Y-102238095D02*
X170978628Y-102333333D01*
X170978628Y-102333333D02*
X170978628Y-102714285D01*
X171454819Y-101190476D02*
X171454819Y-101761904D01*
X171454819Y-101476190D02*
X170454819Y-101476190D01*
X170454819Y-101476190D02*
X170597676Y-101571428D01*
X170597676Y-101571428D02*
X170692914Y-101666666D01*
X170692914Y-101666666D02*
X170740533Y-101761904D01*
X170454819Y-100285714D02*
X170454819Y-100761904D01*
X170454819Y-100761904D02*
X170931009Y-100809523D01*
X170931009Y-100809523D02*
X170883390Y-100761904D01*
X170883390Y-100761904D02*
X170835771Y-100666666D01*
X170835771Y-100666666D02*
X170835771Y-100428571D01*
X170835771Y-100428571D02*
X170883390Y-100333333D01*
X170883390Y-100333333D02*
X170931009Y-100285714D01*
X170931009Y-100285714D02*
X171026247Y-100238095D01*
X171026247Y-100238095D02*
X171264342Y-100238095D01*
X171264342Y-100238095D02*
X171359580Y-100285714D01*
X171359580Y-100285714D02*
X171407200Y-100333333D01*
X171407200Y-100333333D02*
X171454819Y-100428571D01*
X171454819Y-100428571D02*
X171454819Y-100666666D01*
X171454819Y-100666666D02*
X171407200Y-100761904D01*
X171407200Y-100761904D02*
X171359580Y-100809523D01*
X105696666Y-64604819D02*
X105696666Y-65319104D01*
X105696666Y-65319104D02*
X105649047Y-65461961D01*
X105649047Y-65461961D02*
X105553809Y-65557200D01*
X105553809Y-65557200D02*
X105410952Y-65604819D01*
X105410952Y-65604819D02*
X105315714Y-65604819D01*
X106077619Y-64604819D02*
X106696666Y-64604819D01*
X106696666Y-64604819D02*
X106363333Y-64985771D01*
X106363333Y-64985771D02*
X106506190Y-64985771D01*
X106506190Y-64985771D02*
X106601428Y-65033390D01*
X106601428Y-65033390D02*
X106649047Y-65081009D01*
X106649047Y-65081009D02*
X106696666Y-65176247D01*
X106696666Y-65176247D02*
X106696666Y-65414342D01*
X106696666Y-65414342D02*
X106649047Y-65509580D01*
X106649047Y-65509580D02*
X106601428Y-65557200D01*
X106601428Y-65557200D02*
X106506190Y-65604819D01*
X106506190Y-65604819D02*
X106220476Y-65604819D01*
X106220476Y-65604819D02*
X106125238Y-65557200D01*
X106125238Y-65557200D02*
X106077619Y-65509580D01*
X102595237Y-55208152D02*
X102976189Y-55208152D01*
X102738094Y-55874819D02*
X102738094Y-55017676D01*
X102738094Y-55017676D02*
X102785713Y-54922438D01*
X102785713Y-54922438D02*
X102880951Y-54874819D01*
X102880951Y-54874819D02*
X102976189Y-54874819D01*
X103452380Y-55874819D02*
X103357142Y-55827200D01*
X103357142Y-55827200D02*
X103309523Y-55779580D01*
X103309523Y-55779580D02*
X103261904Y-55684342D01*
X103261904Y-55684342D02*
X103261904Y-55398628D01*
X103261904Y-55398628D02*
X103309523Y-55303390D01*
X103309523Y-55303390D02*
X103357142Y-55255771D01*
X103357142Y-55255771D02*
X103452380Y-55208152D01*
X103452380Y-55208152D02*
X103595237Y-55208152D01*
X103595237Y-55208152D02*
X103690475Y-55255771D01*
X103690475Y-55255771D02*
X103738094Y-55303390D01*
X103738094Y-55303390D02*
X103785713Y-55398628D01*
X103785713Y-55398628D02*
X103785713Y-55684342D01*
X103785713Y-55684342D02*
X103738094Y-55779580D01*
X103738094Y-55779580D02*
X103690475Y-55827200D01*
X103690475Y-55827200D02*
X103595237Y-55874819D01*
X103595237Y-55874819D02*
X103452380Y-55874819D01*
X104071428Y-55208152D02*
X104452380Y-55208152D01*
X104214285Y-54874819D02*
X104214285Y-55731961D01*
X104214285Y-55731961D02*
X104261904Y-55827200D01*
X104261904Y-55827200D02*
X104357142Y-55874819D01*
X104357142Y-55874819D02*
X104452380Y-55874819D01*
X104928571Y-55874819D02*
X104833333Y-55827200D01*
X104833333Y-55827200D02*
X104785714Y-55779580D01*
X104785714Y-55779580D02*
X104738095Y-55684342D01*
X104738095Y-55684342D02*
X104738095Y-55398628D01*
X104738095Y-55398628D02*
X104785714Y-55303390D01*
X104785714Y-55303390D02*
X104833333Y-55255771D01*
X104833333Y-55255771D02*
X104928571Y-55208152D01*
X104928571Y-55208152D02*
X105071428Y-55208152D01*
X105071428Y-55208152D02*
X105166666Y-55255771D01*
X105166666Y-55255771D02*
X105214285Y-55303390D01*
X105214285Y-55303390D02*
X105261904Y-55398628D01*
X105261904Y-55398628D02*
X105261904Y-55684342D01*
X105261904Y-55684342D02*
X105214285Y-55779580D01*
X105214285Y-55779580D02*
X105166666Y-55827200D01*
X105166666Y-55827200D02*
X105071428Y-55874819D01*
X105071428Y-55874819D02*
X104928571Y-55874819D01*
X106119047Y-55827200D02*
X106023809Y-55874819D01*
X106023809Y-55874819D02*
X105833333Y-55874819D01*
X105833333Y-55874819D02*
X105738095Y-55827200D01*
X105738095Y-55827200D02*
X105690476Y-55779580D01*
X105690476Y-55779580D02*
X105642857Y-55684342D01*
X105642857Y-55684342D02*
X105642857Y-55398628D01*
X105642857Y-55398628D02*
X105690476Y-55303390D01*
X105690476Y-55303390D02*
X105738095Y-55255771D01*
X105738095Y-55255771D02*
X105833333Y-55208152D01*
X105833333Y-55208152D02*
X106023809Y-55208152D01*
X106023809Y-55208152D02*
X106119047Y-55255771D01*
X106928571Y-55827200D02*
X106833333Y-55874819D01*
X106833333Y-55874819D02*
X106642857Y-55874819D01*
X106642857Y-55874819D02*
X106547619Y-55827200D01*
X106547619Y-55827200D02*
X106500000Y-55731961D01*
X106500000Y-55731961D02*
X106500000Y-55351009D01*
X106500000Y-55351009D02*
X106547619Y-55255771D01*
X106547619Y-55255771D02*
X106642857Y-55208152D01*
X106642857Y-55208152D02*
X106833333Y-55208152D01*
X106833333Y-55208152D02*
X106928571Y-55255771D01*
X106928571Y-55255771D02*
X106976190Y-55351009D01*
X106976190Y-55351009D02*
X106976190Y-55446247D01*
X106976190Y-55446247D02*
X106500000Y-55541485D01*
X107547619Y-55874819D02*
X107452381Y-55827200D01*
X107452381Y-55827200D02*
X107404762Y-55731961D01*
X107404762Y-55731961D02*
X107404762Y-54874819D01*
X108357143Y-55874819D02*
X108357143Y-54874819D01*
X108357143Y-55827200D02*
X108261905Y-55874819D01*
X108261905Y-55874819D02*
X108071429Y-55874819D01*
X108071429Y-55874819D02*
X107976191Y-55827200D01*
X107976191Y-55827200D02*
X107928572Y-55779580D01*
X107928572Y-55779580D02*
X107880953Y-55684342D01*
X107880953Y-55684342D02*
X107880953Y-55398628D01*
X107880953Y-55398628D02*
X107928572Y-55303390D01*
X107928572Y-55303390D02*
X107976191Y-55255771D01*
X107976191Y-55255771D02*
X108071429Y-55208152D01*
X108071429Y-55208152D02*
X108261905Y-55208152D01*
X108261905Y-55208152D02*
X108357143Y-55255771D01*
X109261905Y-55874819D02*
X109261905Y-55351009D01*
X109261905Y-55351009D02*
X109214286Y-55255771D01*
X109214286Y-55255771D02*
X109119048Y-55208152D01*
X109119048Y-55208152D02*
X108928572Y-55208152D01*
X108928572Y-55208152D02*
X108833334Y-55255771D01*
X109261905Y-55827200D02*
X109166667Y-55874819D01*
X109166667Y-55874819D02*
X108928572Y-55874819D01*
X108928572Y-55874819D02*
X108833334Y-55827200D01*
X108833334Y-55827200D02*
X108785715Y-55731961D01*
X108785715Y-55731961D02*
X108785715Y-55636723D01*
X108785715Y-55636723D02*
X108833334Y-55541485D01*
X108833334Y-55541485D02*
X108928572Y-55493866D01*
X108928572Y-55493866D02*
X109166667Y-55493866D01*
X109166667Y-55493866D02*
X109261905Y-55446247D01*
X111357142Y-109494819D02*
X111023809Y-109018628D01*
X110785714Y-109494819D02*
X110785714Y-108494819D01*
X110785714Y-108494819D02*
X111166666Y-108494819D01*
X111166666Y-108494819D02*
X111261904Y-108542438D01*
X111261904Y-108542438D02*
X111309523Y-108590057D01*
X111309523Y-108590057D02*
X111357142Y-108685295D01*
X111357142Y-108685295D02*
X111357142Y-108828152D01*
X111357142Y-108828152D02*
X111309523Y-108923390D01*
X111309523Y-108923390D02*
X111261904Y-108971009D01*
X111261904Y-108971009D02*
X111166666Y-109018628D01*
X111166666Y-109018628D02*
X110785714Y-109018628D01*
X112309523Y-109494819D02*
X111738095Y-109494819D01*
X112023809Y-109494819D02*
X112023809Y-108494819D01*
X112023809Y-108494819D02*
X111928571Y-108637676D01*
X111928571Y-108637676D02*
X111833333Y-108732914D01*
X111833333Y-108732914D02*
X111738095Y-108780533D01*
X112928571Y-108494819D02*
X113023809Y-108494819D01*
X113023809Y-108494819D02*
X113119047Y-108542438D01*
X113119047Y-108542438D02*
X113166666Y-108590057D01*
X113166666Y-108590057D02*
X113214285Y-108685295D01*
X113214285Y-108685295D02*
X113261904Y-108875771D01*
X113261904Y-108875771D02*
X113261904Y-109113866D01*
X113261904Y-109113866D02*
X113214285Y-109304342D01*
X113214285Y-109304342D02*
X113166666Y-109399580D01*
X113166666Y-109399580D02*
X113119047Y-109447200D01*
X113119047Y-109447200D02*
X113023809Y-109494819D01*
X113023809Y-109494819D02*
X112928571Y-109494819D01*
X112928571Y-109494819D02*
X112833333Y-109447200D01*
X112833333Y-109447200D02*
X112785714Y-109399580D01*
X112785714Y-109399580D02*
X112738095Y-109304342D01*
X112738095Y-109304342D02*
X112690476Y-109113866D01*
X112690476Y-109113866D02*
X112690476Y-108875771D01*
X112690476Y-108875771D02*
X112738095Y-108685295D01*
X112738095Y-108685295D02*
X112785714Y-108590057D01*
X112785714Y-108590057D02*
X112833333Y-108542438D01*
X112833333Y-108542438D02*
X112928571Y-108494819D01*
X119666666Y-65034819D02*
X119666666Y-65749104D01*
X119666666Y-65749104D02*
X119619047Y-65891961D01*
X119619047Y-65891961D02*
X119523809Y-65987200D01*
X119523809Y-65987200D02*
X119380952Y-66034819D01*
X119380952Y-66034819D02*
X119285714Y-66034819D01*
X120666666Y-66034819D02*
X120095238Y-66034819D01*
X120380952Y-66034819D02*
X120380952Y-65034819D01*
X120380952Y-65034819D02*
X120285714Y-65177676D01*
X120285714Y-65177676D02*
X120190476Y-65272914D01*
X120190476Y-65272914D02*
X120095238Y-65320533D01*
X114976191Y-55589104D02*
X115452381Y-55589104D01*
X114880953Y-55874819D02*
X115214286Y-54874819D01*
X115214286Y-54874819D02*
X115547619Y-55874819D01*
X116357143Y-55874819D02*
X115880953Y-55874819D01*
X115880953Y-55874819D02*
X115880953Y-54874819D01*
X116690477Y-55874819D02*
X116690477Y-54874819D01*
X117166667Y-55874819D02*
X117166667Y-54874819D01*
X117166667Y-54874819D02*
X117500000Y-55589104D01*
X117500000Y-55589104D02*
X117833333Y-54874819D01*
X117833333Y-54874819D02*
X117833333Y-55874819D01*
X118309524Y-55351009D02*
X118642857Y-55351009D01*
X118785714Y-55874819D02*
X118309524Y-55874819D01*
X118309524Y-55874819D02*
X118309524Y-54874819D01*
X118309524Y-54874819D02*
X118785714Y-54874819D01*
X119214286Y-55874819D02*
X119214286Y-54874819D01*
X119214286Y-54874819D02*
X119785714Y-55874819D01*
X119785714Y-55874819D02*
X119785714Y-54874819D01*
X120119048Y-54874819D02*
X120690476Y-54874819D01*
X120404762Y-55874819D02*
X120404762Y-54874819D01*
X120976191Y-55589104D02*
X121452381Y-55589104D01*
X120880953Y-55874819D02*
X121214286Y-54874819D01*
X121214286Y-54874819D02*
X121547619Y-55874819D01*
X122452381Y-55779580D02*
X122404762Y-55827200D01*
X122404762Y-55827200D02*
X122261905Y-55874819D01*
X122261905Y-55874819D02*
X122166667Y-55874819D01*
X122166667Y-55874819D02*
X122023810Y-55827200D01*
X122023810Y-55827200D02*
X121928572Y-55731961D01*
X121928572Y-55731961D02*
X121880953Y-55636723D01*
X121880953Y-55636723D02*
X121833334Y-55446247D01*
X121833334Y-55446247D02*
X121833334Y-55303390D01*
X121833334Y-55303390D02*
X121880953Y-55112914D01*
X121880953Y-55112914D02*
X121928572Y-55017676D01*
X121928572Y-55017676D02*
X122023810Y-54922438D01*
X122023810Y-54922438D02*
X122166667Y-54874819D01*
X122166667Y-54874819D02*
X122261905Y-54874819D01*
X122261905Y-54874819D02*
X122404762Y-54922438D01*
X122404762Y-54922438D02*
X122452381Y-54970057D01*
X122880953Y-55874819D02*
X122880953Y-54874819D01*
X123547619Y-54874819D02*
X123738095Y-54874819D01*
X123738095Y-54874819D02*
X123833333Y-54922438D01*
X123833333Y-54922438D02*
X123928571Y-55017676D01*
X123928571Y-55017676D02*
X123976190Y-55208152D01*
X123976190Y-55208152D02*
X123976190Y-55541485D01*
X123976190Y-55541485D02*
X123928571Y-55731961D01*
X123928571Y-55731961D02*
X123833333Y-55827200D01*
X123833333Y-55827200D02*
X123738095Y-55874819D01*
X123738095Y-55874819D02*
X123547619Y-55874819D01*
X123547619Y-55874819D02*
X123452381Y-55827200D01*
X123452381Y-55827200D02*
X123357143Y-55731961D01*
X123357143Y-55731961D02*
X123309524Y-55541485D01*
X123309524Y-55541485D02*
X123309524Y-55208152D01*
X123309524Y-55208152D02*
X123357143Y-55017676D01*
X123357143Y-55017676D02*
X123452381Y-54922438D01*
X123452381Y-54922438D02*
X123547619Y-54874819D01*
X124404762Y-55874819D02*
X124404762Y-54874819D01*
X124404762Y-54874819D02*
X124976190Y-55874819D01*
X124976190Y-55874819D02*
X124976190Y-54874819D01*
X133843333Y-68124819D02*
X133510000Y-67648628D01*
X133271905Y-68124819D02*
X133271905Y-67124819D01*
X133271905Y-67124819D02*
X133652857Y-67124819D01*
X133652857Y-67124819D02*
X133748095Y-67172438D01*
X133748095Y-67172438D02*
X133795714Y-67220057D01*
X133795714Y-67220057D02*
X133843333Y-67315295D01*
X133843333Y-67315295D02*
X133843333Y-67458152D01*
X133843333Y-67458152D02*
X133795714Y-67553390D01*
X133795714Y-67553390D02*
X133748095Y-67601009D01*
X133748095Y-67601009D02*
X133652857Y-67648628D01*
X133652857Y-67648628D02*
X133271905Y-67648628D01*
X134176667Y-67124819D02*
X134795714Y-67124819D01*
X134795714Y-67124819D02*
X134462381Y-67505771D01*
X134462381Y-67505771D02*
X134605238Y-67505771D01*
X134605238Y-67505771D02*
X134700476Y-67553390D01*
X134700476Y-67553390D02*
X134748095Y-67601009D01*
X134748095Y-67601009D02*
X134795714Y-67696247D01*
X134795714Y-67696247D02*
X134795714Y-67934342D01*
X134795714Y-67934342D02*
X134748095Y-68029580D01*
X134748095Y-68029580D02*
X134700476Y-68077200D01*
X134700476Y-68077200D02*
X134605238Y-68124819D01*
X134605238Y-68124819D02*
X134319524Y-68124819D01*
X134319524Y-68124819D02*
X134224286Y-68077200D01*
X134224286Y-68077200D02*
X134176667Y-68029580D01*
X109323333Y-118494819D02*
X108990000Y-118018628D01*
X108751905Y-118494819D02*
X108751905Y-117494819D01*
X108751905Y-117494819D02*
X109132857Y-117494819D01*
X109132857Y-117494819D02*
X109228095Y-117542438D01*
X109228095Y-117542438D02*
X109275714Y-117590057D01*
X109275714Y-117590057D02*
X109323333Y-117685295D01*
X109323333Y-117685295D02*
X109323333Y-117828152D01*
X109323333Y-117828152D02*
X109275714Y-117923390D01*
X109275714Y-117923390D02*
X109228095Y-117971009D01*
X109228095Y-117971009D02*
X109132857Y-118018628D01*
X109132857Y-118018628D02*
X108751905Y-118018628D01*
X109656667Y-117494819D02*
X110323333Y-117494819D01*
X110323333Y-117494819D02*
X109894762Y-118494819D01*
X108738095Y-77414819D02*
X108738095Y-78224342D01*
X108738095Y-78224342D02*
X108785714Y-78319580D01*
X108785714Y-78319580D02*
X108833333Y-78367200D01*
X108833333Y-78367200D02*
X108928571Y-78414819D01*
X108928571Y-78414819D02*
X109119047Y-78414819D01*
X109119047Y-78414819D02*
X109214285Y-78367200D01*
X109214285Y-78367200D02*
X109261904Y-78319580D01*
X109261904Y-78319580D02*
X109309523Y-78224342D01*
X109309523Y-78224342D02*
X109309523Y-77414819D01*
X110309523Y-78414819D02*
X109738095Y-78414819D01*
X110023809Y-78414819D02*
X110023809Y-77414819D01*
X110023809Y-77414819D02*
X109928571Y-77557676D01*
X109928571Y-77557676D02*
X109833333Y-77652914D01*
X109833333Y-77652914D02*
X109738095Y-77700533D01*
X166284819Y-92632857D02*
X165808628Y-92966190D01*
X166284819Y-93204285D02*
X165284819Y-93204285D01*
X165284819Y-93204285D02*
X165284819Y-92823333D01*
X165284819Y-92823333D02*
X165332438Y-92728095D01*
X165332438Y-92728095D02*
X165380057Y-92680476D01*
X165380057Y-92680476D02*
X165475295Y-92632857D01*
X165475295Y-92632857D02*
X165618152Y-92632857D01*
X165618152Y-92632857D02*
X165713390Y-92680476D01*
X165713390Y-92680476D02*
X165761009Y-92728095D01*
X165761009Y-92728095D02*
X165808628Y-92823333D01*
X165808628Y-92823333D02*
X165808628Y-93204285D01*
X166284819Y-91680476D02*
X166284819Y-92251904D01*
X166284819Y-91966190D02*
X165284819Y-91966190D01*
X165284819Y-91966190D02*
X165427676Y-92061428D01*
X165427676Y-92061428D02*
X165522914Y-92156666D01*
X165522914Y-92156666D02*
X165570533Y-92251904D01*
X165618152Y-90823333D02*
X166284819Y-90823333D01*
X165237200Y-91061428D02*
X165951485Y-91299523D01*
X165951485Y-91299523D02*
X165951485Y-90680476D01*
X172454819Y-96152857D02*
X171978628Y-96486190D01*
X172454819Y-96724285D02*
X171454819Y-96724285D01*
X171454819Y-96724285D02*
X171454819Y-96343333D01*
X171454819Y-96343333D02*
X171502438Y-96248095D01*
X171502438Y-96248095D02*
X171550057Y-96200476D01*
X171550057Y-96200476D02*
X171645295Y-96152857D01*
X171645295Y-96152857D02*
X171788152Y-96152857D01*
X171788152Y-96152857D02*
X171883390Y-96200476D01*
X171883390Y-96200476D02*
X171931009Y-96248095D01*
X171931009Y-96248095D02*
X171978628Y-96343333D01*
X171978628Y-96343333D02*
X171978628Y-96724285D01*
X172454819Y-95200476D02*
X172454819Y-95771904D01*
X172454819Y-95486190D02*
X171454819Y-95486190D01*
X171454819Y-95486190D02*
X171597676Y-95581428D01*
X171597676Y-95581428D02*
X171692914Y-95676666D01*
X171692914Y-95676666D02*
X171740533Y-95771904D01*
X171454819Y-94343333D02*
X171454819Y-94533809D01*
X171454819Y-94533809D02*
X171502438Y-94629047D01*
X171502438Y-94629047D02*
X171550057Y-94676666D01*
X171550057Y-94676666D02*
X171692914Y-94771904D01*
X171692914Y-94771904D02*
X171883390Y-94819523D01*
X171883390Y-94819523D02*
X172264342Y-94819523D01*
X172264342Y-94819523D02*
X172359580Y-94771904D01*
X172359580Y-94771904D02*
X172407200Y-94724285D01*
X172407200Y-94724285D02*
X172454819Y-94629047D01*
X172454819Y-94629047D02*
X172454819Y-94438571D01*
X172454819Y-94438571D02*
X172407200Y-94343333D01*
X172407200Y-94343333D02*
X172359580Y-94295714D01*
X172359580Y-94295714D02*
X172264342Y-94248095D01*
X172264342Y-94248095D02*
X172026247Y-94248095D01*
X172026247Y-94248095D02*
X171931009Y-94295714D01*
X171931009Y-94295714D02*
X171883390Y-94343333D01*
X171883390Y-94343333D02*
X171835771Y-94438571D01*
X171835771Y-94438571D02*
X171835771Y-94629047D01*
X171835771Y-94629047D02*
X171883390Y-94724285D01*
X171883390Y-94724285D02*
X171931009Y-94771904D01*
X171931009Y-94771904D02*
X172026247Y-94819523D01*
X106104819Y-85763333D02*
X106819104Y-85763333D01*
X106819104Y-85763333D02*
X106961961Y-85810952D01*
X106961961Y-85810952D02*
X107057200Y-85906190D01*
X107057200Y-85906190D02*
X107104819Y-86049047D01*
X107104819Y-86049047D02*
X107104819Y-86144285D01*
X106200057Y-85334761D02*
X106152438Y-85287142D01*
X106152438Y-85287142D02*
X106104819Y-85191904D01*
X106104819Y-85191904D02*
X106104819Y-84953809D01*
X106104819Y-84953809D02*
X106152438Y-84858571D01*
X106152438Y-84858571D02*
X106200057Y-84810952D01*
X106200057Y-84810952D02*
X106295295Y-84763333D01*
X106295295Y-84763333D02*
X106390533Y-84763333D01*
X106390533Y-84763333D02*
X106533390Y-84810952D01*
X106533390Y-84810952D02*
X107104819Y-85382380D01*
X107104819Y-85382380D02*
X107104819Y-84763333D01*
X97374819Y-86864762D02*
X97374819Y-87340952D01*
X97374819Y-87340952D02*
X96374819Y-87340952D01*
X97374819Y-86055238D02*
X97374819Y-86531428D01*
X97374819Y-86531428D02*
X96374819Y-86531428D01*
X97089104Y-85769523D02*
X97089104Y-85293333D01*
X97374819Y-85864761D02*
X96374819Y-85531428D01*
X96374819Y-85531428D02*
X97374819Y-85198095D01*
X96374819Y-85007618D02*
X97374819Y-84674285D01*
X97374819Y-84674285D02*
X96374819Y-84340952D01*
X96851009Y-84007618D02*
X96851009Y-83674285D01*
X97374819Y-83531428D02*
X97374819Y-84007618D01*
X97374819Y-84007618D02*
X96374819Y-84007618D01*
X96374819Y-84007618D02*
X96374819Y-83531428D01*
X162931009Y-108880952D02*
X162978628Y-108738095D01*
X162978628Y-108738095D02*
X163026247Y-108690476D01*
X163026247Y-108690476D02*
X163121485Y-108642857D01*
X163121485Y-108642857D02*
X163264342Y-108642857D01*
X163264342Y-108642857D02*
X163359580Y-108690476D01*
X163359580Y-108690476D02*
X163407200Y-108738095D01*
X163407200Y-108738095D02*
X163454819Y-108833333D01*
X163454819Y-108833333D02*
X163454819Y-109214285D01*
X163454819Y-109214285D02*
X162454819Y-109214285D01*
X162454819Y-109214285D02*
X162454819Y-108880952D01*
X162454819Y-108880952D02*
X162502438Y-108785714D01*
X162502438Y-108785714D02*
X162550057Y-108738095D01*
X162550057Y-108738095D02*
X162645295Y-108690476D01*
X162645295Y-108690476D02*
X162740533Y-108690476D01*
X162740533Y-108690476D02*
X162835771Y-108738095D01*
X162835771Y-108738095D02*
X162883390Y-108785714D01*
X162883390Y-108785714D02*
X162931009Y-108880952D01*
X162931009Y-108880952D02*
X162931009Y-109214285D01*
X162454819Y-108309523D02*
X162454819Y-107642857D01*
X162454819Y-107642857D02*
X163454819Y-108309523D01*
X163454819Y-108309523D02*
X163454819Y-107642857D01*
X163454819Y-106738095D02*
X163454819Y-107309523D01*
X163454819Y-107023809D02*
X162454819Y-107023809D01*
X162454819Y-107023809D02*
X162597676Y-107119047D01*
X162597676Y-107119047D02*
X162692914Y-107214285D01*
X162692914Y-107214285D02*
X162740533Y-107309523D01*
X173931009Y-109928571D02*
X173978628Y-109785714D01*
X173978628Y-109785714D02*
X174026247Y-109738095D01*
X174026247Y-109738095D02*
X174121485Y-109690476D01*
X174121485Y-109690476D02*
X174264342Y-109690476D01*
X174264342Y-109690476D02*
X174359580Y-109738095D01*
X174359580Y-109738095D02*
X174407200Y-109785714D01*
X174407200Y-109785714D02*
X174454819Y-109880952D01*
X174454819Y-109880952D02*
X174454819Y-110261904D01*
X174454819Y-110261904D02*
X173454819Y-110261904D01*
X173454819Y-110261904D02*
X173454819Y-109928571D01*
X173454819Y-109928571D02*
X173502438Y-109833333D01*
X173502438Y-109833333D02*
X173550057Y-109785714D01*
X173550057Y-109785714D02*
X173645295Y-109738095D01*
X173645295Y-109738095D02*
X173740533Y-109738095D01*
X173740533Y-109738095D02*
X173835771Y-109785714D01*
X173835771Y-109785714D02*
X173883390Y-109833333D01*
X173883390Y-109833333D02*
X173931009Y-109928571D01*
X173931009Y-109928571D02*
X173931009Y-110261904D01*
X173788152Y-108833333D02*
X174454819Y-108833333D01*
X173788152Y-109261904D02*
X174311961Y-109261904D01*
X174311961Y-109261904D02*
X174407200Y-109214285D01*
X174407200Y-109214285D02*
X174454819Y-109119047D01*
X174454819Y-109119047D02*
X174454819Y-108976190D01*
X174454819Y-108976190D02*
X174407200Y-108880952D01*
X174407200Y-108880952D02*
X174359580Y-108833333D01*
X173788152Y-108452380D02*
X173788152Y-107928571D01*
X173788152Y-107928571D02*
X174454819Y-108452380D01*
X174454819Y-108452380D02*
X174454819Y-107928571D01*
X173788152Y-107642856D02*
X173788152Y-107119047D01*
X173788152Y-107119047D02*
X174454819Y-107642856D01*
X174454819Y-107642856D02*
X174454819Y-107119047D01*
X174407200Y-106357142D02*
X174454819Y-106452380D01*
X174454819Y-106452380D02*
X174454819Y-106642856D01*
X174454819Y-106642856D02*
X174407200Y-106738094D01*
X174407200Y-106738094D02*
X174311961Y-106785713D01*
X174311961Y-106785713D02*
X173931009Y-106785713D01*
X173931009Y-106785713D02*
X173835771Y-106738094D01*
X173835771Y-106738094D02*
X173788152Y-106642856D01*
X173788152Y-106642856D02*
X173788152Y-106452380D01*
X173788152Y-106452380D02*
X173835771Y-106357142D01*
X173835771Y-106357142D02*
X173931009Y-106309523D01*
X173931009Y-106309523D02*
X174026247Y-106309523D01*
X174026247Y-106309523D02*
X174121485Y-106785713D01*
X174454819Y-105880951D02*
X173788152Y-105880951D01*
X173978628Y-105880951D02*
X173883390Y-105833332D01*
X173883390Y-105833332D02*
X173835771Y-105785713D01*
X173835771Y-105785713D02*
X173788152Y-105690475D01*
X173788152Y-105690475D02*
X173788152Y-105595237D01*
X162874819Y-119833333D02*
X163589104Y-119833333D01*
X163589104Y-119833333D02*
X163731961Y-119880952D01*
X163731961Y-119880952D02*
X163827200Y-119976190D01*
X163827200Y-119976190D02*
X163874819Y-120119047D01*
X163874819Y-120119047D02*
X163874819Y-120214285D01*
X162874819Y-119452380D02*
X162874819Y-118785714D01*
X162874819Y-118785714D02*
X163874819Y-119214285D01*
X174034819Y-120690476D02*
X174034819Y-121166666D01*
X174034819Y-121166666D02*
X173034819Y-121166666D01*
X173749104Y-120404761D02*
X173749104Y-119928571D01*
X174034819Y-120499999D02*
X173034819Y-120166666D01*
X173034819Y-120166666D02*
X174034819Y-119833333D01*
X174034819Y-119499999D02*
X173034819Y-119499999D01*
X173034819Y-119499999D02*
X173749104Y-119166666D01*
X173749104Y-119166666D02*
X173034819Y-118833333D01*
X173034819Y-118833333D02*
X174034819Y-118833333D01*
X174034819Y-118357142D02*
X173034819Y-118357142D01*
X173034819Y-118357142D02*
X173034819Y-117976190D01*
X173034819Y-117976190D02*
X173082438Y-117880952D01*
X173082438Y-117880952D02*
X173130057Y-117833333D01*
X173130057Y-117833333D02*
X173225295Y-117785714D01*
X173225295Y-117785714D02*
X173368152Y-117785714D01*
X173368152Y-117785714D02*
X173463390Y-117833333D01*
X173463390Y-117833333D02*
X173511009Y-117880952D01*
X173511009Y-117880952D02*
X173558628Y-117976190D01*
X173558628Y-117976190D02*
X173558628Y-118357142D01*
X154124819Y-116152857D02*
X153648628Y-116486190D01*
X154124819Y-116724285D02*
X153124819Y-116724285D01*
X153124819Y-116724285D02*
X153124819Y-116343333D01*
X153124819Y-116343333D02*
X153172438Y-116248095D01*
X153172438Y-116248095D02*
X153220057Y-116200476D01*
X153220057Y-116200476D02*
X153315295Y-116152857D01*
X153315295Y-116152857D02*
X153458152Y-116152857D01*
X153458152Y-116152857D02*
X153553390Y-116200476D01*
X153553390Y-116200476D02*
X153601009Y-116248095D01*
X153601009Y-116248095D02*
X153648628Y-116343333D01*
X153648628Y-116343333D02*
X153648628Y-116724285D01*
X154124819Y-115200476D02*
X154124819Y-115771904D01*
X154124819Y-115486190D02*
X153124819Y-115486190D01*
X153124819Y-115486190D02*
X153267676Y-115581428D01*
X153267676Y-115581428D02*
X153362914Y-115676666D01*
X153362914Y-115676666D02*
X153410533Y-115771904D01*
X153220057Y-114819523D02*
X153172438Y-114771904D01*
X153172438Y-114771904D02*
X153124819Y-114676666D01*
X153124819Y-114676666D02*
X153124819Y-114438571D01*
X153124819Y-114438571D02*
X153172438Y-114343333D01*
X153172438Y-114343333D02*
X153220057Y-114295714D01*
X153220057Y-114295714D02*
X153315295Y-114248095D01*
X153315295Y-114248095D02*
X153410533Y-114248095D01*
X153410533Y-114248095D02*
X153553390Y-114295714D01*
X153553390Y-114295714D02*
X154124819Y-114867142D01*
X154124819Y-114867142D02*
X154124819Y-114248095D01*
X151784819Y-115629047D02*
X151784819Y-116200475D01*
X151784819Y-115914761D02*
X150784819Y-115914761D01*
X150784819Y-115914761D02*
X150927676Y-116009999D01*
X150927676Y-116009999D02*
X151022914Y-116105237D01*
X151022914Y-116105237D02*
X151070533Y-116200475D01*
X151784819Y-115200475D02*
X150784819Y-115200475D01*
X151403866Y-115105237D02*
X151784819Y-114819523D01*
X151118152Y-114819523D02*
X151499104Y-115200475D01*
X169454819Y-101748094D02*
X168454819Y-101748094D01*
X168454819Y-101748094D02*
X168454819Y-101509999D01*
X168454819Y-101509999D02*
X168502438Y-101367142D01*
X168502438Y-101367142D02*
X168597676Y-101271904D01*
X168597676Y-101271904D02*
X168692914Y-101224285D01*
X168692914Y-101224285D02*
X168883390Y-101176666D01*
X168883390Y-101176666D02*
X169026247Y-101176666D01*
X169026247Y-101176666D02*
X169216723Y-101224285D01*
X169216723Y-101224285D02*
X169311961Y-101271904D01*
X169311961Y-101271904D02*
X169407200Y-101367142D01*
X169407200Y-101367142D02*
X169454819Y-101509999D01*
X169454819Y-101509999D02*
X169454819Y-101748094D01*
X168454819Y-100843332D02*
X168454819Y-100224285D01*
X168454819Y-100224285D02*
X168835771Y-100557618D01*
X168835771Y-100557618D02*
X168835771Y-100414761D01*
X168835771Y-100414761D02*
X168883390Y-100319523D01*
X168883390Y-100319523D02*
X168931009Y-100271904D01*
X168931009Y-100271904D02*
X169026247Y-100224285D01*
X169026247Y-100224285D02*
X169264342Y-100224285D01*
X169264342Y-100224285D02*
X169359580Y-100271904D01*
X169359580Y-100271904D02*
X169407200Y-100319523D01*
X169407200Y-100319523D02*
X169454819Y-100414761D01*
X169454819Y-100414761D02*
X169454819Y-100700475D01*
X169454819Y-100700475D02*
X169407200Y-100795713D01*
X169407200Y-100795713D02*
X169359580Y-100843332D01*
X172454819Y-92642857D02*
X171978628Y-92976190D01*
X172454819Y-93214285D02*
X171454819Y-93214285D01*
X171454819Y-93214285D02*
X171454819Y-92833333D01*
X171454819Y-92833333D02*
X171502438Y-92738095D01*
X171502438Y-92738095D02*
X171550057Y-92690476D01*
X171550057Y-92690476D02*
X171645295Y-92642857D01*
X171645295Y-92642857D02*
X171788152Y-92642857D01*
X171788152Y-92642857D02*
X171883390Y-92690476D01*
X171883390Y-92690476D02*
X171931009Y-92738095D01*
X171931009Y-92738095D02*
X171978628Y-92833333D01*
X171978628Y-92833333D02*
X171978628Y-93214285D01*
X172454819Y-91690476D02*
X172454819Y-92261904D01*
X172454819Y-91976190D02*
X171454819Y-91976190D01*
X171454819Y-91976190D02*
X171597676Y-92071428D01*
X171597676Y-92071428D02*
X171692914Y-92166666D01*
X171692914Y-92166666D02*
X171740533Y-92261904D01*
X171454819Y-91357142D02*
X171454819Y-90690476D01*
X171454819Y-90690476D02*
X172454819Y-91119047D01*
X170954819Y-92139047D02*
X170954819Y-92710475D01*
X170954819Y-92424761D02*
X169954819Y-92424761D01*
X169954819Y-92424761D02*
X170097676Y-92519999D01*
X170097676Y-92519999D02*
X170192914Y-92615237D01*
X170192914Y-92615237D02*
X170240533Y-92710475D01*
X170954819Y-91710475D02*
X169954819Y-91710475D01*
X170573866Y-91615237D02*
X170954819Y-91329523D01*
X170288152Y-91329523D02*
X170669104Y-91710475D01*
X99333333Y-67624819D02*
X99000000Y-67148628D01*
X98761905Y-67624819D02*
X98761905Y-66624819D01*
X98761905Y-66624819D02*
X99142857Y-66624819D01*
X99142857Y-66624819D02*
X99238095Y-66672438D01*
X99238095Y-66672438D02*
X99285714Y-66720057D01*
X99285714Y-66720057D02*
X99333333Y-66815295D01*
X99333333Y-66815295D02*
X99333333Y-66958152D01*
X99333333Y-66958152D02*
X99285714Y-67053390D01*
X99285714Y-67053390D02*
X99238095Y-67101009D01*
X99238095Y-67101009D02*
X99142857Y-67148628D01*
X99142857Y-67148628D02*
X98761905Y-67148628D01*
X100285714Y-67624819D02*
X99714286Y-67624819D01*
X100000000Y-67624819D02*
X100000000Y-66624819D01*
X100000000Y-66624819D02*
X99904762Y-66767676D01*
X99904762Y-66767676D02*
X99809524Y-66862914D01*
X99809524Y-66862914D02*
X99714286Y-66910533D01*
X163374819Y-82833333D02*
X164089104Y-82833333D01*
X164089104Y-82833333D02*
X164231961Y-82880952D01*
X164231961Y-82880952D02*
X164327200Y-82976190D01*
X164327200Y-82976190D02*
X164374819Y-83119047D01*
X164374819Y-83119047D02*
X164374819Y-83214285D01*
X163374819Y-81928571D02*
X163374819Y-82119047D01*
X163374819Y-82119047D02*
X163422438Y-82214285D01*
X163422438Y-82214285D02*
X163470057Y-82261904D01*
X163470057Y-82261904D02*
X163612914Y-82357142D01*
X163612914Y-82357142D02*
X163803390Y-82404761D01*
X163803390Y-82404761D02*
X164184342Y-82404761D01*
X164184342Y-82404761D02*
X164279580Y-82357142D01*
X164279580Y-82357142D02*
X164327200Y-82309523D01*
X164327200Y-82309523D02*
X164374819Y-82214285D01*
X164374819Y-82214285D02*
X164374819Y-82023809D01*
X164374819Y-82023809D02*
X164327200Y-81928571D01*
X164327200Y-81928571D02*
X164279580Y-81880952D01*
X164279580Y-81880952D02*
X164184342Y-81833333D01*
X164184342Y-81833333D02*
X163946247Y-81833333D01*
X163946247Y-81833333D02*
X163851009Y-81880952D01*
X163851009Y-81880952D02*
X163803390Y-81928571D01*
X163803390Y-81928571D02*
X163755771Y-82023809D01*
X163755771Y-82023809D02*
X163755771Y-82214285D01*
X163755771Y-82214285D02*
X163803390Y-82309523D01*
X163803390Y-82309523D02*
X163851009Y-82357142D01*
X163851009Y-82357142D02*
X163946247Y-82404761D01*
X174534819Y-84761904D02*
X173534819Y-84761904D01*
X173534819Y-84761904D02*
X174249104Y-84428571D01*
X174249104Y-84428571D02*
X173534819Y-84095238D01*
X173534819Y-84095238D02*
X174534819Y-84095238D01*
X173534819Y-83428571D02*
X173534819Y-83238095D01*
X173534819Y-83238095D02*
X173582438Y-83142857D01*
X173582438Y-83142857D02*
X173677676Y-83047619D01*
X173677676Y-83047619D02*
X173868152Y-83000000D01*
X173868152Y-83000000D02*
X174201485Y-83000000D01*
X174201485Y-83000000D02*
X174391961Y-83047619D01*
X174391961Y-83047619D02*
X174487200Y-83142857D01*
X174487200Y-83142857D02*
X174534819Y-83238095D01*
X174534819Y-83238095D02*
X174534819Y-83428571D01*
X174534819Y-83428571D02*
X174487200Y-83523809D01*
X174487200Y-83523809D02*
X174391961Y-83619047D01*
X174391961Y-83619047D02*
X174201485Y-83666666D01*
X174201485Y-83666666D02*
X173868152Y-83666666D01*
X173868152Y-83666666D02*
X173677676Y-83619047D01*
X173677676Y-83619047D02*
X173582438Y-83523809D01*
X173582438Y-83523809D02*
X173534819Y-83428571D01*
X173534819Y-82714285D02*
X173534819Y-82142857D01*
X174534819Y-82428571D02*
X173534819Y-82428571D01*
X173534819Y-81619047D02*
X173534819Y-81428571D01*
X173534819Y-81428571D02*
X173582438Y-81333333D01*
X173582438Y-81333333D02*
X173677676Y-81238095D01*
X173677676Y-81238095D02*
X173868152Y-81190476D01*
X173868152Y-81190476D02*
X174201485Y-81190476D01*
X174201485Y-81190476D02*
X174391961Y-81238095D01*
X174391961Y-81238095D02*
X174487200Y-81333333D01*
X174487200Y-81333333D02*
X174534819Y-81428571D01*
X174534819Y-81428571D02*
X174534819Y-81619047D01*
X174534819Y-81619047D02*
X174487200Y-81714285D01*
X174487200Y-81714285D02*
X174391961Y-81809523D01*
X174391961Y-81809523D02*
X174201485Y-81857142D01*
X174201485Y-81857142D02*
X173868152Y-81857142D01*
X173868152Y-81857142D02*
X173677676Y-81809523D01*
X173677676Y-81809523D02*
X173582438Y-81714285D01*
X173582438Y-81714285D02*
X173534819Y-81619047D01*
X174534819Y-80190476D02*
X174058628Y-80523809D01*
X174534819Y-80761904D02*
X173534819Y-80761904D01*
X173534819Y-80761904D02*
X173534819Y-80380952D01*
X173534819Y-80380952D02*
X173582438Y-80285714D01*
X173582438Y-80285714D02*
X173630057Y-80238095D01*
X173630057Y-80238095D02*
X173725295Y-80190476D01*
X173725295Y-80190476D02*
X173868152Y-80190476D01*
X173868152Y-80190476D02*
X173963390Y-80238095D01*
X173963390Y-80238095D02*
X174011009Y-80285714D01*
X174011009Y-80285714D02*
X174058628Y-80380952D01*
X174058628Y-80380952D02*
X174058628Y-80761904D01*
X147166666Y-121554819D02*
X146833333Y-121078628D01*
X146595238Y-121554819D02*
X146595238Y-120554819D01*
X146595238Y-120554819D02*
X146976190Y-120554819D01*
X146976190Y-120554819D02*
X147071428Y-120602438D01*
X147071428Y-120602438D02*
X147119047Y-120650057D01*
X147119047Y-120650057D02*
X147166666Y-120745295D01*
X147166666Y-120745295D02*
X147166666Y-120888152D01*
X147166666Y-120888152D02*
X147119047Y-120983390D01*
X147119047Y-120983390D02*
X147071428Y-121031009D01*
X147071428Y-121031009D02*
X146976190Y-121078628D01*
X146976190Y-121078628D02*
X146595238Y-121078628D01*
X147595238Y-121031009D02*
X147928571Y-121031009D01*
X148071428Y-121554819D02*
X147595238Y-121554819D01*
X147595238Y-121554819D02*
X147595238Y-120554819D01*
X147595238Y-120554819D02*
X148071428Y-120554819D01*
X148833333Y-121031009D02*
X148500000Y-121031009D01*
X148500000Y-121554819D02*
X148500000Y-120554819D01*
X148500000Y-120554819D02*
X148976190Y-120554819D01*
X149500000Y-120554819D02*
X149500000Y-120792914D01*
X149261905Y-120697676D02*
X149500000Y-120792914D01*
X149500000Y-120792914D02*
X149738095Y-120697676D01*
X149357143Y-120983390D02*
X149500000Y-120792914D01*
X149500000Y-120792914D02*
X149642857Y-120983390D01*
X150261905Y-120554819D02*
X150261905Y-120792914D01*
X150023810Y-120697676D02*
X150261905Y-120792914D01*
X150261905Y-120792914D02*
X150500000Y-120697676D01*
X150119048Y-120983390D02*
X150261905Y-120792914D01*
X150261905Y-120792914D02*
X150404762Y-120983390D01*
X107954819Y-104666666D02*
X107478628Y-104999999D01*
X107954819Y-105238094D02*
X106954819Y-105238094D01*
X106954819Y-105238094D02*
X106954819Y-104857142D01*
X106954819Y-104857142D02*
X107002438Y-104761904D01*
X107002438Y-104761904D02*
X107050057Y-104714285D01*
X107050057Y-104714285D02*
X107145295Y-104666666D01*
X107145295Y-104666666D02*
X107288152Y-104666666D01*
X107288152Y-104666666D02*
X107383390Y-104714285D01*
X107383390Y-104714285D02*
X107431009Y-104761904D01*
X107431009Y-104761904D02*
X107478628Y-104857142D01*
X107478628Y-104857142D02*
X107478628Y-105238094D01*
X106954819Y-103809523D02*
X106954819Y-103999999D01*
X106954819Y-103999999D02*
X107002438Y-104095237D01*
X107002438Y-104095237D02*
X107050057Y-104142856D01*
X107050057Y-104142856D02*
X107192914Y-104238094D01*
X107192914Y-104238094D02*
X107383390Y-104285713D01*
X107383390Y-104285713D02*
X107764342Y-104285713D01*
X107764342Y-104285713D02*
X107859580Y-104238094D01*
X107859580Y-104238094D02*
X107907200Y-104190475D01*
X107907200Y-104190475D02*
X107954819Y-104095237D01*
X107954819Y-104095237D02*
X107954819Y-103904761D01*
X107954819Y-103904761D02*
X107907200Y-103809523D01*
X107907200Y-103809523D02*
X107859580Y-103761904D01*
X107859580Y-103761904D02*
X107764342Y-103714285D01*
X107764342Y-103714285D02*
X107526247Y-103714285D01*
X107526247Y-103714285D02*
X107431009Y-103761904D01*
X107431009Y-103761904D02*
X107383390Y-103809523D01*
X107383390Y-103809523D02*
X107335771Y-103904761D01*
X107335771Y-103904761D02*
X107335771Y-104095237D01*
X107335771Y-104095237D02*
X107383390Y-104190475D01*
X107383390Y-104190475D02*
X107431009Y-104238094D01*
X107431009Y-104238094D02*
X107526247Y-104285713D01*
X136833333Y-68124819D02*
X136500000Y-67648628D01*
X136261905Y-68124819D02*
X136261905Y-67124819D01*
X136261905Y-67124819D02*
X136642857Y-67124819D01*
X136642857Y-67124819D02*
X136738095Y-67172438D01*
X136738095Y-67172438D02*
X136785714Y-67220057D01*
X136785714Y-67220057D02*
X136833333Y-67315295D01*
X136833333Y-67315295D02*
X136833333Y-67458152D01*
X136833333Y-67458152D02*
X136785714Y-67553390D01*
X136785714Y-67553390D02*
X136738095Y-67601009D01*
X136738095Y-67601009D02*
X136642857Y-67648628D01*
X136642857Y-67648628D02*
X136261905Y-67648628D01*
X137738095Y-67124819D02*
X137261905Y-67124819D01*
X137261905Y-67124819D02*
X137214286Y-67601009D01*
X137214286Y-67601009D02*
X137261905Y-67553390D01*
X137261905Y-67553390D02*
X137357143Y-67505771D01*
X137357143Y-67505771D02*
X137595238Y-67505771D01*
X137595238Y-67505771D02*
X137690476Y-67553390D01*
X137690476Y-67553390D02*
X137738095Y-67601009D01*
X137738095Y-67601009D02*
X137785714Y-67696247D01*
X137785714Y-67696247D02*
X137785714Y-67934342D01*
X137785714Y-67934342D02*
X137738095Y-68029580D01*
X137738095Y-68029580D02*
X137690476Y-68077200D01*
X137690476Y-68077200D02*
X137595238Y-68124819D01*
X137595238Y-68124819D02*
X137357143Y-68124819D01*
X137357143Y-68124819D02*
X137261905Y-68077200D01*
X137261905Y-68077200D02*
X137214286Y-68029580D01*
X166284819Y-96152857D02*
X165808628Y-96486190D01*
X166284819Y-96724285D02*
X165284819Y-96724285D01*
X165284819Y-96724285D02*
X165284819Y-96343333D01*
X165284819Y-96343333D02*
X165332438Y-96248095D01*
X165332438Y-96248095D02*
X165380057Y-96200476D01*
X165380057Y-96200476D02*
X165475295Y-96152857D01*
X165475295Y-96152857D02*
X165618152Y-96152857D01*
X165618152Y-96152857D02*
X165713390Y-96200476D01*
X165713390Y-96200476D02*
X165761009Y-96248095D01*
X165761009Y-96248095D02*
X165808628Y-96343333D01*
X165808628Y-96343333D02*
X165808628Y-96724285D01*
X166284819Y-95200476D02*
X166284819Y-95771904D01*
X166284819Y-95486190D02*
X165284819Y-95486190D01*
X165284819Y-95486190D02*
X165427676Y-95581428D01*
X165427676Y-95581428D02*
X165522914Y-95676666D01*
X165522914Y-95676666D02*
X165570533Y-95771904D01*
X165284819Y-94867142D02*
X165284819Y-94248095D01*
X165284819Y-94248095D02*
X165665771Y-94581428D01*
X165665771Y-94581428D02*
X165665771Y-94438571D01*
X165665771Y-94438571D02*
X165713390Y-94343333D01*
X165713390Y-94343333D02*
X165761009Y-94295714D01*
X165761009Y-94295714D02*
X165856247Y-94248095D01*
X165856247Y-94248095D02*
X166094342Y-94248095D01*
X166094342Y-94248095D02*
X166189580Y-94295714D01*
X166189580Y-94295714D02*
X166237200Y-94343333D01*
X166237200Y-94343333D02*
X166284819Y-94438571D01*
X166284819Y-94438571D02*
X166284819Y-94724285D01*
X166284819Y-94724285D02*
X166237200Y-94819523D01*
X166237200Y-94819523D02*
X166189580Y-94867142D01*
X107333333Y-66954819D02*
X107000000Y-66478628D01*
X106761905Y-66954819D02*
X106761905Y-65954819D01*
X106761905Y-65954819D02*
X107142857Y-65954819D01*
X107142857Y-65954819D02*
X107238095Y-66002438D01*
X107238095Y-66002438D02*
X107285714Y-66050057D01*
X107285714Y-66050057D02*
X107333333Y-66145295D01*
X107333333Y-66145295D02*
X107333333Y-66288152D01*
X107333333Y-66288152D02*
X107285714Y-66383390D01*
X107285714Y-66383390D02*
X107238095Y-66431009D01*
X107238095Y-66431009D02*
X107142857Y-66478628D01*
X107142857Y-66478628D02*
X106761905Y-66478628D01*
X107714286Y-66050057D02*
X107761905Y-66002438D01*
X107761905Y-66002438D02*
X107857143Y-65954819D01*
X107857143Y-65954819D02*
X108095238Y-65954819D01*
X108095238Y-65954819D02*
X108190476Y-66002438D01*
X108190476Y-66002438D02*
X108238095Y-66050057D01*
X108238095Y-66050057D02*
X108285714Y-66145295D01*
X108285714Y-66145295D02*
X108285714Y-66240533D01*
X108285714Y-66240533D02*
X108238095Y-66383390D01*
X108238095Y-66383390D02*
X107666667Y-66954819D01*
X107666667Y-66954819D02*
X108285714Y-66954819D01*
X102323333Y-67624819D02*
X101990000Y-67148628D01*
X101751905Y-67624819D02*
X101751905Y-66624819D01*
X101751905Y-66624819D02*
X102132857Y-66624819D01*
X102132857Y-66624819D02*
X102228095Y-66672438D01*
X102228095Y-66672438D02*
X102275714Y-66720057D01*
X102275714Y-66720057D02*
X102323333Y-66815295D01*
X102323333Y-66815295D02*
X102323333Y-66958152D01*
X102323333Y-66958152D02*
X102275714Y-67053390D01*
X102275714Y-67053390D02*
X102228095Y-67101009D01*
X102228095Y-67101009D02*
X102132857Y-67148628D01*
X102132857Y-67148628D02*
X101751905Y-67148628D01*
X103180476Y-66958152D02*
X103180476Y-67624819D01*
X102942381Y-66577200D02*
X102704286Y-67291485D01*
X102704286Y-67291485D02*
X103323333Y-67291485D01*
X167454819Y-59642857D02*
X166978628Y-59976190D01*
X167454819Y-60214285D02*
X166454819Y-60214285D01*
X166454819Y-60214285D02*
X166454819Y-59833333D01*
X166454819Y-59833333D02*
X166502438Y-59738095D01*
X166502438Y-59738095D02*
X166550057Y-59690476D01*
X166550057Y-59690476D02*
X166645295Y-59642857D01*
X166645295Y-59642857D02*
X166788152Y-59642857D01*
X166788152Y-59642857D02*
X166883390Y-59690476D01*
X166883390Y-59690476D02*
X166931009Y-59738095D01*
X166931009Y-59738095D02*
X166978628Y-59833333D01*
X166978628Y-59833333D02*
X166978628Y-60214285D01*
X167454819Y-58690476D02*
X167454819Y-59261904D01*
X167454819Y-58976190D02*
X166454819Y-58976190D01*
X166454819Y-58976190D02*
X166597676Y-59071428D01*
X166597676Y-59071428D02*
X166692914Y-59166666D01*
X166692914Y-59166666D02*
X166740533Y-59261904D01*
X166883390Y-58119047D02*
X166835771Y-58214285D01*
X166835771Y-58214285D02*
X166788152Y-58261904D01*
X166788152Y-58261904D02*
X166692914Y-58309523D01*
X166692914Y-58309523D02*
X166645295Y-58309523D01*
X166645295Y-58309523D02*
X166550057Y-58261904D01*
X166550057Y-58261904D02*
X166502438Y-58214285D01*
X166502438Y-58214285D02*
X166454819Y-58119047D01*
X166454819Y-58119047D02*
X166454819Y-57928571D01*
X166454819Y-57928571D02*
X166502438Y-57833333D01*
X166502438Y-57833333D02*
X166550057Y-57785714D01*
X166550057Y-57785714D02*
X166645295Y-57738095D01*
X166645295Y-57738095D02*
X166692914Y-57738095D01*
X166692914Y-57738095D02*
X166788152Y-57785714D01*
X166788152Y-57785714D02*
X166835771Y-57833333D01*
X166835771Y-57833333D02*
X166883390Y-57928571D01*
X166883390Y-57928571D02*
X166883390Y-58119047D01*
X166883390Y-58119047D02*
X166931009Y-58214285D01*
X166931009Y-58214285D02*
X166978628Y-58261904D01*
X166978628Y-58261904D02*
X167073866Y-58309523D01*
X167073866Y-58309523D02*
X167264342Y-58309523D01*
X167264342Y-58309523D02*
X167359580Y-58261904D01*
X167359580Y-58261904D02*
X167407200Y-58214285D01*
X167407200Y-58214285D02*
X167454819Y-58119047D01*
X167454819Y-58119047D02*
X167454819Y-57928571D01*
X167454819Y-57928571D02*
X167407200Y-57833333D01*
X167407200Y-57833333D02*
X167359580Y-57785714D01*
X167359580Y-57785714D02*
X167264342Y-57738095D01*
X167264342Y-57738095D02*
X167073866Y-57738095D01*
X167073866Y-57738095D02*
X166978628Y-57785714D01*
X166978628Y-57785714D02*
X166931009Y-57833333D01*
X166931009Y-57833333D02*
X166883390Y-57928571D01*
X174554819Y-71071429D02*
X174078628Y-71404762D01*
X174554819Y-71642857D02*
X173554819Y-71642857D01*
X173554819Y-71642857D02*
X173554819Y-71261905D01*
X173554819Y-71261905D02*
X173602438Y-71166667D01*
X173602438Y-71166667D02*
X173650057Y-71119048D01*
X173650057Y-71119048D02*
X173745295Y-71071429D01*
X173745295Y-71071429D02*
X173888152Y-71071429D01*
X173888152Y-71071429D02*
X173983390Y-71119048D01*
X173983390Y-71119048D02*
X174031009Y-71166667D01*
X174031009Y-71166667D02*
X174078628Y-71261905D01*
X174078628Y-71261905D02*
X174078628Y-71642857D01*
X174650057Y-70880953D02*
X174650057Y-70119048D01*
X174507200Y-69928571D02*
X174554819Y-69785714D01*
X174554819Y-69785714D02*
X174554819Y-69547619D01*
X174554819Y-69547619D02*
X174507200Y-69452381D01*
X174507200Y-69452381D02*
X174459580Y-69404762D01*
X174459580Y-69404762D02*
X174364342Y-69357143D01*
X174364342Y-69357143D02*
X174269104Y-69357143D01*
X174269104Y-69357143D02*
X174173866Y-69404762D01*
X174173866Y-69404762D02*
X174126247Y-69452381D01*
X174126247Y-69452381D02*
X174078628Y-69547619D01*
X174078628Y-69547619D02*
X174031009Y-69738095D01*
X174031009Y-69738095D02*
X173983390Y-69833333D01*
X173983390Y-69833333D02*
X173935771Y-69880952D01*
X173935771Y-69880952D02*
X173840533Y-69928571D01*
X173840533Y-69928571D02*
X173745295Y-69928571D01*
X173745295Y-69928571D02*
X173650057Y-69880952D01*
X173650057Y-69880952D02*
X173602438Y-69833333D01*
X173602438Y-69833333D02*
X173554819Y-69738095D01*
X173554819Y-69738095D02*
X173554819Y-69500000D01*
X173554819Y-69500000D02*
X173602438Y-69357143D01*
X174554819Y-68928571D02*
X173554819Y-68928571D01*
X174554819Y-68500000D02*
X174031009Y-68500000D01*
X174031009Y-68500000D02*
X173935771Y-68547619D01*
X173935771Y-68547619D02*
X173888152Y-68642857D01*
X173888152Y-68642857D02*
X173888152Y-68785714D01*
X173888152Y-68785714D02*
X173935771Y-68880952D01*
X173935771Y-68880952D02*
X173983390Y-68928571D01*
X173888152Y-67595238D02*
X174554819Y-67595238D01*
X173888152Y-68023809D02*
X174411961Y-68023809D01*
X174411961Y-68023809D02*
X174507200Y-67976190D01*
X174507200Y-67976190D02*
X174554819Y-67880952D01*
X174554819Y-67880952D02*
X174554819Y-67738095D01*
X174554819Y-67738095D02*
X174507200Y-67642857D01*
X174507200Y-67642857D02*
X174459580Y-67595238D01*
X173888152Y-67119047D02*
X174554819Y-67119047D01*
X173983390Y-67119047D02*
X173935771Y-67071428D01*
X173935771Y-67071428D02*
X173888152Y-66976190D01*
X173888152Y-66976190D02*
X173888152Y-66833333D01*
X173888152Y-66833333D02*
X173935771Y-66738095D01*
X173935771Y-66738095D02*
X174031009Y-66690476D01*
X174031009Y-66690476D02*
X174554819Y-66690476D01*
X173888152Y-66357142D02*
X173888152Y-65976190D01*
X173554819Y-66214285D02*
X174411961Y-66214285D01*
X174411961Y-66214285D02*
X174507200Y-66166666D01*
X174507200Y-66166666D02*
X174554819Y-66071428D01*
X174554819Y-66071428D02*
X174554819Y-65976190D01*
X174650057Y-65880952D02*
X174650057Y-65119047D01*
X173554819Y-64880951D02*
X174364342Y-64880951D01*
X174364342Y-64880951D02*
X174459580Y-64833332D01*
X174459580Y-64833332D02*
X174507200Y-64785713D01*
X174507200Y-64785713D02*
X174554819Y-64690475D01*
X174554819Y-64690475D02*
X174554819Y-64499999D01*
X174554819Y-64499999D02*
X174507200Y-64404761D01*
X174507200Y-64404761D02*
X174459580Y-64357142D01*
X174459580Y-64357142D02*
X174364342Y-64309523D01*
X174364342Y-64309523D02*
X173554819Y-64309523D01*
X174507200Y-63880951D02*
X174554819Y-63738094D01*
X174554819Y-63738094D02*
X174554819Y-63499999D01*
X174554819Y-63499999D02*
X174507200Y-63404761D01*
X174507200Y-63404761D02*
X174459580Y-63357142D01*
X174459580Y-63357142D02*
X174364342Y-63309523D01*
X174364342Y-63309523D02*
X174269104Y-63309523D01*
X174269104Y-63309523D02*
X174173866Y-63357142D01*
X174173866Y-63357142D02*
X174126247Y-63404761D01*
X174126247Y-63404761D02*
X174078628Y-63499999D01*
X174078628Y-63499999D02*
X174031009Y-63690475D01*
X174031009Y-63690475D02*
X173983390Y-63785713D01*
X173983390Y-63785713D02*
X173935771Y-63833332D01*
X173935771Y-63833332D02*
X173840533Y-63880951D01*
X173840533Y-63880951D02*
X173745295Y-63880951D01*
X173745295Y-63880951D02*
X173650057Y-63833332D01*
X173650057Y-63833332D02*
X173602438Y-63785713D01*
X173602438Y-63785713D02*
X173554819Y-63690475D01*
X173554819Y-63690475D02*
X173554819Y-63452380D01*
X173554819Y-63452380D02*
X173602438Y-63309523D01*
X116383095Y-69594819D02*
X116383095Y-70404342D01*
X116383095Y-70404342D02*
X116430714Y-70499580D01*
X116430714Y-70499580D02*
X116478333Y-70547200D01*
X116478333Y-70547200D02*
X116573571Y-70594819D01*
X116573571Y-70594819D02*
X116764047Y-70594819D01*
X116764047Y-70594819D02*
X116859285Y-70547200D01*
X116859285Y-70547200D02*
X116906904Y-70499580D01*
X116906904Y-70499580D02*
X116954523Y-70404342D01*
X116954523Y-70404342D02*
X116954523Y-69594819D01*
X117383095Y-69690057D02*
X117430714Y-69642438D01*
X117430714Y-69642438D02*
X117525952Y-69594819D01*
X117525952Y-69594819D02*
X117764047Y-69594819D01*
X117764047Y-69594819D02*
X117859285Y-69642438D01*
X117859285Y-69642438D02*
X117906904Y-69690057D01*
X117906904Y-69690057D02*
X117954523Y-69785295D01*
X117954523Y-69785295D02*
X117954523Y-69880533D01*
X117954523Y-69880533D02*
X117906904Y-70023390D01*
X117906904Y-70023390D02*
X117335476Y-70594819D01*
X117335476Y-70594819D02*
X117954523Y-70594819D01*
X159050057Y-98095238D02*
X159002438Y-98190476D01*
X159002438Y-98190476D02*
X158907200Y-98285714D01*
X158907200Y-98285714D02*
X158764342Y-98428571D01*
X158764342Y-98428571D02*
X158716723Y-98523809D01*
X158716723Y-98523809D02*
X158716723Y-98619047D01*
X158954819Y-98571428D02*
X158907200Y-98666666D01*
X158907200Y-98666666D02*
X158811961Y-98761904D01*
X158811961Y-98761904D02*
X158621485Y-98809523D01*
X158621485Y-98809523D02*
X158288152Y-98809523D01*
X158288152Y-98809523D02*
X158097676Y-98761904D01*
X158097676Y-98761904D02*
X158002438Y-98666666D01*
X158002438Y-98666666D02*
X157954819Y-98571428D01*
X157954819Y-98571428D02*
X157954819Y-98380952D01*
X157954819Y-98380952D02*
X158002438Y-98285714D01*
X158002438Y-98285714D02*
X158097676Y-98190476D01*
X158097676Y-98190476D02*
X158288152Y-98142857D01*
X158288152Y-98142857D02*
X158621485Y-98142857D01*
X158621485Y-98142857D02*
X158811961Y-98190476D01*
X158811961Y-98190476D02*
X158907200Y-98285714D01*
X158907200Y-98285714D02*
X158954819Y-98380952D01*
X158954819Y-98380952D02*
X158954819Y-98571428D01*
X158288152Y-97285714D02*
X158954819Y-97285714D01*
X157907200Y-97523809D02*
X158621485Y-97761904D01*
X158621485Y-97761904D02*
X158621485Y-97142857D01*
X111323333Y-114494819D02*
X110990000Y-114018628D01*
X110751905Y-114494819D02*
X110751905Y-113494819D01*
X110751905Y-113494819D02*
X111132857Y-113494819D01*
X111132857Y-113494819D02*
X111228095Y-113542438D01*
X111228095Y-113542438D02*
X111275714Y-113590057D01*
X111275714Y-113590057D02*
X111323333Y-113685295D01*
X111323333Y-113685295D02*
X111323333Y-113828152D01*
X111323333Y-113828152D02*
X111275714Y-113923390D01*
X111275714Y-113923390D02*
X111228095Y-113971009D01*
X111228095Y-113971009D02*
X111132857Y-114018628D01*
X111132857Y-114018628D02*
X110751905Y-114018628D01*
X111894762Y-113923390D02*
X111799524Y-113875771D01*
X111799524Y-113875771D02*
X111751905Y-113828152D01*
X111751905Y-113828152D02*
X111704286Y-113732914D01*
X111704286Y-113732914D02*
X111704286Y-113685295D01*
X111704286Y-113685295D02*
X111751905Y-113590057D01*
X111751905Y-113590057D02*
X111799524Y-113542438D01*
X111799524Y-113542438D02*
X111894762Y-113494819D01*
X111894762Y-113494819D02*
X112085238Y-113494819D01*
X112085238Y-113494819D02*
X112180476Y-113542438D01*
X112180476Y-113542438D02*
X112228095Y-113590057D01*
X112228095Y-113590057D02*
X112275714Y-113685295D01*
X112275714Y-113685295D02*
X112275714Y-113732914D01*
X112275714Y-113732914D02*
X112228095Y-113828152D01*
X112228095Y-113828152D02*
X112180476Y-113875771D01*
X112180476Y-113875771D02*
X112085238Y-113923390D01*
X112085238Y-113923390D02*
X111894762Y-113923390D01*
X111894762Y-113923390D02*
X111799524Y-113971009D01*
X111799524Y-113971009D02*
X111751905Y-114018628D01*
X111751905Y-114018628D02*
X111704286Y-114113866D01*
X111704286Y-114113866D02*
X111704286Y-114304342D01*
X111704286Y-114304342D02*
X111751905Y-114399580D01*
X111751905Y-114399580D02*
X111799524Y-114447200D01*
X111799524Y-114447200D02*
X111894762Y-114494819D01*
X111894762Y-114494819D02*
X112085238Y-114494819D01*
X112085238Y-114494819D02*
X112180476Y-114447200D01*
X112180476Y-114447200D02*
X112228095Y-114399580D01*
X112228095Y-114399580D02*
X112275714Y-114304342D01*
X112275714Y-114304342D02*
X112275714Y-114113866D01*
X112275714Y-114113866D02*
X112228095Y-114018628D01*
X112228095Y-114018628D02*
X112180476Y-113971009D01*
X112180476Y-113971009D02*
X112085238Y-113923390D01*
X144454819Y-66238094D02*
X143454819Y-66238094D01*
X144454819Y-65666666D02*
X143883390Y-66095237D01*
X143454819Y-65666666D02*
X144026247Y-66238094D01*
X143550057Y-65285713D02*
X143502438Y-65238094D01*
X143502438Y-65238094D02*
X143454819Y-65142856D01*
X143454819Y-65142856D02*
X143454819Y-64904761D01*
X143454819Y-64904761D02*
X143502438Y-64809523D01*
X143502438Y-64809523D02*
X143550057Y-64761904D01*
X143550057Y-64761904D02*
X143645295Y-64714285D01*
X143645295Y-64714285D02*
X143740533Y-64714285D01*
X143740533Y-64714285D02*
X143883390Y-64761904D01*
X143883390Y-64761904D02*
X144454819Y-65333332D01*
X144454819Y-65333332D02*
X144454819Y-64714285D01*
X166954819Y-101748094D02*
X165954819Y-101748094D01*
X165954819Y-101748094D02*
X165954819Y-101509999D01*
X165954819Y-101509999D02*
X166002438Y-101367142D01*
X166002438Y-101367142D02*
X166097676Y-101271904D01*
X166097676Y-101271904D02*
X166192914Y-101224285D01*
X166192914Y-101224285D02*
X166383390Y-101176666D01*
X166383390Y-101176666D02*
X166526247Y-101176666D01*
X166526247Y-101176666D02*
X166716723Y-101224285D01*
X166716723Y-101224285D02*
X166811961Y-101271904D01*
X166811961Y-101271904D02*
X166907200Y-101367142D01*
X166907200Y-101367142D02*
X166954819Y-101509999D01*
X166954819Y-101509999D02*
X166954819Y-101748094D01*
X166050057Y-100795713D02*
X166002438Y-100748094D01*
X166002438Y-100748094D02*
X165954819Y-100652856D01*
X165954819Y-100652856D02*
X165954819Y-100414761D01*
X165954819Y-100414761D02*
X166002438Y-100319523D01*
X166002438Y-100319523D02*
X166050057Y-100271904D01*
X166050057Y-100271904D02*
X166145295Y-100224285D01*
X166145295Y-100224285D02*
X166240533Y-100224285D01*
X166240533Y-100224285D02*
X166383390Y-100271904D01*
X166383390Y-100271904D02*
X166954819Y-100843332D01*
X166954819Y-100843332D02*
X166954819Y-100224285D01*
X145761905Y-83454819D02*
X145761905Y-82454819D01*
X146333333Y-83454819D02*
X145904762Y-82883390D01*
X146333333Y-82454819D02*
X145761905Y-83026247D01*
X147285714Y-83454819D02*
X146714286Y-83454819D01*
X147000000Y-83454819D02*
X147000000Y-82454819D01*
X147000000Y-82454819D02*
X146904762Y-82597676D01*
X146904762Y-82597676D02*
X146809524Y-82692914D01*
X146809524Y-82692914D02*
X146714286Y-82740533D01*
X147550057Y-98095238D02*
X147502438Y-98190476D01*
X147502438Y-98190476D02*
X147407200Y-98285714D01*
X147407200Y-98285714D02*
X147264342Y-98428571D01*
X147264342Y-98428571D02*
X147216723Y-98523809D01*
X147216723Y-98523809D02*
X147216723Y-98619047D01*
X147454819Y-98571428D02*
X147407200Y-98666666D01*
X147407200Y-98666666D02*
X147311961Y-98761904D01*
X147311961Y-98761904D02*
X147121485Y-98809523D01*
X147121485Y-98809523D02*
X146788152Y-98809523D01*
X146788152Y-98809523D02*
X146597676Y-98761904D01*
X146597676Y-98761904D02*
X146502438Y-98666666D01*
X146502438Y-98666666D02*
X146454819Y-98571428D01*
X146454819Y-98571428D02*
X146454819Y-98380952D01*
X146454819Y-98380952D02*
X146502438Y-98285714D01*
X146502438Y-98285714D02*
X146597676Y-98190476D01*
X146597676Y-98190476D02*
X146788152Y-98142857D01*
X146788152Y-98142857D02*
X147121485Y-98142857D01*
X147121485Y-98142857D02*
X147311961Y-98190476D01*
X147311961Y-98190476D02*
X147407200Y-98285714D01*
X147407200Y-98285714D02*
X147454819Y-98380952D01*
X147454819Y-98380952D02*
X147454819Y-98571428D01*
X146454819Y-97809523D02*
X146454819Y-97190476D01*
X146454819Y-97190476D02*
X146835771Y-97523809D01*
X146835771Y-97523809D02*
X146835771Y-97380952D01*
X146835771Y-97380952D02*
X146883390Y-97285714D01*
X146883390Y-97285714D02*
X146931009Y-97238095D01*
X146931009Y-97238095D02*
X147026247Y-97190476D01*
X147026247Y-97190476D02*
X147264342Y-97190476D01*
X147264342Y-97190476D02*
X147359580Y-97238095D01*
X147359580Y-97238095D02*
X147407200Y-97285714D01*
X147407200Y-97285714D02*
X147454819Y-97380952D01*
X147454819Y-97380952D02*
X147454819Y-97666666D01*
X147454819Y-97666666D02*
X147407200Y-97761904D01*
X147407200Y-97761904D02*
X147359580Y-97809523D01*
X157050057Y-108095238D02*
X157002438Y-108190476D01*
X157002438Y-108190476D02*
X156907200Y-108285714D01*
X156907200Y-108285714D02*
X156764342Y-108428571D01*
X156764342Y-108428571D02*
X156716723Y-108523809D01*
X156716723Y-108523809D02*
X156716723Y-108619047D01*
X156954819Y-108571428D02*
X156907200Y-108666666D01*
X156907200Y-108666666D02*
X156811961Y-108761904D01*
X156811961Y-108761904D02*
X156621485Y-108809523D01*
X156621485Y-108809523D02*
X156288152Y-108809523D01*
X156288152Y-108809523D02*
X156097676Y-108761904D01*
X156097676Y-108761904D02*
X156002438Y-108666666D01*
X156002438Y-108666666D02*
X155954819Y-108571428D01*
X155954819Y-108571428D02*
X155954819Y-108380952D01*
X155954819Y-108380952D02*
X156002438Y-108285714D01*
X156002438Y-108285714D02*
X156097676Y-108190476D01*
X156097676Y-108190476D02*
X156288152Y-108142857D01*
X156288152Y-108142857D02*
X156621485Y-108142857D01*
X156621485Y-108142857D02*
X156811961Y-108190476D01*
X156811961Y-108190476D02*
X156907200Y-108285714D01*
X156907200Y-108285714D02*
X156954819Y-108380952D01*
X156954819Y-108380952D02*
X156954819Y-108571428D01*
X156954819Y-107190476D02*
X156954819Y-107761904D01*
X156954819Y-107476190D02*
X155954819Y-107476190D01*
X155954819Y-107476190D02*
X156097676Y-107571428D01*
X156097676Y-107571428D02*
X156192914Y-107666666D01*
X156192914Y-107666666D02*
X156240533Y-107761904D01*
X152284819Y-109152857D02*
X151808628Y-109486190D01*
X152284819Y-109724285D02*
X151284819Y-109724285D01*
X151284819Y-109724285D02*
X151284819Y-109343333D01*
X151284819Y-109343333D02*
X151332438Y-109248095D01*
X151332438Y-109248095D02*
X151380057Y-109200476D01*
X151380057Y-109200476D02*
X151475295Y-109152857D01*
X151475295Y-109152857D02*
X151618152Y-109152857D01*
X151618152Y-109152857D02*
X151713390Y-109200476D01*
X151713390Y-109200476D02*
X151761009Y-109248095D01*
X151761009Y-109248095D02*
X151808628Y-109343333D01*
X151808628Y-109343333D02*
X151808628Y-109724285D01*
X152284819Y-108200476D02*
X152284819Y-108771904D01*
X152284819Y-108486190D02*
X151284819Y-108486190D01*
X151284819Y-108486190D02*
X151427676Y-108581428D01*
X151427676Y-108581428D02*
X151522914Y-108676666D01*
X151522914Y-108676666D02*
X151570533Y-108771904D01*
X152284819Y-107248095D02*
X152284819Y-107819523D01*
X152284819Y-107533809D02*
X151284819Y-107533809D01*
X151284819Y-107533809D02*
X151427676Y-107629047D01*
X151427676Y-107629047D02*
X151522914Y-107724285D01*
X151522914Y-107724285D02*
X151570533Y-107819523D01*
X153454819Y-110619047D02*
X153454819Y-111190475D01*
X153454819Y-110904761D02*
X152454819Y-110904761D01*
X152454819Y-110904761D02*
X152597676Y-110999999D01*
X152597676Y-110999999D02*
X152692914Y-111095237D01*
X152692914Y-111095237D02*
X152740533Y-111190475D01*
X153454819Y-110190475D02*
X152454819Y-110190475D01*
X153073866Y-110095237D02*
X153454819Y-109809523D01*
X152788152Y-109809523D02*
X153169104Y-110190475D01*
X100666667Y-120597200D02*
X100809524Y-120644819D01*
X100809524Y-120644819D02*
X101047619Y-120644819D01*
X101047619Y-120644819D02*
X101142857Y-120597200D01*
X101142857Y-120597200D02*
X101190476Y-120549580D01*
X101190476Y-120549580D02*
X101238095Y-120454342D01*
X101238095Y-120454342D02*
X101238095Y-120359104D01*
X101238095Y-120359104D02*
X101190476Y-120263866D01*
X101190476Y-120263866D02*
X101142857Y-120216247D01*
X101142857Y-120216247D02*
X101047619Y-120168628D01*
X101047619Y-120168628D02*
X100857143Y-120121009D01*
X100857143Y-120121009D02*
X100761905Y-120073390D01*
X100761905Y-120073390D02*
X100714286Y-120025771D01*
X100714286Y-120025771D02*
X100666667Y-119930533D01*
X100666667Y-119930533D02*
X100666667Y-119835295D01*
X100666667Y-119835295D02*
X100714286Y-119740057D01*
X100714286Y-119740057D02*
X100761905Y-119692438D01*
X100761905Y-119692438D02*
X100857143Y-119644819D01*
X100857143Y-119644819D02*
X101095238Y-119644819D01*
X101095238Y-119644819D02*
X101238095Y-119692438D01*
X101571429Y-119644819D02*
X101809524Y-120644819D01*
X101809524Y-120644819D02*
X102000000Y-119930533D01*
X102000000Y-119930533D02*
X102190476Y-120644819D01*
X102190476Y-120644819D02*
X102428572Y-119644819D01*
X103333333Y-120644819D02*
X102761905Y-120644819D01*
X103047619Y-120644819D02*
X103047619Y-119644819D01*
X103047619Y-119644819D02*
X102952381Y-119787676D01*
X102952381Y-119787676D02*
X102857143Y-119882914D01*
X102857143Y-119882914D02*
X102761905Y-119930533D01*
D14*
%TO.C,C4*%
X112140000Y-70607836D02*
X112140000Y-70392164D01*
X112860000Y-70607836D02*
X112860000Y-70392164D01*
%TO.C,C3*%
X112892164Y-67640000D02*
X113107836Y-67640000D01*
X112892164Y-68360000D02*
X113107836Y-68360000D01*
%TO.C,Q2*%
X154590000Y-116590000D02*
X155850000Y-116590000D01*
X154590000Y-120350000D02*
X154590000Y-116590000D01*
X161410000Y-116590000D02*
X160150000Y-116590000D01*
X161410000Y-120350000D02*
X161410000Y-116590000D01*
X154690000Y-121630000D02*
X154360000Y-121870000D01*
X154360000Y-121390000D01*
X154690000Y-121630000D01*
G36*
X154690000Y-121630000D02*
G01*
X154360000Y-121870000D01*
X154360000Y-121390000D01*
X154690000Y-121630000D01*
G37*
%TO.C,R9*%
X109653641Y-111120000D02*
X109346359Y-111120000D01*
X109653641Y-111880000D02*
X109346359Y-111880000D01*
%TO.C,J4*%
X127960000Y-56690000D02*
X127960000Y-64310000D01*
X143200000Y-56690000D02*
X127960000Y-56690000D01*
X143200000Y-56690000D02*
X143200000Y-64310000D01*
X143200000Y-57960000D02*
X127960000Y-57960000D01*
X143200000Y-64310000D02*
X127960000Y-64310000D01*
%TO.C,J5*%
X98190000Y-93880000D02*
X98190000Y-104040000D01*
X98190000Y-104040000D02*
X105810000Y-104040000D01*
X99460000Y-104040000D02*
X99460000Y-93880000D01*
X105810000Y-93880000D02*
X98190000Y-93880000D01*
X105810000Y-104040000D02*
X105810000Y-93880000D01*
%TO.C,R15*%
X170620000Y-99163641D02*
X170620000Y-98856359D01*
X171380000Y-99163641D02*
X171380000Y-98856359D01*
%TO.C,J3*%
X98380000Y-56690000D02*
X98380000Y-64310000D01*
X113620000Y-56690000D02*
X98380000Y-56690000D01*
X113620000Y-56690000D02*
X113620000Y-64310000D01*
X113620000Y-57960000D02*
X98380000Y-57960000D01*
X113620000Y-64310000D02*
X98380000Y-64310000D01*
%TO.C,R10*%
X109653641Y-108620000D02*
X109346359Y-108620000D01*
X109653641Y-109380000D02*
X109346359Y-109380000D01*
%TO.C,J1*%
X114920000Y-56690000D02*
X114920000Y-64310000D01*
X114920000Y-57960000D02*
X125080000Y-57960000D01*
X114920000Y-64310000D02*
X125080000Y-64310000D01*
X125080000Y-56690000D02*
X114920000Y-56690000D01*
X125080000Y-64310000D02*
X125080000Y-56690000D01*
%TO.C,R3*%
X134163641Y-66120000D02*
X133856359Y-66120000D01*
X134163641Y-66880000D02*
X133856359Y-66880000D01*
%TO.C,R7*%
X109653641Y-116120000D02*
X109346359Y-116120000D01*
X109653641Y-116880000D02*
X109346359Y-116880000D01*
%TO.C,U1*%
X104590000Y-69590000D02*
X104590000Y-70850000D01*
X104590000Y-76410000D02*
X104590000Y-75150000D01*
X108350000Y-69590000D02*
X104590000Y-69590000D01*
X108350000Y-76410000D02*
X104590000Y-76410000D01*
X109870000Y-76640000D02*
X109390000Y-76640000D01*
X109630000Y-76310000D01*
X109870000Y-76640000D01*
G36*
X109870000Y-76640000D02*
G01*
X109390000Y-76640000D01*
X109630000Y-76310000D01*
X109870000Y-76640000D01*
G37*
%TO.C,R14*%
X166620000Y-92143641D02*
X166620000Y-91836359D01*
X167380000Y-92143641D02*
X167380000Y-91836359D01*
%TO.C,R16*%
X168620000Y-95663641D02*
X168620000Y-95356359D01*
X169380000Y-95663641D02*
X169380000Y-95356359D01*
%TO.C,J2*%
X98190000Y-77840000D02*
X98190000Y-93080000D01*
X98190000Y-77840000D02*
X105810000Y-77840000D01*
X98190000Y-93080000D02*
X105810000Y-93080000D01*
X99460000Y-77840000D02*
X99460000Y-93080000D01*
X105810000Y-77840000D02*
X105810000Y-93080000D01*
%TO.C,BZ1*%
X163900000Y-103400000D02*
X166100000Y-103400000D01*
X163900000Y-112600000D02*
X163900000Y-103400000D01*
X163900000Y-112600000D02*
X166100000Y-112600000D01*
X166100000Y-112600000D02*
X166100000Y-113000000D01*
X170900000Y-103400000D02*
X173100000Y-103400000D01*
X170900000Y-112600000D02*
X173100000Y-112600000D01*
X173100000Y-103400000D02*
X173100000Y-112600000D01*
%TO.C,J7*%
X164690000Y-114420000D02*
X164690000Y-124580000D01*
X164690000Y-124580000D02*
X172310000Y-124580000D01*
X171040000Y-114420000D02*
X171040000Y-124580000D01*
X172310000Y-114420000D02*
X164690000Y-114420000D01*
X172310000Y-124580000D02*
X172310000Y-114420000D01*
%TO.C,R12*%
X152120000Y-115356359D02*
X152120000Y-115663641D01*
X152880000Y-115356359D02*
X152880000Y-115663641D01*
D15*
%TO.C,D3*%
X169050000Y-100100000D02*
G75*
G02*
X168950000Y-100100000I-50000J0D01*
G01*
X168950000Y-100100000D02*
G75*
G02*
X169050000Y-100100000I50000J0D01*
G01*
D14*
%TO.C,R17*%
X168620000Y-92173641D02*
X168620000Y-91866359D01*
X169380000Y-92173641D02*
X169380000Y-91866359D01*
%TO.C,R1*%
X99653641Y-65620000D02*
X99346359Y-65620000D01*
X99653641Y-66380000D02*
X99346359Y-66380000D01*
%TO.C,J6*%
X165190000Y-77420000D02*
X165190000Y-87580000D01*
X165190000Y-87580000D02*
X172810000Y-87580000D01*
X171540000Y-77420000D02*
X171540000Y-87580000D01*
X172810000Y-77420000D02*
X165190000Y-77420000D01*
X172810000Y-87580000D02*
X172810000Y-77420000D01*
%TO.C,R6*%
X107120000Y-102623641D02*
X107120000Y-102316359D01*
X107880000Y-102623641D02*
X107880000Y-102316359D01*
%TO.C,R5*%
X137153641Y-66120000D02*
X136846359Y-66120000D01*
X137153641Y-66880000D02*
X136846359Y-66880000D01*
%TO.C,R13*%
X166620000Y-95663641D02*
X166620000Y-95356359D01*
X167380000Y-95663641D02*
X167380000Y-95356359D01*
%TO.C,R2*%
X105346359Y-66120000D02*
X105653641Y-66120000D01*
X105346359Y-66880000D02*
X105653641Y-66880000D01*
%TO.C,R4*%
X102643641Y-65620000D02*
X102336359Y-65620000D01*
X102643641Y-66380000D02*
X102336359Y-66380000D01*
%TO.C,R18*%
X165900000Y-73280000D02*
X165900000Y-61720000D01*
X173100000Y-73280000D02*
X173100000Y-61720000D01*
D16*
%TO.C,U2*%
X114220000Y-72025000D02*
X125289000Y-72025000D01*
X114220000Y-72025000D02*
X142730000Y-72025000D01*
X114220000Y-122975000D02*
X114220000Y-72025000D01*
X114220000Y-122975000D02*
X114220000Y-72025000D01*
X114220000Y-122975000D02*
X119590000Y-122975000D01*
X119590000Y-122975000D02*
X137280000Y-122975000D01*
X125289000Y-72025000D02*
X132000000Y-72025000D01*
X132000000Y-72025000D02*
X142730000Y-72025000D01*
X137280000Y-122975000D02*
X142730000Y-122975000D01*
X142730000Y-72025000D02*
X142730000Y-122975000D01*
X142730000Y-72025000D02*
X142730000Y-122975000D01*
X142730000Y-122975000D02*
X114220000Y-122975000D01*
D17*
X113750000Y-81985000D02*
G75*
G02*
X113550000Y-81985000I-100000J0D01*
G01*
X113550000Y-81985000D02*
G75*
G02*
X113750000Y-81985000I100000J0D01*
G01*
D14*
%TO.C,Q4*%
X156590000Y-96090000D02*
X157850000Y-96090000D01*
X156590000Y-99850000D02*
X156590000Y-96090000D01*
X163410000Y-96090000D02*
X162150000Y-96090000D01*
X163410000Y-99850000D02*
X163410000Y-96090000D01*
X156690000Y-101130000D02*
X156360000Y-101370000D01*
X156360000Y-100890000D01*
X156690000Y-101130000D01*
G36*
X156690000Y-101130000D02*
G01*
X156360000Y-101370000D01*
X156360000Y-100890000D01*
X156690000Y-101130000D01*
G37*
%TO.C,R8*%
X109653641Y-113620000D02*
X109346359Y-113620000D01*
X109653641Y-114380000D02*
X109346359Y-114380000D01*
%TO.C,K2*%
X144990000Y-56290000D02*
X144990000Y-62800000D01*
X144990000Y-56290000D02*
X164010000Y-56290000D01*
X144990000Y-65200000D02*
X144990000Y-71710000D01*
X147150000Y-71950000D02*
X149450000Y-71950000D01*
X148900000Y-64000000D02*
X148000000Y-64000000D01*
X148900000Y-64000000D02*
X148900000Y-67700000D01*
X149800000Y-62500000D02*
X154800000Y-62500000D01*
X149800000Y-65500000D02*
X149800000Y-62500000D01*
X150000000Y-70000000D02*
X152300000Y-70000000D01*
X152300000Y-58000000D02*
X150000000Y-58000000D01*
X152300000Y-58000000D02*
X152300000Y-62500000D01*
X152300000Y-65500000D02*
X152300000Y-70000000D01*
X154800000Y-62500000D02*
X154800000Y-65500000D01*
X154800000Y-65500000D02*
X149800000Y-62500000D01*
X154800000Y-65500000D02*
X149800000Y-65500000D01*
X155800000Y-64000000D02*
X155800000Y-67700000D01*
X155800000Y-64000000D02*
X157300000Y-64000000D01*
X155800000Y-67700000D02*
X148900000Y-67700000D01*
X157300000Y-64000000D02*
X161800000Y-61300000D01*
X160500000Y-59700000D02*
X160500000Y-62000000D01*
X160500000Y-68300000D02*
X160500000Y-66000000D01*
X164000000Y-71710000D02*
X144990000Y-71710000D01*
X164010000Y-56290000D02*
X164010000Y-71710000D01*
D15*
%TO.C,D2*%
X166550000Y-100115000D02*
G75*
G02*
X166450000Y-100115000I-50000J0D01*
G01*
X166450000Y-100115000D02*
G75*
G02*
X166550000Y-100115000I50000J0D01*
G01*
D14*
%TO.C,K1*%
X147722500Y-73490000D02*
X163142500Y-73490000D01*
X147722500Y-92510000D02*
X147722500Y-73490000D01*
X147722500Y-92510000D02*
X154232500Y-92510000D01*
X149432500Y-85200000D02*
X149432500Y-87500000D01*
X149432500Y-85200000D02*
X153932500Y-85200000D01*
X151132500Y-77000000D02*
X153432500Y-77000000D01*
X153932500Y-82700000D02*
X156932500Y-82700000D01*
X153932500Y-87700000D02*
X153932500Y-82700000D01*
X155432500Y-80200000D02*
X152732500Y-75700000D01*
X155432500Y-81700000D02*
X155432500Y-80200000D01*
X155432500Y-81700000D02*
X159132500Y-81700000D01*
X155432500Y-88600000D02*
X155432500Y-89500000D01*
X155432500Y-88600000D02*
X159132500Y-88600000D01*
X156632500Y-92510000D02*
X163142500Y-92510000D01*
X156932500Y-82700000D02*
X153932500Y-87700000D01*
X156932500Y-82700000D02*
X156932500Y-87700000D01*
X156932500Y-85200000D02*
X161432500Y-85200000D01*
X156932500Y-87700000D02*
X153932500Y-87700000D01*
X159132500Y-81700000D02*
X159132500Y-88600000D01*
X159732500Y-77000000D02*
X157432500Y-77000000D01*
X161432500Y-87500000D02*
X161432500Y-85200000D01*
X163142500Y-73500000D02*
X163142500Y-92510000D01*
X163382500Y-90350000D02*
X163382500Y-88050000D01*
%TO.C,Q3*%
X148090000Y-96090000D02*
X149350000Y-96090000D01*
X148090000Y-99850000D02*
X148090000Y-96090000D01*
X154910000Y-96090000D02*
X153650000Y-96090000D01*
X154910000Y-99850000D02*
X154910000Y-96090000D01*
X148190000Y-101130000D02*
X147860000Y-101370000D01*
X147860000Y-100890000D01*
X148190000Y-101130000D01*
G36*
X148190000Y-101130000D02*
G01*
X147860000Y-101370000D01*
X147860000Y-100890000D01*
X148190000Y-101130000D01*
G37*
%TO.C,Q1*%
X154590000Y-106590000D02*
X155850000Y-106590000D01*
X154590000Y-110350000D02*
X154590000Y-106590000D01*
X161410000Y-106590000D02*
X160150000Y-106590000D01*
X161410000Y-110350000D02*
X161410000Y-106590000D01*
X154690000Y-111630000D02*
X154360000Y-111870000D01*
X154360000Y-111390000D01*
X154690000Y-111630000D01*
G36*
X154690000Y-111630000D02*
G01*
X154360000Y-111870000D01*
X154360000Y-111390000D01*
X154690000Y-111630000D01*
G37*
%TO.C,R11*%
X152620000Y-108663641D02*
X152620000Y-108356359D01*
X153380000Y-108663641D02*
X153380000Y-108356359D01*
%TO.C,SW1*%
X97050000Y-108350000D02*
X97050000Y-106730000D01*
X97050000Y-110890000D02*
X97050000Y-109950000D01*
X97050000Y-113430000D02*
X97050000Y-112490000D01*
X97050000Y-115970000D02*
X97050000Y-115030000D01*
X97050000Y-119190000D02*
X97050000Y-117570000D01*
X99970000Y-108515000D02*
X99970000Y-109785000D01*
X99970000Y-109785000D02*
X104030000Y-109785000D01*
X99970000Y-111055000D02*
X99970000Y-112325000D01*
X99970000Y-112325000D02*
X104030000Y-112325000D01*
X99970000Y-113595000D02*
X99970000Y-114865000D01*
X99970000Y-114865000D02*
X104030000Y-114865000D01*
X99970000Y-116135000D02*
X99970000Y-117405000D01*
X99970000Y-117405000D02*
X104030000Y-117405000D01*
X102676667Y-109785000D02*
X102676667Y-108515000D01*
X102676667Y-112325000D02*
X102676667Y-111055000D01*
X102676667Y-114865000D02*
X102676667Y-113595000D01*
X102676667Y-117405000D02*
X102676667Y-116135000D01*
X104030000Y-108515000D02*
X99970000Y-108515000D01*
X104030000Y-108585000D02*
X102676667Y-108585000D01*
X104030000Y-108705000D02*
X102676667Y-108705000D01*
X104030000Y-108825000D02*
X102676667Y-108825000D01*
X104030000Y-108945000D02*
X102676667Y-108945000D01*
X104030000Y-109065000D02*
X102676667Y-109065000D01*
X104030000Y-109185000D02*
X102676667Y-109185000D01*
X104030000Y-109305000D02*
X102676667Y-109305000D01*
X104030000Y-109425000D02*
X102676667Y-109425000D01*
X104030000Y-109545000D02*
X102676667Y-109545000D01*
X104030000Y-109665000D02*
X102676667Y-109665000D01*
X104030000Y-109785000D02*
X104030000Y-108515000D01*
X104030000Y-111055000D02*
X99970000Y-111055000D01*
X104030000Y-111125000D02*
X102676667Y-111125000D01*
X104030000Y-111245000D02*
X102676667Y-111245000D01*
X104030000Y-111365000D02*
X102676667Y-111365000D01*
X104030000Y-111485000D02*
X102676667Y-111485000D01*
X104030000Y-111605000D02*
X102676667Y-111605000D01*
X104030000Y-111725000D02*
X102676667Y-111725000D01*
X104030000Y-111845000D02*
X102676667Y-111845000D01*
X104030000Y-111965000D02*
X102676667Y-111965000D01*
X104030000Y-112085000D02*
X102676667Y-112085000D01*
X104030000Y-112205000D02*
X102676667Y-112205000D01*
X104030000Y-112325000D02*
X104030000Y-111055000D01*
X104030000Y-113595000D02*
X99970000Y-113595000D01*
X104030000Y-113665000D02*
X102676667Y-113665000D01*
X104030000Y-113785000D02*
X102676667Y-113785000D01*
X104030000Y-113905000D02*
X102676667Y-113905000D01*
X104030000Y-114025000D02*
X102676667Y-114025000D01*
X104030000Y-114145000D02*
X102676667Y-114145000D01*
X104030000Y-114265000D02*
X102676667Y-114265000D01*
X104030000Y-114385000D02*
X102676667Y-114385000D01*
X104030000Y-114505000D02*
X102676667Y-114505000D01*
X104030000Y-114625000D02*
X102676667Y-114625000D01*
X104030000Y-114745000D02*
X102676667Y-114745000D01*
X104030000Y-114865000D02*
X104030000Y-113595000D01*
X104030000Y-116135000D02*
X99970000Y-116135000D01*
X104030000Y-116205000D02*
X102676667Y-116205000D01*
X104030000Y-116325000D02*
X102676667Y-116325000D01*
X104030000Y-116445000D02*
X102676667Y-116445000D01*
X104030000Y-116565000D02*
X102676667Y-116565000D01*
X104030000Y-116685000D02*
X102676667Y-116685000D01*
X104030000Y-116805000D02*
X102676667Y-116805000D01*
X104030000Y-116925000D02*
X102676667Y-116925000D01*
X104030000Y-117045000D02*
X102676667Y-117045000D01*
X104030000Y-117165000D02*
X102676667Y-117165000D01*
X104030000Y-117285000D02*
X102676667Y-117285000D01*
X104030000Y-117405000D02*
X104030000Y-116135000D01*
X106950000Y-106730000D02*
X97050000Y-106730000D01*
X106950000Y-108350000D02*
X106950000Y-106730000D01*
X106950000Y-110890000D02*
X106950000Y-109950000D01*
X106950000Y-113430000D02*
X106950000Y-112490000D01*
X106950000Y-115970000D02*
X106950000Y-115030000D01*
X106950000Y-119190000D02*
X97050000Y-119190000D01*
X106950000Y-119190000D02*
X106950000Y-117570000D01*
X107190000Y-119430000D02*
X105806000Y-119430000D01*
X107190000Y-119430000D02*
X107190000Y-118047000D01*
%TD*%
M02*
