%TF.GenerationSoftware,KiCad,Pcbnew,8.0.2*%
%TF.CreationDate,2025-03-15T23:19:11-04:00*%
%TF.ProjectId,proyecto final,70726f79-6563-4746-9f20-66696e616c2e,rev?*%
%TF.SameCoordinates,Original*%
%TF.FileFunction,Copper,L2,Bot*%
%TF.FilePolarity,Positive*%
%FSLAX46Y46*%
G04 Gerber Fmt 4.6, Leading zero omitted, Abs format (unit mm)*
G04 Created by KiCad (PCBNEW 8.0.2) date 2025-03-15 23:19:11*
%MOMM*%
%LPD*%
G01*
G04 APERTURE LIST*
G04 Aperture macros list*
%AMRoundRect*
0 Rectangle with rounded corners*
0 $1 Rounding radius*
0 $2 $3 $4 $5 $6 $7 $8 $9 X,Y pos of 4 corners*
0 Add a 4 corners polygon primitive as box body*
4,1,4,$2,$3,$4,$5,$6,$7,$8,$9,$2,$3,0*
0 Add four circle primitives for the rounded corners*
1,1,$1+$1,$2,$3*
1,1,$1+$1,$4,$5*
1,1,$1+$1,$6,$7*
1,1,$1+$1,$8,$9*
0 Add four rect primitives between the rounded corners*
20,1,$1+$1,$2,$3,$4,$5,0*
20,1,$1+$1,$4,$5,$6,$7,0*
20,1,$1+$1,$6,$7,$8,$9,0*
20,1,$1+$1,$8,$9,$2,$3,0*%
G04 Aperture macros list end*
%ADD10C,0.300000*%
%TA.AperFunction,NonConductor*%
%ADD11C,0.300000*%
%TD*%
%TA.AperFunction,NonConductor*%
%ADD12C,0.200000*%
%TD*%
%TA.AperFunction,ComponentPad*%
%ADD13C,3.800000*%
%TD*%
%TA.AperFunction,ComponentPad*%
%ADD14R,3.000000X3.000000*%
%TD*%
%TA.AperFunction,ComponentPad*%
%ADD15C,3.000000*%
%TD*%
%TA.AperFunction,ComponentPad*%
%ADD16R,2.000000X2.000000*%
%TD*%
%TA.AperFunction,ComponentPad*%
%ADD17C,2.000000*%
%TD*%
%TA.AperFunction,ComponentPad*%
%ADD18C,2.400000*%
%TD*%
%TA.AperFunction,ComponentPad*%
%ADD19RoundRect,0.250000X1.000000X-1.000000X1.000000X1.000000X-1.000000X1.000000X-1.000000X-1.000000X0*%
%TD*%
%TA.AperFunction,ComponentPad*%
%ADD20RoundRect,0.250000X1.000000X1.000000X-1.000000X1.000000X-1.000000X-1.000000X1.000000X-1.000000X0*%
%TD*%
%TA.AperFunction,ViaPad*%
%ADD21C,0.800000*%
%TD*%
%TA.AperFunction,Conductor*%
%ADD22C,0.500000*%
%TD*%
%TA.AperFunction,Conductor*%
%ADD23C,0.600000*%
%TD*%
%TA.AperFunction,Conductor*%
%ADD24C,0.200000*%
%TD*%
%TA.AperFunction,Conductor*%
%ADD25C,1.000000*%
%TD*%
%TA.AperFunction,Conductor*%
%ADD26C,1.200000*%
%TD*%
%TA.AperFunction,Conductor*%
%ADD27C,0.400000*%
%TD*%
G04 APERTURE END LIST*
D10*
D11*
X127857144Y-130021185D02*
X127714287Y-129949757D01*
X127714287Y-129949757D02*
X127642858Y-129878328D01*
X127642858Y-129878328D02*
X127571430Y-129735471D01*
X127571430Y-129735471D02*
X127571430Y-129664042D01*
X127571430Y-129664042D02*
X127642858Y-129521185D01*
X127642858Y-129521185D02*
X127714287Y-129449757D01*
X127714287Y-129449757D02*
X127857144Y-129378328D01*
X127857144Y-129378328D02*
X128142858Y-129378328D01*
X128142858Y-129378328D02*
X128285716Y-129449757D01*
X128285716Y-129449757D02*
X128357144Y-129521185D01*
X128357144Y-129521185D02*
X128428573Y-129664042D01*
X128428573Y-129664042D02*
X128428573Y-129735471D01*
X128428573Y-129735471D02*
X128357144Y-129878328D01*
X128357144Y-129878328D02*
X128285716Y-129949757D01*
X128285716Y-129949757D02*
X128142858Y-130021185D01*
X128142858Y-130021185D02*
X127857144Y-130021185D01*
X127857144Y-130021185D02*
X127714287Y-130092614D01*
X127714287Y-130092614D02*
X127642858Y-130164042D01*
X127642858Y-130164042D02*
X127571430Y-130306900D01*
X127571430Y-130306900D02*
X127571430Y-130592614D01*
X127571430Y-130592614D02*
X127642858Y-130735471D01*
X127642858Y-130735471D02*
X127714287Y-130806900D01*
X127714287Y-130806900D02*
X127857144Y-130878328D01*
X127857144Y-130878328D02*
X128142858Y-130878328D01*
X128142858Y-130878328D02*
X128285716Y-130806900D01*
X128285716Y-130806900D02*
X128357144Y-130735471D01*
X128357144Y-130735471D02*
X128428573Y-130592614D01*
X128428573Y-130592614D02*
X128428573Y-130306900D01*
X128428573Y-130306900D02*
X128357144Y-130164042D01*
X128357144Y-130164042D02*
X128285716Y-130092614D01*
X128285716Y-130092614D02*
X128142858Y-130021185D01*
X129000001Y-129521185D02*
X129071429Y-129449757D01*
X129071429Y-129449757D02*
X129214287Y-129378328D01*
X129214287Y-129378328D02*
X129571429Y-129378328D01*
X129571429Y-129378328D02*
X129714287Y-129449757D01*
X129714287Y-129449757D02*
X129785715Y-129521185D01*
X129785715Y-129521185D02*
X129857144Y-129664042D01*
X129857144Y-129664042D02*
X129857144Y-129806900D01*
X129857144Y-129806900D02*
X129785715Y-130021185D01*
X129785715Y-130021185D02*
X128928572Y-130878328D01*
X128928572Y-130878328D02*
X129857144Y-130878328D01*
X130500000Y-130735471D02*
X130571429Y-130806900D01*
X130571429Y-130806900D02*
X130500000Y-130878328D01*
X130500000Y-130878328D02*
X130428572Y-130806900D01*
X130428572Y-130806900D02*
X130500000Y-130735471D01*
X130500000Y-130735471D02*
X130500000Y-130878328D01*
X131500001Y-129378328D02*
X131642858Y-129378328D01*
X131642858Y-129378328D02*
X131785715Y-129449757D01*
X131785715Y-129449757D02*
X131857144Y-129521185D01*
X131857144Y-129521185D02*
X131928572Y-129664042D01*
X131928572Y-129664042D02*
X132000001Y-129949757D01*
X132000001Y-129949757D02*
X132000001Y-130306900D01*
X132000001Y-130306900D02*
X131928572Y-130592614D01*
X131928572Y-130592614D02*
X131857144Y-130735471D01*
X131857144Y-130735471D02*
X131785715Y-130806900D01*
X131785715Y-130806900D02*
X131642858Y-130878328D01*
X131642858Y-130878328D02*
X131500001Y-130878328D01*
X131500001Y-130878328D02*
X131357144Y-130806900D01*
X131357144Y-130806900D02*
X131285715Y-130735471D01*
X131285715Y-130735471D02*
X131214286Y-130592614D01*
X131214286Y-130592614D02*
X131142858Y-130306900D01*
X131142858Y-130306900D02*
X131142858Y-129949757D01*
X131142858Y-129949757D02*
X131214286Y-129664042D01*
X131214286Y-129664042D02*
X131285715Y-129521185D01*
X131285715Y-129521185D02*
X131357144Y-129449757D01*
X131357144Y-129449757D02*
X131500001Y-129378328D01*
X132928572Y-129378328D02*
X133071429Y-129378328D01*
X133071429Y-129378328D02*
X133214286Y-129449757D01*
X133214286Y-129449757D02*
X133285715Y-129521185D01*
X133285715Y-129521185D02*
X133357143Y-129664042D01*
X133357143Y-129664042D02*
X133428572Y-129949757D01*
X133428572Y-129949757D02*
X133428572Y-130306900D01*
X133428572Y-130306900D02*
X133357143Y-130592614D01*
X133357143Y-130592614D02*
X133285715Y-130735471D01*
X133285715Y-130735471D02*
X133214286Y-130806900D01*
X133214286Y-130806900D02*
X133071429Y-130878328D01*
X133071429Y-130878328D02*
X132928572Y-130878328D01*
X132928572Y-130878328D02*
X132785715Y-130806900D01*
X132785715Y-130806900D02*
X132714286Y-130735471D01*
X132714286Y-130735471D02*
X132642857Y-130592614D01*
X132642857Y-130592614D02*
X132571429Y-130306900D01*
X132571429Y-130306900D02*
X132571429Y-129949757D01*
X132571429Y-129949757D02*
X132642857Y-129664042D01*
X132642857Y-129664042D02*
X132714286Y-129521185D01*
X132714286Y-129521185D02*
X132785715Y-129449757D01*
X132785715Y-129449757D02*
X132928572Y-129378328D01*
X134357143Y-129378328D02*
X134500000Y-129378328D01*
X134500000Y-129378328D02*
X134642857Y-129449757D01*
X134642857Y-129449757D02*
X134714286Y-129521185D01*
X134714286Y-129521185D02*
X134785714Y-129664042D01*
X134785714Y-129664042D02*
X134857143Y-129949757D01*
X134857143Y-129949757D02*
X134857143Y-130306900D01*
X134857143Y-130306900D02*
X134785714Y-130592614D01*
X134785714Y-130592614D02*
X134714286Y-130735471D01*
X134714286Y-130735471D02*
X134642857Y-130806900D01*
X134642857Y-130806900D02*
X134500000Y-130878328D01*
X134500000Y-130878328D02*
X134357143Y-130878328D01*
X134357143Y-130878328D02*
X134214286Y-130806900D01*
X134214286Y-130806900D02*
X134142857Y-130735471D01*
X134142857Y-130735471D02*
X134071428Y-130592614D01*
X134071428Y-130592614D02*
X134000000Y-130306900D01*
X134000000Y-130306900D02*
X134000000Y-129949757D01*
X134000000Y-129949757D02*
X134071428Y-129664042D01*
X134071428Y-129664042D02*
X134142857Y-129521185D01*
X134142857Y-129521185D02*
X134214286Y-129449757D01*
X134214286Y-129449757D02*
X134357143Y-129378328D01*
X135785714Y-129378328D02*
X135928571Y-129378328D01*
X135928571Y-129378328D02*
X136071428Y-129449757D01*
X136071428Y-129449757D02*
X136142857Y-129521185D01*
X136142857Y-129521185D02*
X136214285Y-129664042D01*
X136214285Y-129664042D02*
X136285714Y-129949757D01*
X136285714Y-129949757D02*
X136285714Y-130306900D01*
X136285714Y-130306900D02*
X136214285Y-130592614D01*
X136214285Y-130592614D02*
X136142857Y-130735471D01*
X136142857Y-130735471D02*
X136071428Y-130806900D01*
X136071428Y-130806900D02*
X135928571Y-130878328D01*
X135928571Y-130878328D02*
X135785714Y-130878328D01*
X135785714Y-130878328D02*
X135642857Y-130806900D01*
X135642857Y-130806900D02*
X135571428Y-130735471D01*
X135571428Y-130735471D02*
X135499999Y-130592614D01*
X135499999Y-130592614D02*
X135428571Y-130306900D01*
X135428571Y-130306900D02*
X135428571Y-129949757D01*
X135428571Y-129949757D02*
X135499999Y-129664042D01*
X135499999Y-129664042D02*
X135571428Y-129521185D01*
X135571428Y-129521185D02*
X135642857Y-129449757D01*
X135642857Y-129449757D02*
X135785714Y-129378328D01*
X138071427Y-130878328D02*
X138071427Y-129878328D01*
X138071427Y-130021185D02*
X138142856Y-129949757D01*
X138142856Y-129949757D02*
X138285713Y-129878328D01*
X138285713Y-129878328D02*
X138499999Y-129878328D01*
X138499999Y-129878328D02*
X138642856Y-129949757D01*
X138642856Y-129949757D02*
X138714285Y-130092614D01*
X138714285Y-130092614D02*
X138714285Y-130878328D01*
X138714285Y-130092614D02*
X138785713Y-129949757D01*
X138785713Y-129949757D02*
X138928570Y-129878328D01*
X138928570Y-129878328D02*
X139142856Y-129878328D01*
X139142856Y-129878328D02*
X139285713Y-129949757D01*
X139285713Y-129949757D02*
X139357142Y-130092614D01*
X139357142Y-130092614D02*
X139357142Y-130878328D01*
X140071427Y-130878328D02*
X140071427Y-129878328D01*
X140071427Y-130021185D02*
X140142856Y-129949757D01*
X140142856Y-129949757D02*
X140285713Y-129878328D01*
X140285713Y-129878328D02*
X140499999Y-129878328D01*
X140499999Y-129878328D02*
X140642856Y-129949757D01*
X140642856Y-129949757D02*
X140714285Y-130092614D01*
X140714285Y-130092614D02*
X140714285Y-130878328D01*
X140714285Y-130092614D02*
X140785713Y-129949757D01*
X140785713Y-129949757D02*
X140928570Y-129878328D01*
X140928570Y-129878328D02*
X141142856Y-129878328D01*
X141142856Y-129878328D02*
X141285713Y-129949757D01*
X141285713Y-129949757D02*
X141357142Y-130092614D01*
X141357142Y-130092614D02*
X141357142Y-130878328D01*
D12*
X175500000Y-128000000D02*
X175500000Y-132586420D01*
X93500000Y-128000000D02*
X93500000Y-132586420D01*
X175500000Y-132000000D02*
X93500000Y-132000000D01*
X175500000Y-132000000D02*
X93500000Y-132000000D01*
X175500000Y-132000000D02*
X174373496Y-132586421D01*
X175500000Y-132000000D02*
X174373496Y-131413579D01*
X93500000Y-132000000D02*
X94626504Y-131413579D01*
X93500000Y-132000000D02*
X94626504Y-132586421D01*
D10*
D11*
X178878328Y-96499998D02*
X178878328Y-95499998D01*
X178878328Y-95499998D02*
X180378328Y-96142855D01*
X178878328Y-94285713D02*
X178878328Y-94571427D01*
X178878328Y-94571427D02*
X178949757Y-94714284D01*
X178949757Y-94714284D02*
X179021185Y-94785713D01*
X179021185Y-94785713D02*
X179235471Y-94928570D01*
X179235471Y-94928570D02*
X179521185Y-94999998D01*
X179521185Y-94999998D02*
X180092614Y-94999998D01*
X180092614Y-94999998D02*
X180235471Y-94928570D01*
X180235471Y-94928570D02*
X180306900Y-94857141D01*
X180306900Y-94857141D02*
X180378328Y-94714284D01*
X180378328Y-94714284D02*
X180378328Y-94428570D01*
X180378328Y-94428570D02*
X180306900Y-94285713D01*
X180306900Y-94285713D02*
X180235471Y-94214284D01*
X180235471Y-94214284D02*
X180092614Y-94142855D01*
X180092614Y-94142855D02*
X179735471Y-94142855D01*
X179735471Y-94142855D02*
X179592614Y-94214284D01*
X179592614Y-94214284D02*
X179521185Y-94285713D01*
X179521185Y-94285713D02*
X179449757Y-94428570D01*
X179449757Y-94428570D02*
X179449757Y-94714284D01*
X179449757Y-94714284D02*
X179521185Y-94857141D01*
X179521185Y-94857141D02*
X179592614Y-94928570D01*
X179592614Y-94928570D02*
X179735471Y-94999998D01*
X180235471Y-93499999D02*
X180306900Y-93428570D01*
X180306900Y-93428570D02*
X180378328Y-93499999D01*
X180378328Y-93499999D02*
X180306900Y-93571427D01*
X180306900Y-93571427D02*
X180235471Y-93499999D01*
X180235471Y-93499999D02*
X180378328Y-93499999D01*
X178878328Y-92499998D02*
X178878328Y-92357141D01*
X178878328Y-92357141D02*
X178949757Y-92214284D01*
X178949757Y-92214284D02*
X179021185Y-92142856D01*
X179021185Y-92142856D02*
X179164042Y-92071427D01*
X179164042Y-92071427D02*
X179449757Y-91999998D01*
X179449757Y-91999998D02*
X179806900Y-91999998D01*
X179806900Y-91999998D02*
X180092614Y-92071427D01*
X180092614Y-92071427D02*
X180235471Y-92142856D01*
X180235471Y-92142856D02*
X180306900Y-92214284D01*
X180306900Y-92214284D02*
X180378328Y-92357141D01*
X180378328Y-92357141D02*
X180378328Y-92499998D01*
X180378328Y-92499998D02*
X180306900Y-92642856D01*
X180306900Y-92642856D02*
X180235471Y-92714284D01*
X180235471Y-92714284D02*
X180092614Y-92785713D01*
X180092614Y-92785713D02*
X179806900Y-92857141D01*
X179806900Y-92857141D02*
X179449757Y-92857141D01*
X179449757Y-92857141D02*
X179164042Y-92785713D01*
X179164042Y-92785713D02*
X179021185Y-92714284D01*
X179021185Y-92714284D02*
X178949757Y-92642856D01*
X178949757Y-92642856D02*
X178878328Y-92499998D01*
X178878328Y-91071427D02*
X178878328Y-90928570D01*
X178878328Y-90928570D02*
X178949757Y-90785713D01*
X178949757Y-90785713D02*
X179021185Y-90714285D01*
X179021185Y-90714285D02*
X179164042Y-90642856D01*
X179164042Y-90642856D02*
X179449757Y-90571427D01*
X179449757Y-90571427D02*
X179806900Y-90571427D01*
X179806900Y-90571427D02*
X180092614Y-90642856D01*
X180092614Y-90642856D02*
X180235471Y-90714285D01*
X180235471Y-90714285D02*
X180306900Y-90785713D01*
X180306900Y-90785713D02*
X180378328Y-90928570D01*
X180378328Y-90928570D02*
X180378328Y-91071427D01*
X180378328Y-91071427D02*
X180306900Y-91214285D01*
X180306900Y-91214285D02*
X180235471Y-91285713D01*
X180235471Y-91285713D02*
X180092614Y-91357142D01*
X180092614Y-91357142D02*
X179806900Y-91428570D01*
X179806900Y-91428570D02*
X179449757Y-91428570D01*
X179449757Y-91428570D02*
X179164042Y-91357142D01*
X179164042Y-91357142D02*
X179021185Y-91285713D01*
X179021185Y-91285713D02*
X178949757Y-91214285D01*
X178949757Y-91214285D02*
X178878328Y-91071427D01*
X178878328Y-89642856D02*
X178878328Y-89499999D01*
X178878328Y-89499999D02*
X178949757Y-89357142D01*
X178949757Y-89357142D02*
X179021185Y-89285714D01*
X179021185Y-89285714D02*
X179164042Y-89214285D01*
X179164042Y-89214285D02*
X179449757Y-89142856D01*
X179449757Y-89142856D02*
X179806900Y-89142856D01*
X179806900Y-89142856D02*
X180092614Y-89214285D01*
X180092614Y-89214285D02*
X180235471Y-89285714D01*
X180235471Y-89285714D02*
X180306900Y-89357142D01*
X180306900Y-89357142D02*
X180378328Y-89499999D01*
X180378328Y-89499999D02*
X180378328Y-89642856D01*
X180378328Y-89642856D02*
X180306900Y-89785714D01*
X180306900Y-89785714D02*
X180235471Y-89857142D01*
X180235471Y-89857142D02*
X180092614Y-89928571D01*
X180092614Y-89928571D02*
X179806900Y-89999999D01*
X179806900Y-89999999D02*
X179449757Y-89999999D01*
X179449757Y-89999999D02*
X179164042Y-89928571D01*
X179164042Y-89928571D02*
X179021185Y-89857142D01*
X179021185Y-89857142D02*
X178949757Y-89785714D01*
X178949757Y-89785714D02*
X178878328Y-89642856D01*
X178878328Y-88214285D02*
X178878328Y-88071428D01*
X178878328Y-88071428D02*
X178949757Y-87928571D01*
X178949757Y-87928571D02*
X179021185Y-87857143D01*
X179021185Y-87857143D02*
X179164042Y-87785714D01*
X179164042Y-87785714D02*
X179449757Y-87714285D01*
X179449757Y-87714285D02*
X179806900Y-87714285D01*
X179806900Y-87714285D02*
X180092614Y-87785714D01*
X180092614Y-87785714D02*
X180235471Y-87857143D01*
X180235471Y-87857143D02*
X180306900Y-87928571D01*
X180306900Y-87928571D02*
X180378328Y-88071428D01*
X180378328Y-88071428D02*
X180378328Y-88214285D01*
X180378328Y-88214285D02*
X180306900Y-88357143D01*
X180306900Y-88357143D02*
X180235471Y-88428571D01*
X180235471Y-88428571D02*
X180092614Y-88500000D01*
X180092614Y-88500000D02*
X179806900Y-88571428D01*
X179806900Y-88571428D02*
X179449757Y-88571428D01*
X179449757Y-88571428D02*
X179164042Y-88500000D01*
X179164042Y-88500000D02*
X179021185Y-88428571D01*
X179021185Y-88428571D02*
X178949757Y-88357143D01*
X178949757Y-88357143D02*
X178878328Y-88214285D01*
X180378328Y-85928572D02*
X179378328Y-85928572D01*
X179521185Y-85928572D02*
X179449757Y-85857143D01*
X179449757Y-85857143D02*
X179378328Y-85714286D01*
X179378328Y-85714286D02*
X179378328Y-85500000D01*
X179378328Y-85500000D02*
X179449757Y-85357143D01*
X179449757Y-85357143D02*
X179592614Y-85285715D01*
X179592614Y-85285715D02*
X180378328Y-85285715D01*
X179592614Y-85285715D02*
X179449757Y-85214286D01*
X179449757Y-85214286D02*
X179378328Y-85071429D01*
X179378328Y-85071429D02*
X179378328Y-84857143D01*
X179378328Y-84857143D02*
X179449757Y-84714286D01*
X179449757Y-84714286D02*
X179592614Y-84642857D01*
X179592614Y-84642857D02*
X180378328Y-84642857D01*
X180378328Y-83928572D02*
X179378328Y-83928572D01*
X179521185Y-83928572D02*
X179449757Y-83857143D01*
X179449757Y-83857143D02*
X179378328Y-83714286D01*
X179378328Y-83714286D02*
X179378328Y-83500000D01*
X179378328Y-83500000D02*
X179449757Y-83357143D01*
X179449757Y-83357143D02*
X179592614Y-83285715D01*
X179592614Y-83285715D02*
X180378328Y-83285715D01*
X179592614Y-83285715D02*
X179449757Y-83214286D01*
X179449757Y-83214286D02*
X179378328Y-83071429D01*
X179378328Y-83071429D02*
X179378328Y-82857143D01*
X179378328Y-82857143D02*
X179449757Y-82714286D01*
X179449757Y-82714286D02*
X179592614Y-82642857D01*
X179592614Y-82642857D02*
X180378328Y-82642857D01*
D12*
X176000000Y-51500000D02*
X182086420Y-51500000D01*
X176000000Y-127500000D02*
X182086420Y-127500000D01*
X181500000Y-51500000D02*
X181500000Y-127500000D01*
X181500000Y-51500000D02*
X181500000Y-127500000D01*
X181500000Y-51500000D02*
X182086421Y-52626504D01*
X181500000Y-51500000D02*
X180913579Y-52626504D01*
X181500000Y-127500000D02*
X180913579Y-126373496D01*
X181500000Y-127500000D02*
X182086421Y-126373496D01*
D13*
%TO.P,REF\u002A\u002A,1*%
%TO.N,N/C*%
X97000000Y-54500000D03*
%TD*%
D14*
%TO.P,J4,1,Pin_1*%
%TO.N,LSC*%
X140660000Y-60500000D03*
D15*
%TO.P,J4,2,Pin_2*%
%TO.N,GND*%
X135580000Y-60500000D03*
%TO.P,J4,3,Pin_3*%
%TO.N,LSA*%
X130500000Y-60500000D03*
%TD*%
D14*
%TO.P,J5,1,Pin_1*%
%TO.N,GND*%
X102000000Y-96420000D03*
D15*
%TO.P,J5,2,Pin_2*%
%TO.N,pv*%
X102000000Y-101500000D03*
%TD*%
D14*
%TO.P,J3,1,Pin_1*%
%TO.N,GND*%
X111080000Y-60500000D03*
D15*
%TO.P,J3,2,Pin_2*%
%TO.N,Fotocelda*%
X106000000Y-60500000D03*
%TO.P,J3,3,Pin_3*%
%TO.N,+5V*%
X100920000Y-60500000D03*
%TD*%
D14*
%TO.P,J1,1,Pin_1*%
%TO.N,GND*%
X122540000Y-60500000D03*
D15*
%TO.P,J1,2,Pin_2*%
%TO.N,+12V*%
X117460000Y-60500000D03*
%TD*%
D14*
%TO.P,J2,1,Pin_1*%
%TO.N,llave B*%
X102000000Y-80380000D03*
D15*
%TO.P,J2,2,Pin_2*%
%TO.N,GND*%
X102000000Y-85460000D03*
%TO.P,J2,3,Pin_3*%
%TO.N,llave A*%
X102000000Y-90540000D03*
%TD*%
D14*
%TO.P,J7,1,Pin_1*%
%TO.N,+5V*%
X168500000Y-122040000D03*
D15*
%TO.P,J7,2,Pin_2*%
%TO.N,Net-(J7-Pin_2)*%
X168500000Y-116960000D03*
%TD*%
D14*
%TO.P,J6,1,Pin_1*%
%TO.N,MO1*%
X169000000Y-85040000D03*
D15*
%TO.P,J6,2,Pin_2*%
%TO.N,Net-(J6-Pin_2)*%
X169000000Y-79960000D03*
%TD*%
D13*
%TO.P,REF\u002A\u002A,1*%
%TO.N,N/C*%
X148500000Y-124000000D03*
%TD*%
%TO.P,REF\u002A\u002A,1*%
%TO.N,N/C*%
X97500000Y-124000000D03*
%TD*%
D16*
%TO.P,U2,1,3V3*%
%TO.N,+3.3V*%
X115800000Y-81985000D03*
D17*
%TO.P,U2,2,GND*%
%TO.N,GND*%
X115800000Y-84525000D03*
%TO.P,U2,3,D15*%
%TO.N,unconnected-(U2-D15-Pad3)*%
X115800000Y-87065000D03*
%TO.P,U2,4,D2*%
%TO.N,pv*%
X115800000Y-89605000D03*
%TO.P,U2,5,D4*%
%TO.N,unconnected-(U2-D4-Pad5)*%
X115800000Y-92145000D03*
%TO.P,U2,6,RX2*%
%TO.N,unconnected-(U2-RX2-Pad6)*%
X115800000Y-94685000D03*
%TO.P,U2,7,TX2*%
%TO.N,unconnected-(U2-TX2-Pad7)*%
X115800000Y-97225000D03*
%TO.P,U2,8,D5*%
%TO.N,unconnected-(U2-D5-Pad8)*%
X115800000Y-99765000D03*
%TO.P,U2,9,D18*%
%TO.N,FTC*%
X115800000Y-102305000D03*
%TO.P,U2,10,D19*%
%TO.N,llave A*%
X115800000Y-104845000D03*
%TO.P,U2,11,D21*%
%TO.N,llave B*%
X115800000Y-107385000D03*
%TO.P,U2,12,RX0*%
%TO.N,unconnected-(U2-RX0-Pad12)*%
X115800000Y-109925000D03*
%TO.P,U2,13,TX0*%
%TO.N,unconnected-(U2-TX0-Pad13)*%
X115800000Y-112465000D03*
%TO.P,U2,14,D22*%
%TO.N,Net-(U2-D22)*%
X115800000Y-115005000D03*
%TO.P,U2,15,D23*%
%TO.N,Net-(U2-D23)*%
X115800000Y-117545000D03*
%TO.P,U2,16,EN*%
%TO.N,unconnected-(U2-EN-Pad16)*%
X141200000Y-117545000D03*
%TO.P,U2,17,VP*%
%TO.N,unconnected-(U2-VP-Pad17)*%
X141200000Y-115005000D03*
%TO.P,U2,18,VN*%
%TO.N,unconnected-(U2-VN-Pad18)*%
X141200000Y-112465000D03*
%TO.P,U2,19,D34*%
%TO.N,unconnected-(U2-D34-Pad19)*%
X141200000Y-109925000D03*
%TO.P,U2,20,D35*%
%TO.N,BUZZER*%
X141200000Y-107385000D03*
%TO.P,U2,21,D32*%
%TO.N,MC*%
X141200000Y-104845000D03*
%TO.P,U2,22,D33*%
%TO.N,LAMP*%
X141200000Y-102305000D03*
%TO.P,U2,23,D25*%
%TO.N,Net-(U2-D25)*%
X141200000Y-99765000D03*
%TO.P,U2,24,D26*%
%TO.N,Net-(U2-D26)*%
X141200000Y-97225000D03*
%TO.P,U2,25,D27*%
%TO.N,MA*%
X141200000Y-94685000D03*
%TO.P,U2,26,D14*%
%TO.N,LSC*%
X141200000Y-92145000D03*
%TO.P,U2,27,D12*%
%TO.N,LSA*%
X141200000Y-89605000D03*
%TO.P,U2,28,D13*%
%TO.N,unconnected-(U2-D13-Pad28)*%
X141200000Y-87065000D03*
%TO.P,U2,29,GND*%
%TO.N,GND*%
X141200000Y-84525000D03*
%TO.P,U2,30,VIN*%
%TO.N,+5V*%
X141200000Y-81985000D03*
%TD*%
D18*
%TO.P,K2,11*%
%TO.N,MO2*%
X146300000Y-64000000D03*
%TO.P,K2,12*%
%TO.N,+12V*%
X160500000Y-58000000D03*
%TO.P,K2,14*%
%TO.N,Net-(K1-Pad14)*%
X160500000Y-70000000D03*
D19*
%TO.P,K2,A1*%
%TO.N,+12V*%
X148300000Y-70000000D03*
D18*
%TO.P,K2,A2*%
%TO.N,Net-(Q4-C)*%
X148300000Y-58000000D03*
%TD*%
%TO.P,K1,11*%
%TO.N,MO1*%
X155432500Y-91200000D03*
%TO.P,K1,12*%
%TO.N,+12V*%
X149432500Y-77000000D03*
%TO.P,K1,14*%
%TO.N,Net-(K1-Pad14)*%
X161432500Y-77000000D03*
D20*
%TO.P,K1,A1*%
%TO.N,+12V*%
X161432500Y-89200000D03*
D18*
%TO.P,K1,A2*%
%TO.N,Net-(Q3-C)*%
X149432500Y-89200000D03*
%TD*%
D13*
%TO.P,REF\u002A\u002A,1*%
%TO.N,N/C*%
X172000000Y-55000000D03*
%TD*%
D21*
%TO.N,+5V*%
X142811000Y-64731500D03*
X171647800Y-82500000D03*
%TO.N,+12V*%
X132379900Y-68297000D03*
X157000000Y-67500000D03*
%TO.N,+5V*%
X109650000Y-67694400D03*
%TO.N,llave B*%
X113000000Y-81907000D03*
%TO.N,llave A*%
X98990000Y-90792500D03*
%TO.N,pv*%
X107500000Y-89605000D03*
%TO.N,Net-(J7-Pin_2)*%
X158000000Y-118063700D03*
%TO.N,MO2*%
X170546700Y-65397700D03*
%TO.N,Net-(Q3-B)*%
X167000000Y-90677400D03*
X149264300Y-93473800D03*
%TO.N,+3.3V*%
X134520000Y-79546000D03*
%TO.N,Net-(U2-D23)*%
X108523400Y-115250000D03*
%TO.N,Net-(U2-D25)*%
X130500000Y-99765000D03*
%TO.N,Net-(U2-D26)*%
X103257800Y-118868900D03*
X132581800Y-115052200D03*
%TO.N,BUZZER*%
X153000000Y-109792900D03*
%TO.N,MA*%
X166392400Y-94360500D03*
%TO.N,MC*%
X168000000Y-98568000D03*
%TD*%
D22*
%TO.N,+5V*%
X109650000Y-67350000D02*
X113500000Y-63500000D01*
X109650000Y-67694400D02*
X109650000Y-67350000D01*
X113500000Y-63500000D02*
X103340000Y-63500000D01*
X122000000Y-63500000D02*
X113500000Y-63500000D01*
X142079500Y-64000000D02*
X142811000Y-64731500D01*
X100920000Y-61080000D02*
X100920000Y-60500000D01*
X122500000Y-64000000D02*
X142079500Y-64000000D01*
X122000000Y-63500000D02*
X122500000Y-64000000D01*
X103340000Y-63500000D02*
X100920000Y-61080000D01*
D23*
X141715000Y-82500000D02*
X171647800Y-82500000D01*
D24*
X141200000Y-81985000D02*
X141715000Y-82500000D01*
D25*
%TO.N,+12V*%
X134082900Y-70000000D02*
X132379900Y-68297000D01*
D26*
X154500000Y-70000000D02*
X148300000Y-70000000D01*
X157000000Y-67500000D02*
X154500000Y-70000000D01*
D25*
X148300000Y-70000000D02*
X134082900Y-70000000D01*
D24*
%TO.N,GND*%
X123440900Y-60500000D02*
X122540000Y-60500000D01*
D22*
%TO.N,llave B*%
X105328700Y-81907000D02*
X103801700Y-80380000D01*
X113000000Y-81907000D02*
X105328700Y-81907000D01*
X103801700Y-80380000D02*
X102000000Y-80380000D01*
%TO.N,llave A*%
X102000000Y-90792500D02*
X102000000Y-90540000D01*
X102000000Y-91045000D02*
X102000000Y-90792500D01*
X115800000Y-104845000D02*
X102000000Y-91045000D01*
X102000000Y-90792500D02*
X98990000Y-90792500D01*
%TO.N,pv*%
X115800000Y-89605000D02*
X107500000Y-89605000D01*
D25*
%TO.N,MO1*%
X169000000Y-85040000D02*
X159960000Y-85040000D01*
X159960000Y-85040000D02*
X155432500Y-89567500D01*
X155432500Y-89567500D02*
X155432500Y-91200000D01*
D22*
%TO.N,Net-(J7-Pin_2)*%
X160077100Y-116960000D02*
X168500000Y-116960000D01*
X158973400Y-118063700D02*
X158000000Y-118063700D01*
X160077100Y-116960000D02*
X158973400Y-118063700D01*
D26*
%TO.N,MO2*%
X146300000Y-64000000D02*
X169149000Y-64000000D01*
D25*
X169149000Y-64000000D02*
X170546700Y-65397700D01*
D22*
%TO.N,Net-(Q3-B)*%
X164203600Y-93473800D02*
X167000000Y-90677400D01*
D27*
X149264300Y-93473800D02*
X164203600Y-93473800D01*
D22*
%TO.N,+3.3V*%
X115800000Y-81985000D02*
X117101700Y-81985000D01*
X117101700Y-81985000D02*
X119540700Y-79546000D01*
X119540700Y-79546000D02*
X134520000Y-79546000D01*
%TO.N,Net-(U2-D23)*%
X110818400Y-117545000D02*
X108523400Y-115250000D01*
X115800000Y-117545000D02*
X110818400Y-117545000D01*
%TO.N,Net-(U2-D25)*%
X141200000Y-99765000D02*
X130500000Y-99765000D01*
%TO.N,Net-(U2-D26)*%
X132581800Y-115052200D02*
X119447800Y-115052200D01*
X108888900Y-124500000D02*
X103257800Y-118868900D01*
X117000000Y-124500000D02*
X108888900Y-124500000D01*
X118500000Y-116000000D02*
X118500000Y-123000000D01*
X119447800Y-115052200D02*
X118500000Y-116000000D01*
X118500000Y-123000000D02*
X117000000Y-124500000D01*
%TO.N,BUZZER*%
X152292900Y-109792900D02*
X153000000Y-109792900D01*
X149885000Y-107385000D02*
X152292900Y-109792900D01*
X141200000Y-107385000D02*
X149885000Y-107385000D01*
D24*
%TO.N,MA*%
X141200000Y-94685000D02*
X141524500Y-94360500D01*
D22*
X141524500Y-94360500D02*
X166392400Y-94360500D01*
%TO.N,MC*%
X147477000Y-98568000D02*
X141200000Y-104845000D01*
X168000000Y-98568000D02*
X147477000Y-98568000D01*
%TD*%
%TA.AperFunction,Conductor*%
%TO.N,GND*%
G36*
X166949096Y-83320185D02*
G01*
X166994851Y-83372989D01*
X167005346Y-83437756D01*
X166999500Y-83492119D01*
X166999500Y-83915500D01*
X166979815Y-83982539D01*
X166927011Y-84028294D01*
X166875500Y-84039500D01*
X159861455Y-84039500D01*
X159764812Y-84058724D01*
X159668167Y-84077947D01*
X159668161Y-84077949D01*
X159614834Y-84100037D01*
X159614834Y-84100038D01*
X159574131Y-84116898D01*
X159486089Y-84153366D01*
X159486079Y-84153371D01*
X159322219Y-84262859D01*
X159256932Y-84328147D01*
X159182861Y-84402218D01*
X159182858Y-84402221D01*
X154794721Y-88790358D01*
X154794718Y-88790361D01*
X154754261Y-88830818D01*
X154655359Y-88929719D01*
X154545871Y-89093579D01*
X154545864Y-89093592D01*
X154501790Y-89199999D01*
X154470450Y-89275660D01*
X154470446Y-89275673D01*
X154469684Y-89279507D01*
X154432000Y-89468954D01*
X154432000Y-90170621D01*
X154412315Y-90237660D01*
X154399230Y-90254603D01*
X154323522Y-90336844D01*
X154323520Y-90336846D01*
X154196575Y-90531151D01*
X154103342Y-90743699D01*
X154046366Y-90968691D01*
X154046364Y-90968702D01*
X154027200Y-91199993D01*
X154027200Y-91200006D01*
X154046364Y-91431297D01*
X154046366Y-91431308D01*
X154103342Y-91656300D01*
X154196575Y-91868848D01*
X154323516Y-92063147D01*
X154323519Y-92063151D01*
X154323521Y-92063153D01*
X154480716Y-92233913D01*
X154480719Y-92233915D01*
X154480722Y-92233918D01*
X154663865Y-92376464D01*
X154663871Y-92376468D01*
X154663874Y-92376470D01*
X154867997Y-92486936D01*
X154910016Y-92501361D01*
X154999318Y-92532019D01*
X155056333Y-92572404D01*
X155082464Y-92637204D01*
X155069413Y-92705844D01*
X155021324Y-92756532D01*
X154959055Y-92773300D01*
X149872456Y-92773300D01*
X149805417Y-92753615D01*
X149799571Y-92749618D01*
X149717034Y-92689651D01*
X149717029Y-92689648D01*
X149544107Y-92612657D01*
X149544102Y-92612655D01*
X149398301Y-92581665D01*
X149358946Y-92573300D01*
X149169654Y-92573300D01*
X149137197Y-92580198D01*
X148984497Y-92612655D01*
X148984492Y-92612657D01*
X148811570Y-92689648D01*
X148811565Y-92689651D01*
X148658429Y-92800911D01*
X148531766Y-92941585D01*
X148437121Y-93105515D01*
X148437118Y-93105522D01*
X148389285Y-93252738D01*
X148378626Y-93285544D01*
X148358840Y-93473800D01*
X148358840Y-93473802D01*
X148358840Y-93480299D01*
X148357433Y-93480299D01*
X148346189Y-93541772D01*
X148298455Y-93592794D01*
X148235439Y-93610000D01*
X142303692Y-93610000D01*
X142236653Y-93590315D01*
X142223806Y-93580394D01*
X142223792Y-93580413D01*
X142219744Y-93577262D01*
X142136991Y-93512852D01*
X142096179Y-93456143D01*
X142092504Y-93386370D01*
X142127136Y-93325687D01*
X142136985Y-93317151D01*
X142219744Y-93252738D01*
X142388164Y-93069785D01*
X142524173Y-92861607D01*
X142624063Y-92633881D01*
X142685108Y-92392821D01*
X142686463Y-92376468D01*
X142705643Y-92145005D01*
X142705643Y-92144994D01*
X142685109Y-91897187D01*
X142685107Y-91897175D01*
X142624063Y-91656118D01*
X142524173Y-91428393D01*
X142388166Y-91220217D01*
X142333447Y-91160777D01*
X142219744Y-91037262D01*
X142136991Y-90972852D01*
X142096179Y-90916143D01*
X142092504Y-90846370D01*
X142127136Y-90785687D01*
X142136985Y-90777151D01*
X142219744Y-90712738D01*
X142388164Y-90529785D01*
X142524173Y-90321607D01*
X142624063Y-90093881D01*
X142685108Y-89852821D01*
X142688138Y-89816255D01*
X142705643Y-89605005D01*
X142705643Y-89604994D01*
X142685109Y-89357187D01*
X142685107Y-89357175D01*
X142645304Y-89199995D01*
X147727232Y-89199995D01*
X147727232Y-89199999D01*
X147746277Y-89454154D01*
X147780705Y-89604994D01*
X147802992Y-89702637D01*
X147896107Y-89939888D01*
X148023541Y-90160612D01*
X148182450Y-90359877D01*
X148369283Y-90533232D01*
X148579866Y-90676805D01*
X148579871Y-90676807D01*
X148579872Y-90676808D01*
X148579873Y-90676809D01*
X148701828Y-90735538D01*
X148809492Y-90787387D01*
X148809493Y-90787387D01*
X148809496Y-90787389D01*
X149053042Y-90862513D01*
X149305065Y-90900500D01*
X149559935Y-90900500D01*
X149811958Y-90862513D01*
X150055504Y-90787389D01*
X150236958Y-90700005D01*
X150285126Y-90676809D01*
X150285126Y-90676808D01*
X150285134Y-90676805D01*
X150495717Y-90533232D01*
X150682550Y-90359877D01*
X150841459Y-90160612D01*
X150968893Y-89939888D01*
X151062008Y-89702637D01*
X151118722Y-89454157D01*
X151137768Y-89200000D01*
X151118722Y-88945843D01*
X151062008Y-88697363D01*
X150968893Y-88460112D01*
X150841459Y-88239388D01*
X150682550Y-88040123D01*
X150495717Y-87866768D01*
X150285134Y-87723195D01*
X150285130Y-87723193D01*
X150285127Y-87723191D01*
X150285126Y-87723190D01*
X150055506Y-87612612D01*
X150055508Y-87612612D01*
X149811966Y-87537489D01*
X149811962Y-87537488D01*
X149811958Y-87537487D01*
X149690731Y-87519214D01*
X149559940Y-87499500D01*
X149559935Y-87499500D01*
X149305065Y-87499500D01*
X149305059Y-87499500D01*
X149148109Y-87523157D01*
X149053042Y-87537487D01*
X149053039Y-87537488D01*
X149053033Y-87537489D01*
X148809492Y-87612612D01*
X148579873Y-87723190D01*
X148579872Y-87723191D01*
X148369282Y-87866768D01*
X148182452Y-88040121D01*
X148182450Y-88040123D01*
X148023541Y-88239388D01*
X147896108Y-88460109D01*
X147802992Y-88697362D01*
X147802990Y-88697369D01*
X147746277Y-88945845D01*
X147727232Y-89199995D01*
X142645304Y-89199995D01*
X142624063Y-89116118D01*
X142524173Y-88888393D01*
X142388166Y-88680217D01*
X142328710Y-88615631D01*
X142219744Y-88497262D01*
X142136991Y-88432852D01*
X142096179Y-88376143D01*
X142092504Y-88306370D01*
X142127136Y-88245687D01*
X142136985Y-88237151D01*
X142219744Y-88172738D01*
X142388164Y-87989785D01*
X142524173Y-87781607D01*
X142624063Y-87553881D01*
X142685108Y-87312821D01*
X142687504Y-87283908D01*
X142705643Y-87065005D01*
X142705643Y-87064994D01*
X142685109Y-86817187D01*
X142685107Y-86817175D01*
X142624063Y-86576118D01*
X142524173Y-86348393D01*
X142388166Y-86140217D01*
X142305419Y-86050330D01*
X142219744Y-85957262D01*
X142116253Y-85876712D01*
X142075442Y-85820003D01*
X142068655Y-85771176D01*
X142070056Y-85748609D01*
X141337575Y-85016128D01*
X141396853Y-85000245D01*
X141513147Y-84933102D01*
X141608102Y-84838147D01*
X141675245Y-84721853D01*
X141691127Y-84662575D01*
X142423434Y-85394882D01*
X142523731Y-85241369D01*
X142623587Y-85013717D01*
X142684612Y-84772738D01*
X142684614Y-84772729D01*
X142705141Y-84525005D01*
X142705141Y-84524994D01*
X142684614Y-84277270D01*
X142684612Y-84277261D01*
X142623587Y-84036282D01*
X142523731Y-83808630D01*
X142423434Y-83655116D01*
X141691127Y-84387423D01*
X141675245Y-84328147D01*
X141608102Y-84211853D01*
X141513147Y-84116898D01*
X141396853Y-84049755D01*
X141337575Y-84033872D01*
X142034627Y-83336819D01*
X142095950Y-83303334D01*
X142122308Y-83300500D01*
X166882057Y-83300500D01*
X166949096Y-83320185D01*
G37*
%TD.AperFunction*%
%TA.AperFunction,Conductor*%
G36*
X174942539Y-52020185D02*
G01*
X174988294Y-52072989D01*
X174999500Y-52124500D01*
X174999500Y-126875500D01*
X174979815Y-126942539D01*
X174927011Y-126988294D01*
X174875500Y-126999500D01*
X95124500Y-126999500D01*
X95057461Y-126979815D01*
X95011706Y-126927011D01*
X95000500Y-126875500D01*
X95000500Y-124858415D01*
X95020185Y-124791376D01*
X95072989Y-124745621D01*
X95142147Y-124735677D01*
X95205703Y-124764702D01*
X95242431Y-124820097D01*
X95263659Y-124885431D01*
X95263661Y-124885436D01*
X95392265Y-125158732D01*
X95392268Y-125158738D01*
X95554111Y-125413763D01*
X95746652Y-125646505D01*
X95966836Y-125853272D01*
X95966846Y-125853280D01*
X96211193Y-126030808D01*
X96211198Y-126030810D01*
X96211205Y-126030816D01*
X96475896Y-126176332D01*
X96475901Y-126176334D01*
X96475903Y-126176335D01*
X96475904Y-126176336D01*
X96756734Y-126287524D01*
X96756737Y-126287525D01*
X96854259Y-126312564D01*
X97049302Y-126362642D01*
X97196039Y-126381179D01*
X97348963Y-126400499D01*
X97348969Y-126400499D01*
X97348973Y-126400500D01*
X97348975Y-126400500D01*
X97651025Y-126400500D01*
X97651027Y-126400500D01*
X97651032Y-126400499D01*
X97651036Y-126400499D01*
X97730591Y-126390448D01*
X97950698Y-126362642D01*
X98243262Y-126287525D01*
X98291766Y-126268321D01*
X98524095Y-126176336D01*
X98524096Y-126176335D01*
X98524094Y-126176335D01*
X98524104Y-126176332D01*
X98788795Y-126030816D01*
X99033162Y-125853274D01*
X99253349Y-125646504D01*
X99445885Y-125413768D01*
X99607733Y-125158736D01*
X99736341Y-124885430D01*
X99829681Y-124598160D01*
X99886280Y-124301457D01*
X99905246Y-124000000D01*
X99904226Y-123983793D01*
X99886281Y-123698553D01*
X99886280Y-123698546D01*
X99886280Y-123698543D01*
X99829681Y-123401840D01*
X99736341Y-123114570D01*
X99607733Y-122841264D01*
X99534267Y-122725500D01*
X99445888Y-122586236D01*
X99414541Y-122548344D01*
X99253349Y-122353496D01*
X99033162Y-122146726D01*
X99033159Y-122146724D01*
X99033153Y-122146719D01*
X98788806Y-121969191D01*
X98788799Y-121969186D01*
X98788795Y-121969184D01*
X98524104Y-121823668D01*
X98524101Y-121823666D01*
X98524096Y-121823664D01*
X98524095Y-121823663D01*
X98243265Y-121712475D01*
X98243262Y-121712474D01*
X97950695Y-121637357D01*
X97651036Y-121599500D01*
X97651027Y-121599500D01*
X97348973Y-121599500D01*
X97348963Y-121599500D01*
X97049304Y-121637357D01*
X96756737Y-121712474D01*
X96756734Y-121712475D01*
X96475904Y-121823663D01*
X96475903Y-121823664D01*
X96211205Y-121969184D01*
X96211193Y-121969191D01*
X95966846Y-122146719D01*
X95966836Y-122146727D01*
X95746652Y-122353494D01*
X95554111Y-122586236D01*
X95392268Y-122841261D01*
X95392265Y-122841267D01*
X95263661Y-123114563D01*
X95263659Y-123114568D01*
X95242431Y-123179902D01*
X95202993Y-123237578D01*
X95138635Y-123264776D01*
X95069788Y-123252861D01*
X95018313Y-123205617D01*
X95000500Y-123141584D01*
X95000500Y-101499998D01*
X99994390Y-101499998D01*
X99994390Y-101500001D01*
X100014804Y-101785433D01*
X100075628Y-102065037D01*
X100075630Y-102065043D01*
X100075631Y-102065046D01*
X100165131Y-102305005D01*
X100175635Y-102333166D01*
X100312770Y-102584309D01*
X100312775Y-102584317D01*
X100484254Y-102813387D01*
X100484270Y-102813405D01*
X100686594Y-103015729D01*
X100686612Y-103015745D01*
X100915682Y-103187224D01*
X100915690Y-103187229D01*
X101166833Y-103324364D01*
X101166832Y-103324364D01*
X101166836Y-103324365D01*
X101166839Y-103324367D01*
X101434954Y-103424369D01*
X101434960Y-103424370D01*
X101434962Y-103424371D01*
X101714566Y-103485195D01*
X101714568Y-103485195D01*
X101714572Y-103485196D01*
X101968220Y-103503337D01*
X101999999Y-103505610D01*
X102000000Y-103505610D01*
X102000001Y-103505610D01*
X102028595Y-103503564D01*
X102285428Y-103485196D01*
X102322434Y-103477146D01*
X102565037Y-103424371D01*
X102565037Y-103424370D01*
X102565046Y-103424369D01*
X102833161Y-103324367D01*
X103084315Y-103187226D01*
X103313395Y-103015739D01*
X103515739Y-102813395D01*
X103687226Y-102584315D01*
X103824367Y-102333161D01*
X103924369Y-102065046D01*
X103985196Y-101785428D01*
X104005610Y-101500000D01*
X103985196Y-101214572D01*
X103981430Y-101197262D01*
X103924371Y-100934962D01*
X103924370Y-100934960D01*
X103924369Y-100934954D01*
X103824367Y-100666839D01*
X103760104Y-100549151D01*
X103687229Y-100415690D01*
X103687224Y-100415682D01*
X103515745Y-100186612D01*
X103515729Y-100186594D01*
X103313405Y-99984270D01*
X103313387Y-99984254D01*
X103084317Y-99812775D01*
X103084309Y-99812770D01*
X102833166Y-99675635D01*
X102833167Y-99675635D01*
X102725915Y-99635632D01*
X102565046Y-99575631D01*
X102565043Y-99575630D01*
X102565037Y-99575628D01*
X102285433Y-99514804D01*
X102000001Y-99494390D01*
X101999999Y-99494390D01*
X101714566Y-99514804D01*
X101434962Y-99575628D01*
X101166833Y-99675635D01*
X100915690Y-99812770D01*
X100915682Y-99812775D01*
X100686612Y-99984254D01*
X100686594Y-99984270D01*
X100484270Y-100186594D01*
X100484254Y-100186612D01*
X100312775Y-100415682D01*
X100312770Y-100415690D01*
X100175635Y-100666833D01*
X100075628Y-100934962D01*
X100014804Y-101214566D01*
X99994390Y-101499998D01*
X95000500Y-101499998D01*
X95000500Y-94872155D01*
X100000000Y-94872155D01*
X100000000Y-96170000D01*
X101280936Y-96170000D01*
X101269207Y-96198316D01*
X101240000Y-96345147D01*
X101240000Y-96494853D01*
X101269207Y-96641684D01*
X101280936Y-96670000D01*
X100000000Y-96670000D01*
X100000000Y-97967844D01*
X100006401Y-98027372D01*
X100006403Y-98027379D01*
X100056645Y-98162086D01*
X100056649Y-98162093D01*
X100142809Y-98277187D01*
X100142812Y-98277190D01*
X100257906Y-98363350D01*
X100257913Y-98363354D01*
X100392620Y-98413596D01*
X100392627Y-98413598D01*
X100452155Y-98419999D01*
X100452172Y-98420000D01*
X101750000Y-98420000D01*
X101750000Y-97139064D01*
X101778316Y-97150793D01*
X101925147Y-97180000D01*
X102074853Y-97180000D01*
X102221684Y-97150793D01*
X102250000Y-97139064D01*
X102250000Y-98420000D01*
X103547828Y-98420000D01*
X103547844Y-98419999D01*
X103607372Y-98413598D01*
X103607379Y-98413596D01*
X103742086Y-98363354D01*
X103742093Y-98363350D01*
X103857187Y-98277190D01*
X103857190Y-98277187D01*
X103943350Y-98162093D01*
X103943354Y-98162086D01*
X103993596Y-98027379D01*
X103993598Y-98027372D01*
X103999999Y-97967844D01*
X104000000Y-97967827D01*
X104000000Y-96670000D01*
X102719064Y-96670000D01*
X102730793Y-96641684D01*
X102760000Y-96494853D01*
X102760000Y-96345147D01*
X102730793Y-96198316D01*
X102719064Y-96170000D01*
X104000000Y-96170000D01*
X104000000Y-94872172D01*
X103999999Y-94872155D01*
X103993598Y-94812627D01*
X103993596Y-94812620D01*
X103943354Y-94677913D01*
X103943350Y-94677906D01*
X103857190Y-94562812D01*
X103857187Y-94562809D01*
X103742093Y-94476649D01*
X103742086Y-94476645D01*
X103607379Y-94426403D01*
X103607372Y-94426401D01*
X103547844Y-94420000D01*
X102250000Y-94420000D01*
X102250000Y-95700935D01*
X102221684Y-95689207D01*
X102074853Y-95660000D01*
X101925147Y-95660000D01*
X101778316Y-95689207D01*
X101750000Y-95700935D01*
X101750000Y-94420000D01*
X100452155Y-94420000D01*
X100392627Y-94426401D01*
X100392620Y-94426403D01*
X100257913Y-94476645D01*
X100257906Y-94476649D01*
X100142812Y-94562809D01*
X100142809Y-94562812D01*
X100056649Y-94677906D01*
X100056645Y-94677913D01*
X100006403Y-94812620D01*
X100006401Y-94812627D01*
X100000000Y-94872155D01*
X95000500Y-94872155D01*
X95000500Y-90792500D01*
X98084540Y-90792500D01*
X98104326Y-90980756D01*
X98104327Y-90980759D01*
X98162818Y-91160777D01*
X98162821Y-91160784D01*
X98257467Y-91324716D01*
X98353443Y-91431308D01*
X98384129Y-91465388D01*
X98537265Y-91576648D01*
X98537270Y-91576651D01*
X98710192Y-91653642D01*
X98710197Y-91653644D01*
X98895354Y-91693000D01*
X98895355Y-91693000D01*
X99084644Y-91693000D01*
X99084646Y-91693000D01*
X99269803Y-91653644D01*
X99442730Y-91576651D01*
X99447828Y-91572947D01*
X99456452Y-91566682D01*
X99522258Y-91543202D01*
X99529337Y-91543000D01*
X100194800Y-91543000D01*
X100261839Y-91562685D01*
X100303629Y-91607568D01*
X100312774Y-91624315D01*
X100312776Y-91624318D01*
X100312778Y-91624321D01*
X100484254Y-91853387D01*
X100484270Y-91853405D01*
X100686594Y-92055729D01*
X100686612Y-92055745D01*
X100915682Y-92227224D01*
X100915690Y-92227229D01*
X101166833Y-92364364D01*
X101166832Y-92364364D01*
X101166836Y-92364365D01*
X101166839Y-92364367D01*
X101434954Y-92464369D01*
X101434960Y-92464370D01*
X101434962Y-92464371D01*
X101714566Y-92525195D01*
X101714568Y-92525195D01*
X101714572Y-92525196D01*
X101968220Y-92543337D01*
X101999999Y-92545610D01*
X102000000Y-92545610D01*
X102000001Y-92545610D01*
X102020415Y-92544149D01*
X102285428Y-92525196D01*
X102328830Y-92515754D01*
X102398522Y-92520738D01*
X102442871Y-92549239D01*
X114300618Y-104406985D01*
X114334103Y-104468308D01*
X114333143Y-104525106D01*
X114314891Y-104597182D01*
X114294357Y-104844994D01*
X114294357Y-104845005D01*
X114314890Y-105092812D01*
X114314892Y-105092824D01*
X114375936Y-105333881D01*
X114475826Y-105561606D01*
X114611833Y-105769782D01*
X114611836Y-105769785D01*
X114780256Y-105952738D01*
X114863008Y-106017147D01*
X114903821Y-106073857D01*
X114907496Y-106143630D01*
X114872864Y-106204313D01*
X114863014Y-106212848D01*
X114804400Y-106258469D01*
X114780257Y-106277261D01*
X114611833Y-106460217D01*
X114475826Y-106668393D01*
X114375936Y-106896118D01*
X114314892Y-107137175D01*
X114314890Y-107137187D01*
X114294357Y-107384994D01*
X114294357Y-107385005D01*
X114314890Y-107632812D01*
X114314892Y-107632824D01*
X114375936Y-107873881D01*
X114475826Y-108101606D01*
X114611833Y-108309782D01*
X114611835Y-108309784D01*
X114611836Y-108309785D01*
X114780256Y-108492738D01*
X114863008Y-108557147D01*
X114903821Y-108613857D01*
X114907496Y-108683630D01*
X114872864Y-108744313D01*
X114863014Y-108752848D01*
X114804400Y-108798469D01*
X114780257Y-108817261D01*
X114611833Y-109000217D01*
X114475826Y-109208393D01*
X114375936Y-109436118D01*
X114314892Y-109677175D01*
X114314890Y-109677187D01*
X114294357Y-109924994D01*
X114294357Y-109925005D01*
X114314890Y-110172812D01*
X114314892Y-110172824D01*
X114366307Y-110375854D01*
X114375937Y-110413881D01*
X114395283Y-110457985D01*
X114475826Y-110641606D01*
X114611833Y-110849782D01*
X114611836Y-110849785D01*
X114780256Y-111032738D01*
X114863008Y-111097147D01*
X114903821Y-111153857D01*
X114907496Y-111223630D01*
X114872864Y-111284313D01*
X114863014Y-111292848D01*
X114804400Y-111338469D01*
X114780257Y-111357261D01*
X114611833Y-111540217D01*
X114475826Y-111748393D01*
X114375936Y-111976118D01*
X114314892Y-112217175D01*
X114314890Y-112217187D01*
X114294357Y-112464994D01*
X114294357Y-112465005D01*
X114314890Y-112712812D01*
X114314892Y-112712824D01*
X114375936Y-112953881D01*
X114475826Y-113181606D01*
X114611833Y-113389782D01*
X114611836Y-113389785D01*
X114780256Y-113572738D01*
X114863008Y-113637147D01*
X114903821Y-113693857D01*
X114907496Y-113763630D01*
X114872864Y-113824313D01*
X114863014Y-113832848D01*
X114804400Y-113878469D01*
X114780257Y-113897261D01*
X114611833Y-114080217D01*
X114475826Y-114288393D01*
X114375936Y-114516118D01*
X114314892Y-114757175D01*
X114314890Y-114757187D01*
X114294357Y-115004994D01*
X114294357Y-115005005D01*
X114314890Y-115252812D01*
X114314892Y-115252824D01*
X114375936Y-115493881D01*
X114475826Y-115721606D01*
X114611833Y-115929782D01*
X114611836Y-115929785D01*
X114780256Y-116112738D01*
X114863008Y-116177147D01*
X114903821Y-116233857D01*
X114907496Y-116303630D01*
X114872864Y-116364313D01*
X114863014Y-116372848D01*
X114834603Y-116394962D01*
X114780257Y-116437261D01*
X114611836Y-116620215D01*
X114534673Y-116738322D01*
X114481526Y-116783678D01*
X114430864Y-116794500D01*
X111180629Y-116794500D01*
X111113590Y-116774815D01*
X111092948Y-116758181D01*
X109436170Y-115101402D01*
X109405921Y-115052041D01*
X109350579Y-114881716D01*
X109255933Y-114717784D01*
X109129271Y-114577112D01*
X109129270Y-114577111D01*
X108976134Y-114465851D01*
X108976129Y-114465848D01*
X108803207Y-114388857D01*
X108803202Y-114388855D01*
X108657401Y-114357865D01*
X108618046Y-114349500D01*
X108428754Y-114349500D01*
X108396297Y-114356398D01*
X108243597Y-114388855D01*
X108243592Y-114388857D01*
X108070670Y-114465848D01*
X108070665Y-114465851D01*
X107917529Y-114577111D01*
X107790866Y-114717785D01*
X107696221Y-114881715D01*
X107696218Y-114881722D01*
X107640879Y-115052039D01*
X107637726Y-115061744D01*
X107617940Y-115250000D01*
X107637726Y-115438256D01*
X107637727Y-115438259D01*
X107696218Y-115618277D01*
X107696221Y-115618284D01*
X107790867Y-115782216D01*
X107875027Y-115875685D01*
X107917529Y-115922888D01*
X108070665Y-116034148D01*
X108070670Y-116034151D01*
X108243591Y-116111142D01*
X108243593Y-116111142D01*
X108243597Y-116111144D01*
X108308729Y-116124987D01*
X108370209Y-116158178D01*
X108370628Y-116158596D01*
X110235449Y-118023416D01*
X110296781Y-118084748D01*
X110339985Y-118127952D01*
X110462898Y-118210080D01*
X110462911Y-118210087D01*
X110563993Y-118251956D01*
X110599487Y-118266658D01*
X110599491Y-118266658D01*
X110599492Y-118266659D01*
X110744479Y-118295500D01*
X110744482Y-118295500D01*
X110744483Y-118295500D01*
X110892317Y-118295500D01*
X114430864Y-118295500D01*
X114497903Y-118315185D01*
X114534672Y-118351677D01*
X114611836Y-118469785D01*
X114780256Y-118652738D01*
X114976491Y-118805474D01*
X115195190Y-118923828D01*
X115430386Y-119004571D01*
X115675665Y-119045500D01*
X115715708Y-119045500D01*
X115782747Y-119065185D01*
X115828502Y-119117989D01*
X115838446Y-119187147D01*
X115809421Y-119250703D01*
X115750643Y-119288477D01*
X115747835Y-119289265D01*
X115690418Y-119304649D01*
X115656112Y-119313842D01*
X115444123Y-119401650D01*
X115444109Y-119401657D01*
X115245382Y-119516392D01*
X115063338Y-119656081D01*
X114901081Y-119818338D01*
X114761392Y-120000382D01*
X114646657Y-120199109D01*
X114646650Y-120199123D01*
X114558842Y-120411112D01*
X114499453Y-120632759D01*
X114499451Y-120632770D01*
X114469500Y-120860258D01*
X114469500Y-121089741D01*
X114494446Y-121279215D01*
X114499452Y-121317238D01*
X114499453Y-121317240D01*
X114558842Y-121538887D01*
X114646650Y-121750876D01*
X114646657Y-121750890D01*
X114761392Y-121949617D01*
X114901081Y-122131661D01*
X114901089Y-122131670D01*
X115063330Y-122293911D01*
X115063338Y-122293918D01*
X115245382Y-122433607D01*
X115245385Y-122433608D01*
X115245388Y-122433611D01*
X115444112Y-122548344D01*
X115444117Y-122548346D01*
X115444123Y-122548349D01*
X115535480Y-122586190D01*
X115656113Y-122636158D01*
X115877762Y-122695548D01*
X116094312Y-122724057D01*
X116104893Y-122725451D01*
X116105266Y-122725500D01*
X116105273Y-122725500D01*
X116334727Y-122725500D01*
X116334734Y-122725500D01*
X116562238Y-122695548D01*
X116783887Y-122636158D01*
X116995888Y-122548344D01*
X117194612Y-122433611D01*
X117376661Y-122293919D01*
X117376665Y-122293914D01*
X117376670Y-122293911D01*
X117537819Y-122132762D01*
X117599142Y-122099277D01*
X117668834Y-122104261D01*
X117724767Y-122146133D01*
X117749184Y-122211597D01*
X117749500Y-122220443D01*
X117749500Y-122637770D01*
X117729815Y-122704809D01*
X117713181Y-122725451D01*
X116725451Y-123713181D01*
X116664128Y-123746666D01*
X116637770Y-123749500D01*
X109251130Y-123749500D01*
X109184091Y-123729815D01*
X109163449Y-123713181D01*
X104170570Y-118720302D01*
X104140321Y-118670941D01*
X104084979Y-118500616D01*
X103990333Y-118336684D01*
X103863671Y-118196012D01*
X103863670Y-118196011D01*
X103710534Y-118084751D01*
X103710529Y-118084748D01*
X103537607Y-118007757D01*
X103537602Y-118007755D01*
X103391801Y-117976765D01*
X103352446Y-117968400D01*
X103163154Y-117968400D01*
X103130697Y-117975298D01*
X102977997Y-118007755D01*
X102977992Y-118007757D01*
X102805070Y-118084748D01*
X102805065Y-118084751D01*
X102651929Y-118196011D01*
X102525266Y-118336685D01*
X102430621Y-118500615D01*
X102430618Y-118500622D01*
X102382984Y-118647226D01*
X102372126Y-118680644D01*
X102352340Y-118868900D01*
X102372126Y-119057156D01*
X102372127Y-119057159D01*
X102430618Y-119237177D01*
X102430621Y-119237184D01*
X102525267Y-119401116D01*
X102629060Y-119516389D01*
X102651929Y-119541788D01*
X102805065Y-119653048D01*
X102805070Y-119653051D01*
X102977991Y-119730042D01*
X102977993Y-119730042D01*
X102977997Y-119730044D01*
X103043129Y-119743887D01*
X103104609Y-119777078D01*
X103105028Y-119777496D01*
X108410486Y-125082954D01*
X108439958Y-125102645D01*
X108484170Y-125132186D01*
X108533405Y-125165084D01*
X108533406Y-125165084D01*
X108533407Y-125165085D01*
X108533409Y-125165086D01*
X108669982Y-125221656D01*
X108669987Y-125221658D01*
X108669991Y-125221658D01*
X108669992Y-125221659D01*
X108814979Y-125250500D01*
X108814982Y-125250500D01*
X117073920Y-125250500D01*
X117171462Y-125231096D01*
X117218913Y-125221658D01*
X117355495Y-125165084D01*
X117404729Y-125132186D01*
X117404734Y-125132183D01*
X117429071Y-125115921D01*
X117478416Y-125082952D01*
X118561373Y-123999994D01*
X146094754Y-123999994D01*
X146094754Y-124000005D01*
X146113718Y-124301446D01*
X146113719Y-124301453D01*
X146170320Y-124598164D01*
X146263659Y-124885431D01*
X146263661Y-124885436D01*
X146392265Y-125158732D01*
X146392268Y-125158738D01*
X146554111Y-125413763D01*
X146746652Y-125646505D01*
X146966836Y-125853272D01*
X146966846Y-125853280D01*
X147211193Y-126030808D01*
X147211198Y-126030810D01*
X147211205Y-126030816D01*
X147475896Y-126176332D01*
X147475901Y-126176334D01*
X147475903Y-126176335D01*
X147475904Y-126176336D01*
X147756734Y-126287524D01*
X147756737Y-126287525D01*
X147854259Y-126312564D01*
X148049302Y-126362642D01*
X148196039Y-126381179D01*
X148348963Y-126400499D01*
X148348969Y-126400499D01*
X148348973Y-126400500D01*
X148348975Y-126400500D01*
X148651025Y-126400500D01*
X148651027Y-126400500D01*
X148651032Y-126400499D01*
X148651036Y-126400499D01*
X148730591Y-126390448D01*
X148950698Y-126362642D01*
X149243262Y-126287525D01*
X149291766Y-126268321D01*
X149524095Y-126176336D01*
X149524096Y-126176335D01*
X149524094Y-126176335D01*
X149524104Y-126176332D01*
X149788795Y-126030816D01*
X150033162Y-125853274D01*
X150253349Y-125646504D01*
X150445885Y-125413768D01*
X150607733Y-125158736D01*
X150736341Y-124885430D01*
X150829681Y-124598160D01*
X150886280Y-124301457D01*
X150905246Y-124000000D01*
X150904226Y-123983793D01*
X150886281Y-123698553D01*
X150886280Y-123698546D01*
X150886280Y-123698543D01*
X150829681Y-123401840D01*
X150736341Y-123114570D01*
X150607733Y-122841264D01*
X150534267Y-122725500D01*
X150445888Y-122586236D01*
X150414541Y-122548344D01*
X150253349Y-122353496D01*
X150033162Y-122146726D01*
X150033159Y-122146724D01*
X150033153Y-122146719D01*
X149788806Y-121969191D01*
X149788799Y-121969186D01*
X149788795Y-121969184D01*
X149524104Y-121823668D01*
X149524101Y-121823666D01*
X149524096Y-121823664D01*
X149524095Y-121823663D01*
X149243265Y-121712475D01*
X149243262Y-121712474D01*
X148950695Y-121637357D01*
X148651036Y-121599500D01*
X148651027Y-121599500D01*
X148348973Y-121599500D01*
X148348963Y-121599500D01*
X148049304Y-121637357D01*
X147756737Y-121712474D01*
X147756734Y-121712475D01*
X147475904Y-121823663D01*
X147475903Y-121823664D01*
X147211205Y-121969184D01*
X147211193Y-121969191D01*
X146966846Y-122146719D01*
X146966836Y-122146727D01*
X146746652Y-122353494D01*
X146554111Y-122586236D01*
X146392268Y-122841261D01*
X146392265Y-122841267D01*
X146263661Y-123114563D01*
X146263659Y-123114568D01*
X146170320Y-123401835D01*
X146113719Y-123698546D01*
X146113718Y-123698553D01*
X146094754Y-123999994D01*
X118561373Y-123999994D01*
X119082951Y-123478416D01*
X119165084Y-123355495D01*
X119221658Y-123218913D01*
X119250500Y-123073918D01*
X119250500Y-122975000D01*
X119590000Y-122975000D01*
X137280000Y-122975000D01*
X137280000Y-116485000D01*
X119590000Y-116485000D01*
X119590000Y-122975000D01*
X119250500Y-122975000D01*
X119250500Y-122926083D01*
X119250500Y-116362229D01*
X119270185Y-116295190D01*
X119286819Y-116274548D01*
X119722348Y-115839019D01*
X119783671Y-115805534D01*
X119810029Y-115802700D01*
X132042463Y-115802700D01*
X132109502Y-115822385D01*
X132115348Y-115826382D01*
X132129065Y-115836348D01*
X132129070Y-115836351D01*
X132301992Y-115913342D01*
X132301997Y-115913344D01*
X132487154Y-115952700D01*
X132487155Y-115952700D01*
X132676444Y-115952700D01*
X132676446Y-115952700D01*
X132861603Y-115913344D01*
X133034530Y-115836351D01*
X133187671Y-115725088D01*
X133314333Y-115584416D01*
X133408979Y-115420484D01*
X133467474Y-115240456D01*
X133487260Y-115052200D01*
X133467474Y-114863944D01*
X133408979Y-114683916D01*
X133314333Y-114519984D01*
X133187671Y-114379312D01*
X133162252Y-114360844D01*
X133034534Y-114268051D01*
X133034529Y-114268048D01*
X132861607Y-114191057D01*
X132861602Y-114191055D01*
X132715801Y-114160065D01*
X132676446Y-114151700D01*
X132487154Y-114151700D01*
X132454697Y-114158598D01*
X132301997Y-114191055D01*
X132301992Y-114191057D01*
X132129070Y-114268048D01*
X132129065Y-114268051D01*
X132115348Y-114278018D01*
X132049542Y-114301498D01*
X132042463Y-114301700D01*
X119373876Y-114301700D01*
X119345042Y-114307434D01*
X119345043Y-114307435D01*
X119228893Y-114330539D01*
X119228889Y-114330540D01*
X119155731Y-114360844D01*
X119092306Y-114387115D01*
X119010172Y-114441995D01*
X118969385Y-114469247D01*
X118969381Y-114469250D01*
X117917048Y-115521583D01*
X117898161Y-115549850D01*
X117879400Y-115577930D01*
X117834919Y-115644499D01*
X117834912Y-115644511D01*
X117778343Y-115781082D01*
X117778340Y-115781092D01*
X117749500Y-115926079D01*
X117749500Y-119729557D01*
X117729815Y-119796596D01*
X117677011Y-119842351D01*
X117607853Y-119852295D01*
X117544297Y-119823270D01*
X117537819Y-119817238D01*
X117376670Y-119656089D01*
X117376661Y-119656081D01*
X117194617Y-119516392D01*
X116995890Y-119401657D01*
X116995876Y-119401650D01*
X116783887Y-119313842D01*
X116562238Y-119254452D01*
X116524215Y-119249446D01*
X116334741Y-119224500D01*
X116334734Y-119224500D01*
X116272075Y-119224500D01*
X116205036Y-119204815D01*
X116159281Y-119152011D01*
X116149337Y-119082853D01*
X116178362Y-119019297D01*
X116231812Y-118983219D01*
X116310976Y-118956040D01*
X116404810Y-118923828D01*
X116623509Y-118805474D01*
X116819744Y-118652738D01*
X116988164Y-118469785D01*
X117124173Y-118261607D01*
X117224063Y-118033881D01*
X117285108Y-117792821D01*
X117290298Y-117730185D01*
X117305643Y-117545005D01*
X117305643Y-117544994D01*
X117285109Y-117297187D01*
X117285107Y-117297175D01*
X117224063Y-117056118D01*
X117124173Y-116828393D01*
X116988166Y-116620217D01*
X116966557Y-116596744D01*
X116819744Y-116437262D01*
X116736991Y-116372852D01*
X116696179Y-116316143D01*
X116692504Y-116246370D01*
X116727136Y-116185687D01*
X116736985Y-116177151D01*
X116819744Y-116112738D01*
X116988164Y-115929785D01*
X117124173Y-115721607D01*
X117224063Y-115493881D01*
X117285108Y-115252821D01*
X117285342Y-115250000D01*
X117305643Y-115005005D01*
X117305643Y-115004994D01*
X117285109Y-114757187D01*
X117285107Y-114757175D01*
X117224063Y-114516118D01*
X117124173Y-114288393D01*
X116988166Y-114080217D01*
X116966557Y-114056744D01*
X116819744Y-113897262D01*
X116736991Y-113832852D01*
X116696179Y-113776143D01*
X116692504Y-113706370D01*
X116727136Y-113645687D01*
X116736985Y-113637151D01*
X116819744Y-113572738D01*
X116988164Y-113389785D01*
X117124173Y-113181607D01*
X117224063Y-112953881D01*
X117285108Y-112712821D01*
X117305643Y-112465000D01*
X117285108Y-112217179D01*
X117224063Y-111976119D01*
X117124173Y-111748393D01*
X116988166Y-111540217D01*
X116966557Y-111516744D01*
X116819744Y-111357262D01*
X116736991Y-111292852D01*
X116696179Y-111236143D01*
X116692504Y-111166370D01*
X116727136Y-111105687D01*
X116736985Y-111097151D01*
X116819744Y-111032738D01*
X116988164Y-110849785D01*
X117124173Y-110641607D01*
X117224063Y-110413881D01*
X117246542Y-110325116D01*
X117285107Y-110172824D01*
X117285108Y-110172821D01*
X117285109Y-110172812D01*
X117305643Y-109925005D01*
X117305643Y-109924994D01*
X117285109Y-109677187D01*
X117285107Y-109677175D01*
X117224063Y-109436118D01*
X117124173Y-109208393D01*
X116988166Y-109000217D01*
X116888913Y-108892400D01*
X116819744Y-108817262D01*
X116736991Y-108752852D01*
X116696179Y-108696143D01*
X116692504Y-108626370D01*
X116727136Y-108565687D01*
X116736985Y-108557151D01*
X116819744Y-108492738D01*
X116988164Y-108309785D01*
X117124173Y-108101607D01*
X117224063Y-107873881D01*
X117285108Y-107632821D01*
X117305643Y-107385000D01*
X117285108Y-107137179D01*
X117224063Y-106896119D01*
X117182801Y-106802052D01*
X117124173Y-106668393D01*
X116988166Y-106460217D01*
X116966557Y-106436744D01*
X116819744Y-106277262D01*
X116736991Y-106212852D01*
X116696179Y-106156143D01*
X116692504Y-106086370D01*
X116727136Y-106025687D01*
X116736985Y-106017151D01*
X116819744Y-105952738D01*
X116988164Y-105769785D01*
X117124173Y-105561607D01*
X117224063Y-105333881D01*
X117285108Y-105092821D01*
X117305643Y-104845000D01*
X117285108Y-104597179D01*
X117224063Y-104356119D01*
X117124173Y-104128393D01*
X116988166Y-103920217D01*
X116966557Y-103896744D01*
X116819744Y-103737262D01*
X116736991Y-103672852D01*
X116696179Y-103616143D01*
X116692504Y-103546370D01*
X116727136Y-103485687D01*
X116736985Y-103477151D01*
X116819744Y-103412738D01*
X116988164Y-103229785D01*
X117124173Y-103021607D01*
X117224063Y-102793881D01*
X117285108Y-102552821D01*
X117305643Y-102305000D01*
X117303576Y-102280056D01*
X117285109Y-102057187D01*
X117285107Y-102057175D01*
X117224063Y-101816118D01*
X117124173Y-101588393D01*
X116988166Y-101380217D01*
X116966557Y-101356744D01*
X116819744Y-101197262D01*
X116736991Y-101132852D01*
X116696179Y-101076143D01*
X116692504Y-101006370D01*
X116727136Y-100945687D01*
X116736985Y-100937151D01*
X116819744Y-100872738D01*
X116988164Y-100689785D01*
X117124173Y-100481607D01*
X117224063Y-100253881D01*
X117285108Y-100012821D01*
X117287475Y-99984254D01*
X117305643Y-99765005D01*
X117305643Y-99765000D01*
X129594540Y-99765000D01*
X129614326Y-99953256D01*
X129614327Y-99953259D01*
X129672818Y-100133277D01*
X129672821Y-100133284D01*
X129767467Y-100297216D01*
X129874135Y-100415682D01*
X129894129Y-100437888D01*
X130047265Y-100549148D01*
X130047270Y-100549151D01*
X130220192Y-100626142D01*
X130220197Y-100626144D01*
X130405354Y-100665500D01*
X130405355Y-100665500D01*
X130594644Y-100665500D01*
X130594646Y-100665500D01*
X130779803Y-100626144D01*
X130952730Y-100549151D01*
X130954776Y-100547664D01*
X130966452Y-100539182D01*
X131032258Y-100515702D01*
X131039337Y-100515500D01*
X139830864Y-100515500D01*
X139897903Y-100535185D01*
X139934672Y-100571677D01*
X140011836Y-100689785D01*
X140180256Y-100872738D01*
X140263008Y-100937147D01*
X140303821Y-100993857D01*
X140307496Y-101063630D01*
X140272864Y-101124313D01*
X140263014Y-101132848D01*
X140204400Y-101178469D01*
X140180257Y-101197261D01*
X140011833Y-101380217D01*
X139875826Y-101588393D01*
X139775936Y-101816118D01*
X139714892Y-102057175D01*
X139714890Y-102057187D01*
X139694357Y-102304994D01*
X139694357Y-102305005D01*
X139714890Y-102552812D01*
X139714892Y-102552824D01*
X139775936Y-102793881D01*
X139875826Y-103021606D01*
X140011833Y-103229782D01*
X140011836Y-103229785D01*
X140180256Y-103412738D01*
X140263008Y-103477147D01*
X140303821Y-103533857D01*
X140307496Y-103603630D01*
X140272864Y-103664313D01*
X140263014Y-103672848D01*
X140204400Y-103718469D01*
X140180257Y-103737261D01*
X140011833Y-103920217D01*
X139875826Y-104128393D01*
X139775936Y-104356118D01*
X139714892Y-104597175D01*
X139714890Y-104597187D01*
X139694357Y-104844994D01*
X139694357Y-104845005D01*
X139714890Y-105092812D01*
X139714892Y-105092824D01*
X139775936Y-105333881D01*
X139875826Y-105561606D01*
X140011833Y-105769782D01*
X140011836Y-105769785D01*
X140180256Y-105952738D01*
X140263008Y-106017147D01*
X140303821Y-106073857D01*
X140307496Y-106143630D01*
X140272864Y-106204313D01*
X140263014Y-106212848D01*
X140204400Y-106258469D01*
X140180257Y-106277261D01*
X140011833Y-106460217D01*
X139875826Y-106668393D01*
X139775936Y-106896118D01*
X139714892Y-107137175D01*
X139714890Y-107137187D01*
X139694357Y-107384994D01*
X139694357Y-107385005D01*
X139714890Y-107632812D01*
X139714892Y-107632824D01*
X139775936Y-107873881D01*
X139875826Y-108101606D01*
X140011833Y-108309782D01*
X140011835Y-108309784D01*
X140011836Y-108309785D01*
X140180256Y-108492738D01*
X140263008Y-108557147D01*
X140303821Y-108613857D01*
X140307496Y-108683630D01*
X140272864Y-108744313D01*
X140263014Y-108752848D01*
X140204400Y-108798469D01*
X140180257Y-108817261D01*
X140011833Y-109000217D01*
X139875826Y-109208393D01*
X139775936Y-109436118D01*
X139714892Y-109677175D01*
X139714890Y-109677187D01*
X139694357Y-109924994D01*
X139694357Y-109925005D01*
X139714890Y-110172812D01*
X139714892Y-110172824D01*
X139766307Y-110375854D01*
X139775937Y-110413881D01*
X139795283Y-110457985D01*
X139875826Y-110641606D01*
X140011833Y-110849782D01*
X140011836Y-110849785D01*
X140180256Y-111032738D01*
X140263008Y-111097147D01*
X140303821Y-111153857D01*
X140307496Y-111223630D01*
X140272864Y-111284313D01*
X140263014Y-111292848D01*
X140204400Y-111338469D01*
X140180257Y-111357261D01*
X140011833Y-111540217D01*
X139875826Y-111748393D01*
X139775936Y-111976118D01*
X139714892Y-112217175D01*
X139714890Y-112217187D01*
X139694357Y-112464994D01*
X139694357Y-112465005D01*
X139714890Y-112712812D01*
X139714892Y-112712824D01*
X139775936Y-112953881D01*
X139875826Y-113181606D01*
X140011833Y-113389782D01*
X140011836Y-113389785D01*
X140180256Y-113572738D01*
X140263008Y-113637147D01*
X140303821Y-113693857D01*
X140307496Y-113763630D01*
X140272864Y-113824313D01*
X140263014Y-113832848D01*
X140204400Y-113878469D01*
X140180257Y-113897261D01*
X140011833Y-114080217D01*
X139875826Y-114288393D01*
X139775936Y-114516118D01*
X139714892Y-114757175D01*
X139714890Y-114757187D01*
X139694357Y-115004994D01*
X139694357Y-115005005D01*
X139714890Y-115252812D01*
X139714892Y-115252824D01*
X139775936Y-115493881D01*
X139875826Y-115721606D01*
X140011833Y-115929782D01*
X140011836Y-115929785D01*
X140180256Y-116112738D01*
X140263008Y-116177147D01*
X140303821Y-116233857D01*
X140307496Y-116303630D01*
X140272864Y-116364313D01*
X140263014Y-116372848D01*
X140234603Y-116394962D01*
X140180257Y-116437261D01*
X140011833Y-116620217D01*
X139875826Y-116828393D01*
X139775936Y-117056118D01*
X139714892Y-117297175D01*
X139714890Y-117297187D01*
X139694357Y-117544994D01*
X139694357Y-117545005D01*
X139714890Y-117792812D01*
X139714892Y-117792824D01*
X139775936Y-118033881D01*
X139875826Y-118261606D01*
X140011833Y-118469782D01*
X140040223Y-118500622D01*
X140180256Y-118652738D01*
X140376491Y-118805474D01*
X140595190Y-118923828D01*
X140657430Y-118945195D01*
X140768188Y-118983219D01*
X140825203Y-119023605D01*
X140851334Y-119088404D01*
X140838282Y-119157044D01*
X140790194Y-119207732D01*
X140727925Y-119224500D01*
X140615258Y-119224500D01*
X140399474Y-119252910D01*
X140387762Y-119254452D01*
X140294076Y-119279554D01*
X140166112Y-119313842D01*
X139954123Y-119401650D01*
X139954109Y-119401657D01*
X139755382Y-119516392D01*
X139573338Y-119656081D01*
X139411081Y-119818338D01*
X139271392Y-120000382D01*
X139156657Y-120199109D01*
X139156650Y-120199123D01*
X139068842Y-120411112D01*
X139009453Y-120632759D01*
X139009451Y-120632770D01*
X138979500Y-120860258D01*
X138979500Y-121089741D01*
X139004446Y-121279215D01*
X139009452Y-121317238D01*
X139009453Y-121317240D01*
X139068842Y-121538887D01*
X139156650Y-121750876D01*
X139156657Y-121750890D01*
X139271392Y-121949617D01*
X139411081Y-122131661D01*
X139411089Y-122131670D01*
X139573330Y-122293911D01*
X139573338Y-122293918D01*
X139755382Y-122433607D01*
X139755385Y-122433608D01*
X139755388Y-122433611D01*
X139954112Y-122548344D01*
X139954117Y-122548346D01*
X139954123Y-122548349D01*
X140045480Y-122586190D01*
X140166113Y-122636158D01*
X140387762Y-122695548D01*
X140604312Y-122724057D01*
X140614893Y-122725451D01*
X140615266Y-122725500D01*
X140615273Y-122725500D01*
X140844727Y-122725500D01*
X140844734Y-122725500D01*
X141072238Y-122695548D01*
X141293887Y-122636158D01*
X141505888Y-122548344D01*
X141704612Y-122433611D01*
X141886661Y-122293919D01*
X141886665Y-122293914D01*
X141886670Y-122293911D01*
X142048911Y-122131670D01*
X142048914Y-122131665D01*
X142048919Y-122131661D01*
X142188611Y-121949612D01*
X142303344Y-121750888D01*
X142391158Y-121538887D01*
X142450548Y-121317238D01*
X142480500Y-121089734D01*
X142480500Y-120860266D01*
X142450548Y-120632762D01*
X142412868Y-120492135D01*
X166499500Y-120492135D01*
X166499500Y-123587870D01*
X166499501Y-123587876D01*
X166505908Y-123647483D01*
X166556202Y-123782328D01*
X166556206Y-123782335D01*
X166642452Y-123897544D01*
X166642455Y-123897547D01*
X166757664Y-123983793D01*
X166757671Y-123983797D01*
X166892517Y-124034091D01*
X166892516Y-124034091D01*
X166899444Y-124034835D01*
X166952127Y-124040500D01*
X170047872Y-124040499D01*
X170107483Y-124034091D01*
X170242331Y-123983796D01*
X170357546Y-123897546D01*
X170443796Y-123782331D01*
X170494091Y-123647483D01*
X170500500Y-123587873D01*
X170500499Y-120492128D01*
X170494091Y-120432517D01*
X170486107Y-120411112D01*
X170443797Y-120297671D01*
X170443793Y-120297664D01*
X170357547Y-120182455D01*
X170357544Y-120182452D01*
X170242335Y-120096206D01*
X170242328Y-120096202D01*
X170107482Y-120045908D01*
X170107483Y-120045908D01*
X170047883Y-120039501D01*
X170047881Y-120039500D01*
X170047873Y-120039500D01*
X170047864Y-120039500D01*
X166952129Y-120039500D01*
X166952123Y-120039501D01*
X166892516Y-120045908D01*
X166757671Y-120096202D01*
X166757664Y-120096206D01*
X166642455Y-120182452D01*
X166642452Y-120182455D01*
X166556206Y-120297664D01*
X166556202Y-120297671D01*
X166505908Y-120432517D01*
X166499501Y-120492116D01*
X166499501Y-120492123D01*
X166499500Y-120492135D01*
X142412868Y-120492135D01*
X142391158Y-120411113D01*
X142303344Y-120199112D01*
X142188611Y-120000388D01*
X142188608Y-120000385D01*
X142188607Y-120000382D01*
X142087764Y-119868962D01*
X142048919Y-119818339D01*
X142048918Y-119818338D01*
X142048911Y-119818330D01*
X141886670Y-119656089D01*
X141886661Y-119656081D01*
X141704617Y-119516392D01*
X141505890Y-119401657D01*
X141505876Y-119401650D01*
X141293887Y-119313842D01*
X141202197Y-119289274D01*
X141142538Y-119252910D01*
X141112009Y-119190063D01*
X141120304Y-119120688D01*
X141164789Y-119066810D01*
X141231341Y-119045535D01*
X141234292Y-119045500D01*
X141324335Y-119045500D01*
X141569614Y-119004571D01*
X141804810Y-118923828D01*
X142023509Y-118805474D01*
X142219744Y-118652738D01*
X142388164Y-118469785D01*
X142524173Y-118261607D01*
X142610983Y-118063700D01*
X157094540Y-118063700D01*
X157114326Y-118251956D01*
X157114327Y-118251959D01*
X157172818Y-118431977D01*
X157172821Y-118431984D01*
X157267467Y-118595916D01*
X157343753Y-118680640D01*
X157394129Y-118736588D01*
X157547265Y-118847848D01*
X157547270Y-118847851D01*
X157720192Y-118924842D01*
X157720197Y-118924844D01*
X157905354Y-118964200D01*
X157905355Y-118964200D01*
X158094644Y-118964200D01*
X158094646Y-118964200D01*
X158279803Y-118924844D01*
X158452730Y-118847851D01*
X158454776Y-118846364D01*
X158466452Y-118837882D01*
X158532258Y-118814402D01*
X158539337Y-118814200D01*
X159047320Y-118814200D01*
X159144862Y-118794796D01*
X159192313Y-118785358D01*
X159328895Y-118728784D01*
X159400942Y-118680644D01*
X159451816Y-118646652D01*
X160351648Y-117746818D01*
X160412971Y-117713334D01*
X160439329Y-117710500D01*
X166558707Y-117710500D01*
X166625746Y-117730185D01*
X166671501Y-117782989D01*
X166674886Y-117791160D01*
X166675630Y-117793154D01*
X166675635Y-117793166D01*
X166812770Y-118044309D01*
X166812775Y-118044317D01*
X166984254Y-118273387D01*
X166984270Y-118273405D01*
X167186594Y-118475729D01*
X167186612Y-118475745D01*
X167415682Y-118647224D01*
X167415690Y-118647229D01*
X167666833Y-118784364D01*
X167666832Y-118784364D01*
X167666836Y-118784365D01*
X167666839Y-118784367D01*
X167934954Y-118884369D01*
X167934960Y-118884370D01*
X167934962Y-118884371D01*
X168214566Y-118945195D01*
X168214568Y-118945195D01*
X168214572Y-118945196D01*
X168468220Y-118963337D01*
X168499999Y-118965610D01*
X168500000Y-118965610D01*
X168500001Y-118965610D01*
X168528595Y-118963564D01*
X168785428Y-118945196D01*
X168883647Y-118923830D01*
X169065037Y-118884371D01*
X169065037Y-118884370D01*
X169065046Y-118884369D01*
X169333161Y-118784367D01*
X169584315Y-118647226D01*
X169813395Y-118475739D01*
X170015739Y-118273395D01*
X170187226Y-118044315D01*
X170324367Y-117793161D01*
X170424369Y-117525046D01*
X170477773Y-117279551D01*
X170485195Y-117245433D01*
X170485195Y-117245432D01*
X170485196Y-117245428D01*
X170505610Y-116960000D01*
X170485196Y-116674572D01*
X170473371Y-116620215D01*
X170424371Y-116394962D01*
X170424370Y-116394960D01*
X170424369Y-116394954D01*
X170324367Y-116126839D01*
X170316667Y-116112738D01*
X170187229Y-115875690D01*
X170187224Y-115875682D01*
X170015745Y-115646612D01*
X170015729Y-115646594D01*
X169813405Y-115444270D01*
X169813387Y-115444254D01*
X169584317Y-115272775D01*
X169584309Y-115272770D01*
X169333166Y-115135635D01*
X169333167Y-115135635D01*
X169135057Y-115061744D01*
X169065046Y-115035631D01*
X169065043Y-115035630D01*
X169065037Y-115035628D01*
X168785433Y-114974804D01*
X168500001Y-114954390D01*
X168499999Y-114954390D01*
X168214566Y-114974804D01*
X167934962Y-115035628D01*
X167666833Y-115135635D01*
X167415690Y-115272770D01*
X167415682Y-115272775D01*
X167186612Y-115444254D01*
X167186594Y-115444270D01*
X166984270Y-115646594D01*
X166984254Y-115646612D01*
X166812775Y-115875682D01*
X166812770Y-115875690D01*
X166675635Y-116126833D01*
X166675630Y-116126845D01*
X166674886Y-116128840D01*
X166674458Y-116129410D01*
X166673796Y-116130862D01*
X166673480Y-116130717D01*
X166633012Y-116184771D01*
X166567546Y-116209185D01*
X166558707Y-116209500D01*
X160003176Y-116209500D01*
X159974342Y-116215234D01*
X159974343Y-116215235D01*
X159858193Y-116238339D01*
X159858189Y-116238340D01*
X159792684Y-116265474D01*
X159721606Y-116294915D01*
X159639472Y-116349795D01*
X159598685Y-116377047D01*
X159598681Y-116377050D01*
X158698851Y-117276881D01*
X158637528Y-117310366D01*
X158611170Y-117313200D01*
X158539337Y-117313200D01*
X158472298Y-117293515D01*
X158466452Y-117289518D01*
X158452734Y-117279551D01*
X158452729Y-117279548D01*
X158279807Y-117202557D01*
X158279802Y-117202555D01*
X158134001Y-117171565D01*
X158094646Y-117163200D01*
X157905354Y-117163200D01*
X157872897Y-117170098D01*
X157720197Y-117202555D01*
X157720192Y-117202557D01*
X157547270Y-117279548D01*
X157547265Y-117279551D01*
X157394129Y-117390811D01*
X157267466Y-117531485D01*
X157172821Y-117695415D01*
X157172818Y-117695422D01*
X157114327Y-117875440D01*
X157114326Y-117875444D01*
X157094540Y-118063700D01*
X142610983Y-118063700D01*
X142624063Y-118033881D01*
X142685108Y-117792821D01*
X142690298Y-117730185D01*
X142705643Y-117545005D01*
X142705643Y-117544994D01*
X142685109Y-117297187D01*
X142685107Y-117297175D01*
X142624063Y-117056118D01*
X142524173Y-116828393D01*
X142388166Y-116620217D01*
X142366557Y-116596744D01*
X142219744Y-116437262D01*
X142136991Y-116372852D01*
X142096179Y-116316143D01*
X142092504Y-116246370D01*
X142127136Y-116185687D01*
X142136985Y-116177151D01*
X142219744Y-116112738D01*
X142388164Y-115929785D01*
X142524173Y-115721607D01*
X142624063Y-115493881D01*
X142685108Y-115252821D01*
X142685342Y-115250000D01*
X142705643Y-115005005D01*
X142705643Y-115004994D01*
X142685109Y-114757187D01*
X142685107Y-114757175D01*
X142624063Y-114516118D01*
X142524173Y-114288393D01*
X142388166Y-114080217D01*
X142366557Y-114056744D01*
X142219744Y-113897262D01*
X142136991Y-113832852D01*
X142096179Y-113776143D01*
X142092504Y-113706370D01*
X142127136Y-113645687D01*
X142136985Y-113637151D01*
X142219744Y-113572738D01*
X142388164Y-113389785D01*
X142524173Y-113181607D01*
X142624063Y-112953881D01*
X142685108Y-112712821D01*
X142705643Y-112465000D01*
X142685108Y-112217179D01*
X142624063Y-111976119D01*
X142524173Y-111748393D01*
X142388166Y-111540217D01*
X142366557Y-111516744D01*
X142219744Y-111357262D01*
X142136991Y-111292852D01*
X142096179Y-111236143D01*
X142092504Y-111166370D01*
X142127136Y-111105687D01*
X142136985Y-111097151D01*
X142219744Y-111032738D01*
X142388164Y-110849785D01*
X142524173Y-110641607D01*
X142624063Y-110413881D01*
X142646542Y-110325116D01*
X142685107Y-110172824D01*
X142685108Y-110172821D01*
X142685109Y-110172812D01*
X142705643Y-109925005D01*
X142705643Y-109924994D01*
X142685109Y-109677187D01*
X142685107Y-109677175D01*
X142624063Y-109436118D01*
X142524173Y-109208393D01*
X142388166Y-109000217D01*
X142288913Y-108892400D01*
X142219744Y-108817262D01*
X142136991Y-108752852D01*
X142096179Y-108696143D01*
X142092504Y-108626370D01*
X142127136Y-108565687D01*
X142136985Y-108557151D01*
X142219744Y-108492738D01*
X142388164Y-108309785D01*
X142465327Y-108191677D01*
X142518474Y-108146322D01*
X142569136Y-108135500D01*
X149522770Y-108135500D01*
X149589809Y-108155185D01*
X149610451Y-108171819D01*
X151814486Y-110375854D01*
X151837250Y-110391063D01*
X151871400Y-110413881D01*
X151937405Y-110457984D01*
X151937406Y-110457984D01*
X151937407Y-110457985D01*
X152073982Y-110514556D01*
X152073987Y-110514558D01*
X152073991Y-110514558D01*
X152073992Y-110514559D01*
X152218979Y-110543400D01*
X152218982Y-110543400D01*
X152218983Y-110543400D01*
X152366818Y-110543400D01*
X152460663Y-110543400D01*
X152527702Y-110563085D01*
X152533548Y-110567082D01*
X152547265Y-110577048D01*
X152547270Y-110577051D01*
X152720192Y-110654042D01*
X152720197Y-110654044D01*
X152905354Y-110693400D01*
X152905355Y-110693400D01*
X153094644Y-110693400D01*
X153094646Y-110693400D01*
X153279803Y-110654044D01*
X153452730Y-110577051D01*
X153605871Y-110465788D01*
X153732533Y-110325116D01*
X153827179Y-110161184D01*
X153885674Y-109981156D01*
X153905460Y-109792900D01*
X153885674Y-109604644D01*
X153827179Y-109424616D01*
X153732533Y-109260684D01*
X153605871Y-109120012D01*
X153605870Y-109120011D01*
X153452734Y-109008751D01*
X153452729Y-109008748D01*
X153279807Y-108931757D01*
X153279802Y-108931755D01*
X153134001Y-108900765D01*
X153094646Y-108892400D01*
X152905354Y-108892400D01*
X152872897Y-108899298D01*
X152720197Y-108931755D01*
X152720195Y-108931756D01*
X152640932Y-108967047D01*
X152571682Y-108976331D01*
X152508406Y-108946703D01*
X152502816Y-108941448D01*
X150363421Y-106802052D01*
X150363414Y-106802046D01*
X150271816Y-106740843D01*
X150271815Y-106740843D01*
X150240500Y-106719919D01*
X150240488Y-106719912D01*
X150103917Y-106663343D01*
X150103907Y-106663340D01*
X149958920Y-106634500D01*
X149958918Y-106634500D01*
X142569136Y-106634500D01*
X142502097Y-106614815D01*
X142465327Y-106578322D01*
X142388164Y-106460215D01*
X142219744Y-106277262D01*
X142136991Y-106212852D01*
X142096179Y-106156143D01*
X142092504Y-106086370D01*
X142127136Y-106025687D01*
X142136985Y-106017151D01*
X142219744Y-105952738D01*
X142388164Y-105769785D01*
X142524173Y-105561607D01*
X142624063Y-105333881D01*
X142685108Y-105092821D01*
X142705643Y-104845000D01*
X142685108Y-104597179D01*
X142685105Y-104597167D01*
X142666857Y-104525107D01*
X142669481Y-104455287D01*
X142699379Y-104406987D01*
X147751548Y-99354819D01*
X147812871Y-99321334D01*
X147839229Y-99318500D01*
X167460663Y-99318500D01*
X167527702Y-99338185D01*
X167533548Y-99342182D01*
X167547265Y-99352148D01*
X167547270Y-99352151D01*
X167720192Y-99429142D01*
X167720197Y-99429144D01*
X167905354Y-99468500D01*
X167905355Y-99468500D01*
X168094644Y-99468500D01*
X168094646Y-99468500D01*
X168279803Y-99429144D01*
X168452730Y-99352151D01*
X168605871Y-99240888D01*
X168732533Y-99100216D01*
X168827179Y-98936284D01*
X168885674Y-98756256D01*
X168905460Y-98568000D01*
X168885674Y-98379744D01*
X168827179Y-98199716D01*
X168732533Y-98035784D01*
X168605871Y-97895112D01*
X168605870Y-97895111D01*
X168452734Y-97783851D01*
X168452729Y-97783848D01*
X168279807Y-97706857D01*
X168279802Y-97706855D01*
X168134001Y-97675865D01*
X168094646Y-97667500D01*
X167905354Y-97667500D01*
X167872897Y-97674398D01*
X167720197Y-97706855D01*
X167720192Y-97706857D01*
X167547270Y-97783848D01*
X167547265Y-97783851D01*
X167533548Y-97793818D01*
X167467742Y-97817298D01*
X167460663Y-97817500D01*
X147403076Y-97817500D01*
X147374242Y-97823234D01*
X147374243Y-97823235D01*
X147258092Y-97846339D01*
X147258086Y-97846341D01*
X147203008Y-97869156D01*
X147121508Y-97902914D01*
X147121499Y-97902919D01*
X147063601Y-97941606D01*
X146998582Y-97985049D01*
X142888189Y-102095442D01*
X142826866Y-102128927D01*
X142757174Y-102123943D01*
X142701241Y-102082071D01*
X142680302Y-102038201D01*
X142624063Y-101816118D01*
X142524173Y-101588393D01*
X142388166Y-101380217D01*
X142366557Y-101356744D01*
X142219744Y-101197262D01*
X142136991Y-101132852D01*
X142096179Y-101076143D01*
X142092504Y-101006370D01*
X142127136Y-100945687D01*
X142136985Y-100937151D01*
X142219744Y-100872738D01*
X142388164Y-100689785D01*
X142524173Y-100481607D01*
X142624063Y-100253881D01*
X142685108Y-100012821D01*
X142687475Y-99984254D01*
X142705643Y-99765005D01*
X142705643Y-99764994D01*
X142685109Y-99517187D01*
X142685107Y-99517175D01*
X142624063Y-99276118D01*
X142524173Y-99048393D01*
X142388166Y-98840217D01*
X142310874Y-98756256D01*
X142219744Y-98657262D01*
X142136991Y-98592852D01*
X142096179Y-98536143D01*
X142092504Y-98466370D01*
X142127136Y-98405687D01*
X142136985Y-98397151D01*
X142219744Y-98332738D01*
X142388164Y-98149785D01*
X142524173Y-97941607D01*
X142624063Y-97713881D01*
X142685108Y-97472821D01*
X142705643Y-97225000D01*
X142701914Y-97180000D01*
X142685109Y-96977187D01*
X142685107Y-96977175D01*
X142624063Y-96736118D01*
X142524173Y-96508393D01*
X142388166Y-96300217D01*
X142294359Y-96198316D01*
X142219744Y-96117262D01*
X142136991Y-96052852D01*
X142096179Y-95996143D01*
X142092504Y-95926370D01*
X142127136Y-95865687D01*
X142136985Y-95857151D01*
X142219744Y-95792738D01*
X142388164Y-95609785D01*
X142524173Y-95401607D01*
X142585849Y-95261000D01*
X142619103Y-95185190D01*
X142664059Y-95131704D01*
X142730795Y-95111014D01*
X142732659Y-95111000D01*
X165853063Y-95111000D01*
X165920102Y-95130685D01*
X165925948Y-95134682D01*
X165939665Y-95144648D01*
X165939670Y-95144651D01*
X166112592Y-95221642D01*
X166112597Y-95221644D01*
X166297754Y-95261000D01*
X166297755Y-95261000D01*
X166487044Y-95261000D01*
X166487046Y-95261000D01*
X166672203Y-95221644D01*
X166845130Y-95144651D01*
X166998271Y-95033388D01*
X167124933Y-94892716D01*
X167219579Y-94728784D01*
X167278074Y-94548756D01*
X167297860Y-94360500D01*
X167278074Y-94172244D01*
X167219579Y-93992216D01*
X167124933Y-93828284D01*
X166998271Y-93687612D01*
X166998270Y-93687611D01*
X166845134Y-93576351D01*
X166845129Y-93576348D01*
X166672207Y-93499357D01*
X166672202Y-93499355D01*
X166526344Y-93468353D01*
X166487046Y-93460000D01*
X166297754Y-93460000D01*
X166265297Y-93466898D01*
X166112597Y-93499355D01*
X166112592Y-93499357D01*
X165939670Y-93576348D01*
X165939665Y-93576351D01*
X165925948Y-93586318D01*
X165860142Y-93609798D01*
X165853063Y-93610000D01*
X165428130Y-93610000D01*
X165361091Y-93590315D01*
X165315336Y-93537511D01*
X165305392Y-93468353D01*
X165334417Y-93404797D01*
X165340449Y-93398319D01*
X165668986Y-93069782D01*
X167152771Y-91585995D01*
X167214092Y-91552512D01*
X167214448Y-91552434D01*
X167279803Y-91538544D01*
X167452730Y-91461551D01*
X167605871Y-91350288D01*
X167732533Y-91209616D01*
X167827179Y-91045684D01*
X167885674Y-90865656D01*
X167905460Y-90677400D01*
X167885674Y-90489144D01*
X167827179Y-90309116D01*
X167732533Y-90145184D01*
X167605871Y-90004512D01*
X167565188Y-89974954D01*
X167452734Y-89893251D01*
X167452729Y-89893248D01*
X167279807Y-89816257D01*
X167279802Y-89816255D01*
X167134001Y-89785265D01*
X167094646Y-89776900D01*
X166905354Y-89776900D01*
X166872897Y-89783798D01*
X166720197Y-89816255D01*
X166720192Y-89816257D01*
X166547270Y-89893248D01*
X166547265Y-89893251D01*
X166394129Y-90004511D01*
X166267466Y-90145185D01*
X166172821Y-90309115D01*
X166172819Y-90309119D01*
X166117479Y-90479439D01*
X166087229Y-90528801D01*
X163879051Y-92736981D01*
X163817728Y-92770466D01*
X163791370Y-92773300D01*
X155905945Y-92773300D01*
X155838906Y-92753615D01*
X155793151Y-92700811D01*
X155783207Y-92631653D01*
X155812232Y-92568097D01*
X155865682Y-92532019D01*
X155914551Y-92515241D01*
X155997003Y-92486936D01*
X156201126Y-92376470D01*
X156384284Y-92233913D01*
X156541479Y-92063153D01*
X156668424Y-91868849D01*
X156761657Y-91656300D01*
X156818634Y-91431305D01*
X156818635Y-91431297D01*
X156837800Y-91200006D01*
X156837800Y-91199993D01*
X156818635Y-90968702D01*
X156818633Y-90968691D01*
X156761657Y-90743699D01*
X156668424Y-90531151D01*
X156541479Y-90336846D01*
X156541477Y-90336844D01*
X156465770Y-90254603D01*
X156434848Y-90191948D01*
X156433000Y-90170621D01*
X156433000Y-90033282D01*
X156452685Y-89966243D01*
X156469319Y-89945601D01*
X158264937Y-88149983D01*
X159682000Y-88149983D01*
X159682000Y-90250001D01*
X159682001Y-90250018D01*
X159692500Y-90352796D01*
X159692501Y-90352799D01*
X159747685Y-90519331D01*
X159747687Y-90519336D01*
X159760433Y-90540000D01*
X159839788Y-90668656D01*
X159963844Y-90792712D01*
X160113166Y-90884814D01*
X160279703Y-90939999D01*
X160382491Y-90950500D01*
X162482508Y-90950499D01*
X162585297Y-90939999D01*
X162751834Y-90884814D01*
X162901156Y-90792712D01*
X163025212Y-90668656D01*
X163117314Y-90519334D01*
X163172499Y-90352797D01*
X163183000Y-90250009D01*
X163182999Y-88149992D01*
X163172499Y-88047203D01*
X163117314Y-87880666D01*
X163025212Y-87731344D01*
X162901156Y-87607288D01*
X162751834Y-87515186D01*
X162585297Y-87460001D01*
X162585295Y-87460000D01*
X162482510Y-87449500D01*
X160382498Y-87449500D01*
X160382481Y-87449501D01*
X160279703Y-87460000D01*
X160279700Y-87460001D01*
X160113168Y-87515185D01*
X160113163Y-87515187D01*
X159963842Y-87607289D01*
X159839789Y-87731342D01*
X159747687Y-87880663D01*
X159747686Y-87880666D01*
X159692501Y-88047203D01*
X159692501Y-88047204D01*
X159692500Y-88047204D01*
X159682000Y-88149983D01*
X158264937Y-88149983D01*
X160338101Y-86076819D01*
X160399424Y-86043334D01*
X160425782Y-86040500D01*
X166875501Y-86040500D01*
X166942540Y-86060185D01*
X166988295Y-86112989D01*
X166999501Y-86164500D01*
X166999501Y-86587876D01*
X167005908Y-86647483D01*
X167056202Y-86782328D01*
X167056206Y-86782335D01*
X167142452Y-86897544D01*
X167142455Y-86897547D01*
X167257664Y-86983793D01*
X167257671Y-86983797D01*
X167392517Y-87034091D01*
X167392516Y-87034091D01*
X167399444Y-87034835D01*
X167452127Y-87040500D01*
X170547872Y-87040499D01*
X170607483Y-87034091D01*
X170742331Y-86983796D01*
X170857546Y-86897546D01*
X170943796Y-86782331D01*
X170994091Y-86647483D01*
X171000500Y-86587873D01*
X171000499Y-83492128D01*
X170994654Y-83437753D01*
X171007061Y-83368994D01*
X171054672Y-83317857D01*
X171117944Y-83300500D01*
X171205433Y-83300500D01*
X171255869Y-83311221D01*
X171367992Y-83361142D01*
X171367997Y-83361144D01*
X171553154Y-83400500D01*
X171553155Y-83400500D01*
X171742444Y-83400500D01*
X171742446Y-83400500D01*
X171927603Y-83361144D01*
X172100530Y-83284151D01*
X172253671Y-83172888D01*
X172380333Y-83032216D01*
X172474979Y-82868284D01*
X172533474Y-82688256D01*
X172553260Y-82500000D01*
X172533474Y-82311744D01*
X172474979Y-82131716D01*
X172380333Y-81967784D01*
X172253671Y-81827112D01*
X172242360Y-81818894D01*
X172100534Y-81715851D01*
X172100529Y-81715848D01*
X171927607Y-81638857D01*
X171927602Y-81638855D01*
X171772744Y-81605940D01*
X171742446Y-81599500D01*
X171553154Y-81599500D01*
X171522856Y-81605940D01*
X171367997Y-81638855D01*
X171367992Y-81638857D01*
X171255869Y-81688779D01*
X171205433Y-81699500D01*
X170387046Y-81699500D01*
X170320007Y-81679815D01*
X170274252Y-81627011D01*
X170264308Y-81557853D01*
X170293333Y-81494297D01*
X170310097Y-81478689D01*
X170310051Y-81478636D01*
X170311537Y-81477347D01*
X170312733Y-81476235D01*
X170313388Y-81475744D01*
X170313395Y-81475739D01*
X170515739Y-81273395D01*
X170687226Y-81044315D01*
X170824367Y-80793161D01*
X170924369Y-80525046D01*
X170985196Y-80245428D01*
X171005610Y-79960000D01*
X170985196Y-79674572D01*
X170981665Y-79658342D01*
X170924371Y-79394962D01*
X170924370Y-79394960D01*
X170924369Y-79394954D01*
X170824367Y-79126839D01*
X170690082Y-78880916D01*
X170687229Y-78875690D01*
X170687224Y-78875682D01*
X170515745Y-78646612D01*
X170515729Y-78646594D01*
X170313405Y-78444270D01*
X170313387Y-78444254D01*
X170084317Y-78272775D01*
X170084309Y-78272770D01*
X169833166Y-78135635D01*
X169833167Y-78135635D01*
X169725915Y-78095632D01*
X169565046Y-78035631D01*
X169565043Y-78035630D01*
X169565037Y-78035628D01*
X169285433Y-77974804D01*
X169000001Y-77954390D01*
X168999999Y-77954390D01*
X168714566Y-77974804D01*
X168434962Y-78035628D01*
X168166833Y-78135635D01*
X167915690Y-78272770D01*
X167915682Y-78272775D01*
X167686612Y-78444254D01*
X167686594Y-78444270D01*
X167484270Y-78646594D01*
X167484254Y-78646612D01*
X167312775Y-78875682D01*
X167312770Y-78875690D01*
X167175635Y-79126833D01*
X167075628Y-79394962D01*
X167014804Y-79674566D01*
X166994390Y-79959998D01*
X166994390Y-79960001D01*
X167014804Y-80245433D01*
X167075628Y-80525037D01*
X167075630Y-80525043D01*
X167075631Y-80525046D01*
X167156801Y-80742671D01*
X167175635Y-80793166D01*
X167312770Y-81044309D01*
X167312775Y-81044317D01*
X167484254Y-81273387D01*
X167484270Y-81273405D01*
X167686594Y-81475729D01*
X167686611Y-81475744D01*
X167687267Y-81476235D01*
X167687431Y-81476454D01*
X167689949Y-81478636D01*
X167689474Y-81479183D01*
X167729137Y-81532170D01*
X167734120Y-81601861D01*
X167700633Y-81663184D01*
X167639309Y-81696667D01*
X167612954Y-81699500D01*
X142772079Y-81699500D01*
X142705040Y-81679815D01*
X142659285Y-81627011D01*
X142651873Y-81605940D01*
X142650840Y-81601861D01*
X142624063Y-81496119D01*
X142524173Y-81268393D01*
X142450938Y-81156298D01*
X142388166Y-81060217D01*
X142338716Y-81006500D01*
X142219744Y-80877262D01*
X142023509Y-80724526D01*
X142023507Y-80724525D01*
X142023506Y-80724524D01*
X141804811Y-80606172D01*
X141804802Y-80606169D01*
X141569616Y-80525429D01*
X141324335Y-80484500D01*
X141075665Y-80484500D01*
X140830383Y-80525429D01*
X140595197Y-80606169D01*
X140595188Y-80606172D01*
X140376493Y-80724524D01*
X140180257Y-80877261D01*
X140011833Y-81060217D01*
X139875826Y-81268393D01*
X139775936Y-81496118D01*
X139714892Y-81737175D01*
X139714890Y-81737187D01*
X139694357Y-81984994D01*
X139694357Y-81985005D01*
X139714890Y-82232812D01*
X139714892Y-82232824D01*
X139775936Y-82473881D01*
X139875826Y-82701606D01*
X140011833Y-82909782D01*
X140011836Y-82909785D01*
X140180256Y-83092738D01*
X140180259Y-83092740D01*
X140180262Y-83092743D01*
X140283743Y-83173286D01*
X140324556Y-83229996D01*
X140331343Y-83278823D01*
X140329941Y-83301389D01*
X141062424Y-84033871D01*
X141003147Y-84049755D01*
X140886853Y-84116898D01*
X140791898Y-84211853D01*
X140724755Y-84328147D01*
X140708872Y-84387424D01*
X139976564Y-83655116D01*
X139876267Y-83808632D01*
X139776412Y-84036282D01*
X139715387Y-84277261D01*
X139715385Y-84277270D01*
X139694859Y-84524994D01*
X139694859Y-84525005D01*
X139715385Y-84772729D01*
X139715387Y-84772738D01*
X139776412Y-85013717D01*
X139876266Y-85241364D01*
X139976564Y-85394882D01*
X140708871Y-84662575D01*
X140724755Y-84721853D01*
X140791898Y-84838147D01*
X140886853Y-84933102D01*
X141003147Y-85000245D01*
X141062424Y-85016128D01*
X140329942Y-85748609D01*
X140331343Y-85771177D01*
X140315850Y-85839307D01*
X140283744Y-85876713D01*
X140180258Y-85957260D01*
X140011833Y-86140217D01*
X139875826Y-86348393D01*
X139775936Y-86576118D01*
X139714892Y-86817175D01*
X139714890Y-86817187D01*
X139694357Y-87064994D01*
X139694357Y-87065005D01*
X139714890Y-87312812D01*
X139714892Y-87312824D01*
X139775936Y-87553881D01*
X139875826Y-87781606D01*
X140011833Y-87989782D01*
X140011836Y-87989785D01*
X140180256Y-88172738D01*
X140263008Y-88237147D01*
X140303821Y-88293857D01*
X140307496Y-88363630D01*
X140272864Y-88424313D01*
X140263014Y-88432848D01*
X140204400Y-88478469D01*
X140180257Y-88497261D01*
X140011833Y-88680217D01*
X139875826Y-88888393D01*
X139775936Y-89116118D01*
X139714892Y-89357175D01*
X139714890Y-89357187D01*
X139694357Y-89604994D01*
X139694357Y-89605005D01*
X139714890Y-89852812D01*
X139714892Y-89852824D01*
X139775936Y-90093881D01*
X139875826Y-90321606D01*
X140011833Y-90529782D01*
X140021240Y-90540001D01*
X140180256Y-90712738D01*
X140263008Y-90777147D01*
X140303821Y-90833857D01*
X140307496Y-90903630D01*
X140272864Y-90964313D01*
X140263014Y-90972848D01*
X140204400Y-91018469D01*
X140180257Y-91037261D01*
X140011833Y-91220217D01*
X139875826Y-91428393D01*
X139775936Y-91656118D01*
X139714892Y-91897175D01*
X139714890Y-91897187D01*
X139694357Y-92144994D01*
X139694357Y-92145005D01*
X139714890Y-92392812D01*
X139714892Y-92392824D01*
X139775936Y-92633881D01*
X139875826Y-92861606D01*
X140011833Y-93069782D01*
X140011836Y-93069785D01*
X140180256Y-93252738D01*
X140263008Y-93317147D01*
X140303821Y-93373857D01*
X140307496Y-93443630D01*
X140272864Y-93504313D01*
X140263014Y-93512848D01*
X140231328Y-93537511D01*
X140180257Y-93577261D01*
X140011833Y-93760217D01*
X139875826Y-93968393D01*
X139775936Y-94196118D01*
X139714892Y-94437175D01*
X139714890Y-94437187D01*
X139694357Y-94684994D01*
X139694357Y-94685005D01*
X139714890Y-94932812D01*
X139714892Y-94932824D01*
X139775936Y-95173881D01*
X139875826Y-95401606D01*
X140011833Y-95609782D01*
X140011836Y-95609785D01*
X140180256Y-95792738D01*
X140263008Y-95857147D01*
X140303821Y-95913857D01*
X140307496Y-95983630D01*
X140272864Y-96044313D01*
X140263014Y-96052848D01*
X140253820Y-96060005D01*
X140180257Y-96117261D01*
X140011833Y-96300217D01*
X139875826Y-96508393D01*
X139775936Y-96736118D01*
X139714892Y-96977175D01*
X139714890Y-96977187D01*
X139694357Y-97224994D01*
X139694357Y-97225005D01*
X139714890Y-97472812D01*
X139714892Y-97472824D01*
X139775936Y-97713881D01*
X139875826Y-97941606D01*
X140011833Y-98149782D01*
X140011836Y-98149785D01*
X140180256Y-98332738D01*
X140263008Y-98397147D01*
X140303821Y-98453857D01*
X140307496Y-98523630D01*
X140272864Y-98584313D01*
X140263014Y-98592848D01*
X140204400Y-98638469D01*
X140180257Y-98657261D01*
X140011836Y-98840215D01*
X139934673Y-98958322D01*
X139881526Y-99003678D01*
X139830864Y-99014500D01*
X131039337Y-99014500D01*
X130972298Y-98994815D01*
X130966452Y-98990818D01*
X130952734Y-98980851D01*
X130952729Y-98980848D01*
X130779807Y-98903857D01*
X130779802Y-98903855D01*
X130634001Y-98872865D01*
X130594646Y-98864500D01*
X130405354Y-98864500D01*
X130372897Y-98871398D01*
X130220197Y-98903855D01*
X130220192Y-98903857D01*
X130047270Y-98980848D01*
X130047265Y-98980851D01*
X129894129Y-99092111D01*
X129767466Y-99232785D01*
X129672821Y-99396715D01*
X129672818Y-99396722D01*
X129614327Y-99576740D01*
X129614326Y-99576744D01*
X129594540Y-99765000D01*
X117305643Y-99765000D01*
X117305643Y-99764994D01*
X117285109Y-99517187D01*
X117285107Y-99517175D01*
X117224063Y-99276118D01*
X117124173Y-99048393D01*
X116988166Y-98840217D01*
X116910874Y-98756256D01*
X116819744Y-98657262D01*
X116736991Y-98592852D01*
X116696179Y-98536143D01*
X116692504Y-98466370D01*
X116727136Y-98405687D01*
X116736985Y-98397151D01*
X116819744Y-98332738D01*
X116988164Y-98149785D01*
X117124173Y-97941607D01*
X117224063Y-97713881D01*
X117285108Y-97472821D01*
X117305643Y-97225000D01*
X117301914Y-97180000D01*
X117285109Y-96977187D01*
X117285107Y-96977175D01*
X117224063Y-96736118D01*
X117124173Y-96508393D01*
X116988166Y-96300217D01*
X116894359Y-96198316D01*
X116819744Y-96117262D01*
X116736991Y-96052852D01*
X116696179Y-95996143D01*
X116692504Y-95926370D01*
X116727136Y-95865687D01*
X116736985Y-95857151D01*
X116819744Y-95792738D01*
X116988164Y-95609785D01*
X117124173Y-95401607D01*
X117224063Y-95173881D01*
X117285108Y-94932821D01*
X117288431Y-94892716D01*
X117305643Y-94685005D01*
X117305643Y-94684994D01*
X117285109Y-94437187D01*
X117285107Y-94437175D01*
X117224063Y-94196118D01*
X117124173Y-93968393D01*
X116988166Y-93760217D01*
X116849695Y-93609798D01*
X116819744Y-93577262D01*
X116736991Y-93512852D01*
X116696179Y-93456143D01*
X116692504Y-93386370D01*
X116727136Y-93325687D01*
X116736985Y-93317151D01*
X116819744Y-93252738D01*
X116988164Y-93069785D01*
X117124173Y-92861607D01*
X117224063Y-92633881D01*
X117285108Y-92392821D01*
X117286463Y-92376468D01*
X117305643Y-92145005D01*
X117305643Y-92144994D01*
X117285109Y-91897187D01*
X117285107Y-91897175D01*
X117224063Y-91656118D01*
X117124173Y-91428393D01*
X116988166Y-91220217D01*
X116933447Y-91160777D01*
X116819744Y-91037262D01*
X116736991Y-90972852D01*
X116696179Y-90916143D01*
X116692504Y-90846370D01*
X116727136Y-90785687D01*
X116736985Y-90777151D01*
X116819744Y-90712738D01*
X116988164Y-90529785D01*
X117124173Y-90321607D01*
X117224063Y-90093881D01*
X117285108Y-89852821D01*
X117288138Y-89816255D01*
X117305643Y-89605005D01*
X117305643Y-89604994D01*
X117285109Y-89357187D01*
X117285107Y-89357175D01*
X117224063Y-89116118D01*
X117124173Y-88888393D01*
X116988166Y-88680217D01*
X116928710Y-88615631D01*
X116819744Y-88497262D01*
X116736991Y-88432852D01*
X116696179Y-88376143D01*
X116692504Y-88306370D01*
X116727136Y-88245687D01*
X116736985Y-88237151D01*
X116819744Y-88172738D01*
X116988164Y-87989785D01*
X117124173Y-87781607D01*
X117224063Y-87553881D01*
X117285108Y-87312821D01*
X117287504Y-87283908D01*
X117305643Y-87065005D01*
X117305643Y-87064994D01*
X117285109Y-86817187D01*
X117285107Y-86817175D01*
X117224063Y-86576118D01*
X117124173Y-86348393D01*
X116988166Y-86140217D01*
X116905419Y-86050330D01*
X116819744Y-85957262D01*
X116716253Y-85876712D01*
X116675442Y-85820003D01*
X116668655Y-85771176D01*
X116670056Y-85748609D01*
X115937575Y-85016128D01*
X115996853Y-85000245D01*
X116113147Y-84933102D01*
X116208102Y-84838147D01*
X116275245Y-84721853D01*
X116291127Y-84662575D01*
X117023434Y-85394882D01*
X117123731Y-85241369D01*
X117223587Y-85013717D01*
X117284612Y-84772738D01*
X117284614Y-84772729D01*
X117305141Y-84525005D01*
X117305141Y-84524994D01*
X117284614Y-84277270D01*
X117284612Y-84277261D01*
X117223587Y-84036282D01*
X117123733Y-83808635D01*
X116992817Y-83608252D01*
X116972630Y-83541362D01*
X116991810Y-83474176D01*
X117037203Y-83431595D01*
X117042321Y-83428799D01*
X117042331Y-83428796D01*
X117157546Y-83342546D01*
X117243796Y-83227331D01*
X117294091Y-83092483D01*
X117300500Y-83032873D01*
X117300499Y-82797843D01*
X117320183Y-82730804D01*
X117372987Y-82685049D01*
X117376984Y-82683308D01*
X117457195Y-82650084D01*
X117520927Y-82607500D01*
X117580116Y-82567952D01*
X119815249Y-80332819D01*
X119876572Y-80299334D01*
X119902930Y-80296500D01*
X133980663Y-80296500D01*
X134047702Y-80316185D01*
X134053548Y-80320182D01*
X134067265Y-80330148D01*
X134067270Y-80330151D01*
X134240192Y-80407142D01*
X134240197Y-80407144D01*
X134425354Y-80446500D01*
X134425355Y-80446500D01*
X134614644Y-80446500D01*
X134614646Y-80446500D01*
X134799803Y-80407144D01*
X134972730Y-80330151D01*
X135125871Y-80218888D01*
X135252533Y-80078216D01*
X135347179Y-79914284D01*
X135405674Y-79734256D01*
X135425460Y-79546000D01*
X135405674Y-79357744D01*
X135347179Y-79177716D01*
X135252533Y-79013784D01*
X135125871Y-78873112D01*
X135069463Y-78832129D01*
X134972734Y-78761851D01*
X134972729Y-78761848D01*
X134799807Y-78684857D01*
X134799802Y-78684855D01*
X134654001Y-78653865D01*
X134614646Y-78645500D01*
X134425354Y-78645500D01*
X134392897Y-78652398D01*
X134240197Y-78684855D01*
X134240192Y-78684857D01*
X134067270Y-78761848D01*
X134067265Y-78761851D01*
X134053548Y-78771818D01*
X133987742Y-78795298D01*
X133980663Y-78795500D01*
X119466780Y-78795500D01*
X119321792Y-78824340D01*
X119321786Y-78824342D01*
X119185208Y-78880914D01*
X119185196Y-78880921D01*
X119135969Y-78913813D01*
X119062288Y-78963044D01*
X119062280Y-78963050D01*
X117361623Y-80663707D01*
X117300300Y-80697192D01*
X117230608Y-80692208D01*
X117174675Y-80650336D01*
X117157546Y-80627454D01*
X117129113Y-80606169D01*
X117042335Y-80541206D01*
X117042328Y-80541202D01*
X116907482Y-80490908D01*
X116907483Y-80490908D01*
X116847883Y-80484501D01*
X116847881Y-80484500D01*
X116847873Y-80484500D01*
X116847864Y-80484500D01*
X114752129Y-80484500D01*
X114752123Y-80484501D01*
X114692516Y-80490908D01*
X114557671Y-80541202D01*
X114557664Y-80541206D01*
X114442455Y-80627452D01*
X114442452Y-80627455D01*
X114356206Y-80742664D01*
X114356202Y-80742671D01*
X114305908Y-80877517D01*
X114299501Y-80937116D01*
X114299500Y-80937135D01*
X114299500Y-83032870D01*
X114299501Y-83032876D01*
X114305908Y-83092483D01*
X114356202Y-83227328D01*
X114356206Y-83227335D01*
X114442452Y-83342544D01*
X114442455Y-83342547D01*
X114557663Y-83428793D01*
X114562799Y-83431597D01*
X114612205Y-83481002D01*
X114627057Y-83549275D01*
X114607182Y-83608251D01*
X114476267Y-83808632D01*
X114376412Y-84036282D01*
X114315387Y-84277261D01*
X114315385Y-84277270D01*
X114294859Y-84524994D01*
X114294859Y-84525005D01*
X114315385Y-84772729D01*
X114315387Y-84772738D01*
X114376412Y-85013717D01*
X114476266Y-85241364D01*
X114576564Y-85394882D01*
X115308871Y-84662574D01*
X115324755Y-84721853D01*
X115391898Y-84838147D01*
X115486853Y-84933102D01*
X115603147Y-85000245D01*
X115662424Y-85016128D01*
X114929942Y-85748609D01*
X114931343Y-85771177D01*
X114915850Y-85839307D01*
X114883744Y-85876713D01*
X114780258Y-85957260D01*
X114611833Y-86140217D01*
X114475826Y-86348393D01*
X114375936Y-86576118D01*
X114314892Y-86817175D01*
X114314890Y-86817187D01*
X114294357Y-87064994D01*
X114294357Y-87065005D01*
X114314890Y-87312812D01*
X114314892Y-87312824D01*
X114375936Y-87553881D01*
X114475826Y-87781606D01*
X114611833Y-87989782D01*
X114611836Y-87989785D01*
X114780256Y-88172738D01*
X114863008Y-88237147D01*
X114903821Y-88293857D01*
X114907496Y-88363630D01*
X114872864Y-88424313D01*
X114863014Y-88432848D01*
X114780256Y-88497262D01*
X114611836Y-88680215D01*
X114539874Y-88790362D01*
X114534673Y-88798322D01*
X114481526Y-88843678D01*
X114430864Y-88854500D01*
X108039337Y-88854500D01*
X107972298Y-88834815D01*
X107966452Y-88830818D01*
X107952734Y-88820851D01*
X107952729Y-88820848D01*
X107779807Y-88743857D01*
X107779802Y-88743855D01*
X107634001Y-88712865D01*
X107594646Y-88704500D01*
X107405354Y-88704500D01*
X107372897Y-88711398D01*
X107220197Y-88743855D01*
X107220192Y-88743857D01*
X107047270Y-88820848D01*
X107047265Y-88820851D01*
X106894129Y-88932111D01*
X106767466Y-89072785D01*
X106672821Y-89236715D01*
X106672818Y-89236722D01*
X106633677Y-89357187D01*
X106614326Y-89416744D01*
X106594540Y-89605000D01*
X106614326Y-89793256D01*
X106614327Y-89793259D01*
X106672818Y-89973277D01*
X106672821Y-89973284D01*
X106767467Y-90137216D01*
X106869026Y-90250008D01*
X106894129Y-90277888D01*
X107047265Y-90389148D01*
X107047270Y-90389151D01*
X107220192Y-90466142D01*
X107220197Y-90466144D01*
X107405354Y-90505500D01*
X107405355Y-90505500D01*
X107594644Y-90505500D01*
X107594646Y-90505500D01*
X107779803Y-90466144D01*
X107952730Y-90389151D01*
X107954776Y-90387664D01*
X107966452Y-90379182D01*
X108032258Y-90355702D01*
X108039337Y-90355500D01*
X114430864Y-90355500D01*
X114497903Y-90375185D01*
X114534672Y-90411677D01*
X114611836Y-90529785D01*
X114780256Y-90712738D01*
X114863008Y-90777147D01*
X114903821Y-90833857D01*
X114907496Y-90903630D01*
X114872864Y-90964313D01*
X114863014Y-90972848D01*
X114804400Y-91018469D01*
X114780257Y-91037261D01*
X114611833Y-91220217D01*
X114475826Y-91428393D01*
X114375936Y-91656118D01*
X114314892Y-91897175D01*
X114314890Y-91897187D01*
X114294357Y-92144994D01*
X114294357Y-92145005D01*
X114314890Y-92392812D01*
X114314892Y-92392824D01*
X114375936Y-92633881D01*
X114475826Y-92861606D01*
X114611833Y-93069782D01*
X114611836Y-93069785D01*
X114780256Y-93252738D01*
X114863008Y-93317147D01*
X114903821Y-93373857D01*
X114907496Y-93443630D01*
X114872864Y-93504313D01*
X114863014Y-93512848D01*
X114831328Y-93537511D01*
X114780257Y-93577261D01*
X114611833Y-93760217D01*
X114475826Y-93968393D01*
X114375936Y-94196118D01*
X114314892Y-94437175D01*
X114314890Y-94437187D01*
X114294357Y-94684994D01*
X114294357Y-94685005D01*
X114314890Y-94932812D01*
X114314892Y-94932824D01*
X114375936Y-95173881D01*
X114475826Y-95401606D01*
X114611833Y-95609782D01*
X114611836Y-95609785D01*
X114780256Y-95792738D01*
X114863008Y-95857147D01*
X114903821Y-95913857D01*
X114907496Y-95983630D01*
X114872864Y-96044313D01*
X114863014Y-96052848D01*
X114853820Y-96060005D01*
X114780257Y-96117261D01*
X114611833Y-96300217D01*
X114475826Y-96508393D01*
X114375936Y-96736118D01*
X114314892Y-96977175D01*
X114314890Y-96977187D01*
X114294357Y-97224994D01*
X114294357Y-97225005D01*
X114314890Y-97472812D01*
X114314892Y-97472824D01*
X114375936Y-97713881D01*
X114475826Y-97941606D01*
X114611833Y-98149782D01*
X114611836Y-98149785D01*
X114780256Y-98332738D01*
X114863008Y-98397147D01*
X114903821Y-98453857D01*
X114907496Y-98523630D01*
X114872864Y-98584313D01*
X114863014Y-98592848D01*
X114804400Y-98638469D01*
X114780257Y-98657261D01*
X114611833Y-98840217D01*
X114475826Y-99048393D01*
X114375936Y-99276118D01*
X114314892Y-99517175D01*
X114314890Y-99517187D01*
X114294357Y-99764994D01*
X114294357Y-99765005D01*
X114314890Y-100012812D01*
X114314892Y-100012824D01*
X114375936Y-100253881D01*
X114475826Y-100481606D01*
X114611833Y-100689782D01*
X114611835Y-100689784D01*
X114611836Y-100689785D01*
X114780256Y-100872738D01*
X114863008Y-100937147D01*
X114903821Y-100993857D01*
X114907496Y-101063630D01*
X114872864Y-101124313D01*
X114863014Y-101132848D01*
X114804400Y-101178469D01*
X114780257Y-101197261D01*
X114611833Y-101380217D01*
X114475826Y-101588393D01*
X114375937Y-101816117D01*
X114319697Y-102038203D01*
X114284157Y-102098358D01*
X114221736Y-102129750D01*
X114152253Y-102122412D01*
X114111810Y-102095443D01*
X103736424Y-91720056D01*
X103702939Y-91658733D01*
X103707923Y-91589041D01*
X103715261Y-91572971D01*
X103824367Y-91373161D01*
X103924369Y-91105046D01*
X103937284Y-91045677D01*
X103985195Y-90825433D01*
X103985195Y-90825432D01*
X103985196Y-90825428D01*
X104005610Y-90540000D01*
X104004879Y-90529785D01*
X103993822Y-90375185D01*
X103985196Y-90254572D01*
X103984205Y-90250018D01*
X103924371Y-89974962D01*
X103924370Y-89974960D01*
X103924369Y-89974954D01*
X103824367Y-89706839D01*
X103768758Y-89605000D01*
X103687229Y-89455690D01*
X103687224Y-89455682D01*
X103515745Y-89226612D01*
X103515729Y-89226594D01*
X103313405Y-89024270D01*
X103313387Y-89024254D01*
X103084317Y-88852775D01*
X103084309Y-88852770D01*
X102833166Y-88715635D01*
X102833167Y-88715635D01*
X102725915Y-88675632D01*
X102565046Y-88615631D01*
X102565043Y-88615630D01*
X102565037Y-88615628D01*
X102285433Y-88554804D01*
X102000001Y-88534390D01*
X101999999Y-88534390D01*
X101714566Y-88554804D01*
X101434962Y-88615628D01*
X101166833Y-88715635D01*
X100915690Y-88852770D01*
X100915682Y-88852775D01*
X100686612Y-89024254D01*
X100686594Y-89024270D01*
X100484270Y-89226594D01*
X100484254Y-89226612D01*
X100312775Y-89455682D01*
X100312770Y-89455690D01*
X100175635Y-89706833D01*
X100175633Y-89706837D01*
X100143401Y-89793256D01*
X100080710Y-89961334D01*
X100038841Y-90017267D01*
X99973376Y-90041684D01*
X99964530Y-90042000D01*
X99529337Y-90042000D01*
X99462298Y-90022315D01*
X99456452Y-90018318D01*
X99442734Y-90008351D01*
X99442729Y-90008348D01*
X99269807Y-89931357D01*
X99269802Y-89931355D01*
X99124001Y-89900365D01*
X99084646Y-89892000D01*
X98895354Y-89892000D01*
X98862897Y-89898898D01*
X98710197Y-89931355D01*
X98710192Y-89931357D01*
X98537270Y-90008348D01*
X98537265Y-90008351D01*
X98384129Y-90119611D01*
X98257466Y-90260285D01*
X98162821Y-90424215D01*
X98162818Y-90424222D01*
X98104327Y-90604240D01*
X98104326Y-90604244D01*
X98084540Y-90792500D01*
X95000500Y-90792500D01*
X95000500Y-85459998D01*
X99994891Y-85459998D01*
X99994891Y-85460001D01*
X100015300Y-85745362D01*
X100076109Y-86024895D01*
X100176091Y-86292958D01*
X100313191Y-86544038D01*
X100313196Y-86544046D01*
X100419882Y-86686561D01*
X100419883Y-86686562D01*
X101314767Y-85791677D01*
X101326497Y-85819995D01*
X101409670Y-85944472D01*
X101515528Y-86050330D01*
X101640005Y-86133503D01*
X101668320Y-86145231D01*
X100773436Y-87040115D01*
X100915960Y-87146807D01*
X100915961Y-87146808D01*
X101167042Y-87283908D01*
X101167041Y-87283908D01*
X101435104Y-87383890D01*
X101714637Y-87444699D01*
X101999999Y-87465109D01*
X102000001Y-87465109D01*
X102285362Y-87444699D01*
X102564895Y-87383890D01*
X102832958Y-87283908D01*
X103084047Y-87146803D01*
X103226561Y-87040116D01*
X103226562Y-87040115D01*
X102331679Y-86145231D01*
X102359995Y-86133503D01*
X102484472Y-86050330D01*
X102590330Y-85944472D01*
X102673503Y-85819995D01*
X102685231Y-85791678D01*
X103580115Y-86686562D01*
X103580116Y-86686561D01*
X103686803Y-86544047D01*
X103823908Y-86292958D01*
X103923890Y-86024895D01*
X103984699Y-85745362D01*
X104005109Y-85460001D01*
X104005109Y-85459998D01*
X103984699Y-85174637D01*
X103923890Y-84895104D01*
X103823908Y-84627041D01*
X103686808Y-84375961D01*
X103686807Y-84375960D01*
X103580115Y-84233436D01*
X102685231Y-85128320D01*
X102673503Y-85100005D01*
X102590330Y-84975528D01*
X102484472Y-84869670D01*
X102359995Y-84786497D01*
X102331678Y-84774767D01*
X103226562Y-83879883D01*
X103226561Y-83879882D01*
X103084046Y-83773196D01*
X103084038Y-83773191D01*
X102832957Y-83636091D01*
X102832958Y-83636091D01*
X102564895Y-83536109D01*
X102285362Y-83475300D01*
X102000001Y-83454891D01*
X101999999Y-83454891D01*
X101714637Y-83475300D01*
X101435104Y-83536109D01*
X101167041Y-83636091D01*
X100915961Y-83773191D01*
X100915953Y-83773196D01*
X100773437Y-83879882D01*
X100773436Y-83879883D01*
X101668321Y-84774767D01*
X101640005Y-84786497D01*
X101515528Y-84869670D01*
X101409670Y-84975528D01*
X101326497Y-85100005D01*
X101314768Y-85128321D01*
X100419883Y-84233436D01*
X100419882Y-84233437D01*
X100313196Y-84375953D01*
X100313191Y-84375961D01*
X100176091Y-84627041D01*
X100076109Y-84895104D01*
X100015300Y-85174637D01*
X99994891Y-85459998D01*
X95000500Y-85459998D01*
X95000500Y-78832135D01*
X99999500Y-78832135D01*
X99999500Y-81927870D01*
X99999501Y-81927876D01*
X100005908Y-81987483D01*
X100056202Y-82122328D01*
X100056206Y-82122335D01*
X100142452Y-82237544D01*
X100142455Y-82237547D01*
X100257664Y-82323793D01*
X100257671Y-82323797D01*
X100392517Y-82374091D01*
X100392516Y-82374091D01*
X100399444Y-82374835D01*
X100452127Y-82380500D01*
X103547872Y-82380499D01*
X103607483Y-82374091D01*
X103742331Y-82323796D01*
X103857546Y-82237546D01*
X103943796Y-82122331D01*
X103994091Y-81987483D01*
X104000500Y-81927873D01*
X104000499Y-81927860D01*
X104000723Y-81925787D01*
X104027461Y-81861236D01*
X104084853Y-81821388D01*
X104154679Y-81818894D01*
X104211692Y-81851360D01*
X104745749Y-82385416D01*
X104799547Y-82439214D01*
X104850285Y-82489952D01*
X104973198Y-82572080D01*
X104973211Y-82572087D01*
X105109782Y-82628656D01*
X105109787Y-82628658D01*
X105109791Y-82628658D01*
X105109792Y-82628659D01*
X105254779Y-82657500D01*
X105254782Y-82657500D01*
X105254783Y-82657500D01*
X105402617Y-82657500D01*
X112460663Y-82657500D01*
X112527702Y-82677185D01*
X112533548Y-82681182D01*
X112547265Y-82691148D01*
X112547270Y-82691151D01*
X112720192Y-82768142D01*
X112720197Y-82768144D01*
X112905354Y-82807500D01*
X112905355Y-82807500D01*
X113094644Y-82807500D01*
X113094646Y-82807500D01*
X113279803Y-82768144D01*
X113452730Y-82691151D01*
X113605871Y-82579888D01*
X113732533Y-82439216D01*
X113827179Y-82275284D01*
X113885674Y-82095256D01*
X113905460Y-81907000D01*
X113885674Y-81718744D01*
X113827179Y-81538716D01*
X113732533Y-81374784D01*
X113605871Y-81234112D01*
X113605870Y-81234111D01*
X113452734Y-81122851D01*
X113452729Y-81122848D01*
X113279807Y-81045857D01*
X113279802Y-81045855D01*
X113134001Y-81014865D01*
X113094646Y-81006500D01*
X112905354Y-81006500D01*
X112872897Y-81013398D01*
X112720197Y-81045855D01*
X112720192Y-81045857D01*
X112547270Y-81122848D01*
X112547265Y-81122851D01*
X112533548Y-81132818D01*
X112467742Y-81156298D01*
X112460663Y-81156500D01*
X105690929Y-81156500D01*
X105623890Y-81136815D01*
X105603248Y-81120181D01*
X104280121Y-79797052D01*
X104280120Y-79797051D01*
X104186139Y-79734256D01*
X104157195Y-79714916D01*
X104157192Y-79714914D01*
X104157191Y-79714914D01*
X104077046Y-79681717D01*
X104022643Y-79637876D01*
X104000578Y-79571582D01*
X104000499Y-79567156D01*
X104000499Y-78832129D01*
X104000498Y-78832123D01*
X104000497Y-78832116D01*
X103994091Y-78772517D01*
X103993830Y-78771818D01*
X103943797Y-78637671D01*
X103943793Y-78637664D01*
X103857547Y-78522455D01*
X103857544Y-78522452D01*
X103742335Y-78436206D01*
X103742328Y-78436202D01*
X103607482Y-78385908D01*
X103607483Y-78385908D01*
X103547883Y-78379501D01*
X103547881Y-78379500D01*
X103547873Y-78379500D01*
X103547864Y-78379500D01*
X100452129Y-78379500D01*
X100452123Y-78379501D01*
X100392516Y-78385908D01*
X100257671Y-78436202D01*
X100257664Y-78436206D01*
X100142455Y-78522452D01*
X100142452Y-78522455D01*
X100056206Y-78637664D01*
X100056202Y-78637671D01*
X100005908Y-78772517D01*
X100000337Y-78824340D01*
X99999501Y-78832123D01*
X99999500Y-78832135D01*
X95000500Y-78832135D01*
X95000500Y-76999995D01*
X147727232Y-76999995D01*
X147727232Y-77000004D01*
X147746277Y-77254154D01*
X147746278Y-77254157D01*
X147802992Y-77502637D01*
X147896107Y-77739888D01*
X148023541Y-77960612D01*
X148182450Y-78159877D01*
X148369283Y-78333232D01*
X148579866Y-78476805D01*
X148579871Y-78476807D01*
X148579872Y-78476808D01*
X148579873Y-78476809D01*
X148674653Y-78522452D01*
X148809492Y-78587387D01*
X148809493Y-78587387D01*
X148809496Y-78587389D01*
X149053042Y-78662513D01*
X149305065Y-78700500D01*
X149559935Y-78700500D01*
X149811958Y-78662513D01*
X150055504Y-78587389D01*
X150285134Y-78476805D01*
X150495717Y-78333232D01*
X150682550Y-78159877D01*
X150841459Y-77960612D01*
X150968893Y-77739888D01*
X151062008Y-77502637D01*
X151118722Y-77254157D01*
X151137768Y-77000000D01*
X151137768Y-76999995D01*
X159727232Y-76999995D01*
X159727232Y-77000004D01*
X159746277Y-77254154D01*
X159746278Y-77254157D01*
X159802992Y-77502637D01*
X159896107Y-77739888D01*
X160023541Y-77960612D01*
X160182450Y-78159877D01*
X160369283Y-78333232D01*
X160579866Y-78476805D01*
X160579871Y-78476807D01*
X160579872Y-78476808D01*
X160579873Y-78476809D01*
X160674653Y-78522452D01*
X160809492Y-78587387D01*
X160809493Y-78587387D01*
X160809496Y-78587389D01*
X161053042Y-78662513D01*
X161305065Y-78700500D01*
X161559935Y-78700500D01*
X161811958Y-78662513D01*
X162055504Y-78587389D01*
X162285134Y-78476805D01*
X162495717Y-78333232D01*
X162682550Y-78159877D01*
X162841459Y-77960612D01*
X162968893Y-77739888D01*
X163062008Y-77502637D01*
X163118722Y-77254157D01*
X163137768Y-77000000D01*
X163118722Y-76745843D01*
X163062008Y-76497363D01*
X162968893Y-76260112D01*
X162841459Y-76039388D01*
X162682550Y-75840123D01*
X162495717Y-75666768D01*
X162285134Y-75523195D01*
X162285130Y-75523193D01*
X162285127Y-75523191D01*
X162285126Y-75523190D01*
X162055506Y-75412612D01*
X162055508Y-75412612D01*
X161811966Y-75337489D01*
X161811962Y-75337488D01*
X161811958Y-75337487D01*
X161690731Y-75319214D01*
X161559940Y-75299500D01*
X161559935Y-75299500D01*
X161305065Y-75299500D01*
X161305059Y-75299500D01*
X161148109Y-75323157D01*
X161053042Y-75337487D01*
X161053039Y-75337488D01*
X161053033Y-75337489D01*
X160809492Y-75412612D01*
X160579873Y-75523190D01*
X160579872Y-75523191D01*
X160369282Y-75666768D01*
X160182452Y-75840121D01*
X160182450Y-75840123D01*
X160023541Y-76039388D01*
X159896108Y-76260109D01*
X159802992Y-76497362D01*
X159802990Y-76497369D01*
X159746277Y-76745845D01*
X159727232Y-76999995D01*
X151137768Y-76999995D01*
X151118722Y-76745843D01*
X151062008Y-76497363D01*
X150968893Y-76260112D01*
X150841459Y-76039388D01*
X150682550Y-75840123D01*
X150495717Y-75666768D01*
X150285134Y-75523195D01*
X150285130Y-75523193D01*
X150285127Y-75523191D01*
X150285126Y-75523190D01*
X150055506Y-75412612D01*
X150055508Y-75412612D01*
X149811966Y-75337489D01*
X149811962Y-75337488D01*
X149811958Y-75337487D01*
X149690731Y-75319214D01*
X149559940Y-75299500D01*
X149559935Y-75299500D01*
X149305065Y-75299500D01*
X149305059Y-75299500D01*
X149148109Y-75323157D01*
X149053042Y-75337487D01*
X149053039Y-75337488D01*
X149053033Y-75337489D01*
X148809492Y-75412612D01*
X148579873Y-75523190D01*
X148579872Y-75523191D01*
X148369282Y-75666768D01*
X148182452Y-75840121D01*
X148182450Y-75840123D01*
X148023541Y-76039388D01*
X147896108Y-76260109D01*
X147802992Y-76497362D01*
X147802990Y-76497369D01*
X147746277Y-76745845D01*
X147727232Y-76999995D01*
X95000500Y-76999995D01*
X95000500Y-73910258D01*
X114469500Y-73910258D01*
X114469500Y-74139741D01*
X114494446Y-74329215D01*
X114499452Y-74367238D01*
X114499453Y-74367240D01*
X114558842Y-74588887D01*
X114646650Y-74800876D01*
X114646657Y-74800890D01*
X114761392Y-74999617D01*
X114901081Y-75181661D01*
X114901089Y-75181670D01*
X115063330Y-75343911D01*
X115063338Y-75343918D01*
X115245382Y-75483607D01*
X115245385Y-75483608D01*
X115245388Y-75483611D01*
X115444112Y-75598344D01*
X115444117Y-75598346D01*
X115444123Y-75598349D01*
X115535480Y-75636190D01*
X115656113Y-75686158D01*
X115877762Y-75745548D01*
X116105266Y-75775500D01*
X116105273Y-75775500D01*
X116334727Y-75775500D01*
X116334734Y-75775500D01*
X116562238Y-75745548D01*
X116783887Y-75686158D01*
X116995888Y-75598344D01*
X117194612Y-75483611D01*
X117376661Y-75343919D01*
X117376665Y-75343914D01*
X117376670Y-75343911D01*
X117538911Y-75181670D01*
X117538914Y-75181665D01*
X117538919Y-75181661D01*
X117678611Y-74999612D01*
X117793344Y-74800888D01*
X117881158Y-74588887D01*
X117940548Y-74367238D01*
X117970500Y-74139734D01*
X117970500Y-73910266D01*
X117970499Y-73910258D01*
X138979500Y-73910258D01*
X138979500Y-74139741D01*
X139004446Y-74329215D01*
X139009452Y-74367238D01*
X139009453Y-74367240D01*
X139068842Y-74588887D01*
X139156650Y-74800876D01*
X139156657Y-74800890D01*
X139271392Y-74999617D01*
X139411081Y-75181661D01*
X139411089Y-75181670D01*
X139573330Y-75343911D01*
X139573338Y-75343918D01*
X139755382Y-75483607D01*
X139755385Y-75483608D01*
X139755388Y-75483611D01*
X139954112Y-75598344D01*
X139954117Y-75598346D01*
X139954123Y-75598349D01*
X140045480Y-75636190D01*
X140166113Y-75686158D01*
X140387762Y-75745548D01*
X140615266Y-75775500D01*
X140615273Y-75775500D01*
X140844727Y-75775500D01*
X140844734Y-75775500D01*
X141072238Y-75745548D01*
X141293887Y-75686158D01*
X141505888Y-75598344D01*
X141704612Y-75483611D01*
X141886661Y-75343919D01*
X141886665Y-75343914D01*
X141886670Y-75343911D01*
X142048911Y-75181670D01*
X142048914Y-75181665D01*
X142048919Y-75181661D01*
X142188611Y-74999612D01*
X142303344Y-74800888D01*
X142391158Y-74588887D01*
X142450548Y-74367238D01*
X142480500Y-74139734D01*
X142480500Y-73910266D01*
X142450548Y-73682762D01*
X142391158Y-73461113D01*
X142303344Y-73249112D01*
X142188611Y-73050388D01*
X142188608Y-73050385D01*
X142188607Y-73050382D01*
X142048918Y-72868338D01*
X142048911Y-72868330D01*
X141886670Y-72706089D01*
X141886661Y-72706081D01*
X141704617Y-72566392D01*
X141505890Y-72451657D01*
X141505876Y-72451650D01*
X141293887Y-72363842D01*
X141072238Y-72304452D01*
X141034215Y-72299446D01*
X140844741Y-72274500D01*
X140844734Y-72274500D01*
X140615266Y-72274500D01*
X140615258Y-72274500D01*
X140398715Y-72303009D01*
X140387762Y-72304452D01*
X140294076Y-72329554D01*
X140166112Y-72363842D01*
X139954123Y-72451650D01*
X139954109Y-72451657D01*
X139755382Y-72566392D01*
X139573338Y-72706081D01*
X139411081Y-72868338D01*
X139271392Y-73050382D01*
X139156657Y-73249109D01*
X139156650Y-73249123D01*
X139068842Y-73461112D01*
X139009453Y-73682759D01*
X139009451Y-73682770D01*
X138979500Y-73910258D01*
X117970499Y-73910258D01*
X117940548Y-73682762D01*
X117881158Y-73461113D01*
X117793344Y-73249112D01*
X117678611Y-73050388D01*
X117678608Y-73050385D01*
X117678607Y-73050382D01*
X117538918Y-72868338D01*
X117538911Y-72868330D01*
X117376670Y-72706089D01*
X117376661Y-72706081D01*
X117194617Y-72566392D01*
X116995890Y-72451657D01*
X116995876Y-72451650D01*
X116783887Y-72363842D01*
X116562238Y-72304452D01*
X116524215Y-72299446D01*
X116334741Y-72274500D01*
X116334734Y-72274500D01*
X116105266Y-72274500D01*
X116105258Y-72274500D01*
X115888715Y-72303009D01*
X115877762Y-72304452D01*
X115784076Y-72329554D01*
X115656112Y-72363842D01*
X115444123Y-72451650D01*
X115444109Y-72451657D01*
X115245382Y-72566392D01*
X115063338Y-72706081D01*
X114901081Y-72868338D01*
X114761392Y-73050382D01*
X114646657Y-73249109D01*
X114646650Y-73249123D01*
X114558842Y-73461112D01*
X114499453Y-73682759D01*
X114499451Y-73682770D01*
X114469500Y-73910258D01*
X95000500Y-73910258D01*
X95000500Y-60499998D01*
X98914390Y-60499998D01*
X98914390Y-60500001D01*
X98934804Y-60785433D01*
X98995628Y-61065037D01*
X98995630Y-61065043D01*
X98995631Y-61065046D01*
X99057452Y-61230793D01*
X99095635Y-61333166D01*
X99232770Y-61584309D01*
X99232775Y-61584317D01*
X99404254Y-61813387D01*
X99404270Y-61813405D01*
X99606594Y-62015729D01*
X99606612Y-62015745D01*
X99835682Y-62187224D01*
X99835690Y-62187229D01*
X100086833Y-62324364D01*
X100086832Y-62324364D01*
X100086836Y-62324365D01*
X100086839Y-62324367D01*
X100354954Y-62424369D01*
X100354960Y-62424370D01*
X100354962Y-62424371D01*
X100634566Y-62485195D01*
X100634568Y-62485195D01*
X100634572Y-62485196D01*
X100888220Y-62503337D01*
X100919999Y-62505610D01*
X100920000Y-62505610D01*
X100920001Y-62505610D01*
X100942600Y-62503993D01*
X101203447Y-62485337D01*
X101271718Y-62500189D01*
X101299972Y-62521340D01*
X102861586Y-64082954D01*
X102891058Y-64102645D01*
X102935270Y-64132186D01*
X102984505Y-64165084D01*
X102984506Y-64165084D01*
X102984507Y-64165085D01*
X102984509Y-64165086D01*
X103121082Y-64221656D01*
X103121087Y-64221658D01*
X103121091Y-64221658D01*
X103121092Y-64221659D01*
X103266079Y-64250500D01*
X103266082Y-64250500D01*
X103266083Y-64250500D01*
X103413918Y-64250500D01*
X111388771Y-64250500D01*
X111455810Y-64270185D01*
X111501565Y-64322989D01*
X111511509Y-64392147D01*
X111482484Y-64455703D01*
X111476452Y-64462181D01*
X109067047Y-66871584D01*
X109067045Y-66871586D01*
X109035191Y-66919263D01*
X109035189Y-66919266D01*
X108984919Y-66994498D01*
X108984914Y-66994507D01*
X108928341Y-67131087D01*
X108926574Y-67136914D01*
X108925975Y-67136732D01*
X108914384Y-67167522D01*
X108822823Y-67326110D01*
X108822818Y-67326122D01*
X108772167Y-67482011D01*
X108764326Y-67506144D01*
X108744540Y-67694400D01*
X108764326Y-67882656D01*
X108764327Y-67882659D01*
X108822818Y-68062677D01*
X108822821Y-68062684D01*
X108917467Y-68226616D01*
X108997215Y-68315185D01*
X109044129Y-68367288D01*
X109197265Y-68478548D01*
X109197270Y-68478551D01*
X109370192Y-68555542D01*
X109370197Y-68555544D01*
X109555354Y-68594900D01*
X109555355Y-68594900D01*
X109744644Y-68594900D01*
X109744646Y-68594900D01*
X109929803Y-68555544D01*
X110102730Y-68478551D01*
X110255871Y-68367288D01*
X110382533Y-68226616D01*
X110398792Y-68198455D01*
X131379400Y-68198455D01*
X131379400Y-68395544D01*
X131417847Y-68588828D01*
X131417849Y-68588836D01*
X131493267Y-68770910D01*
X131493272Y-68770920D01*
X131602760Y-68934780D01*
X131602763Y-68934784D01*
X133445115Y-70777137D01*
X133445119Y-70777140D01*
X133608979Y-70886628D01*
X133608985Y-70886631D01*
X133608986Y-70886632D01*
X133791065Y-70962052D01*
X133952289Y-70994121D01*
X133984357Y-71000499D01*
X133984358Y-71000500D01*
X133984359Y-71000500D01*
X133984360Y-71000500D01*
X134181440Y-71000500D01*
X146432465Y-71000500D01*
X146499504Y-71020185D01*
X146545259Y-71072989D01*
X146555823Y-71111898D01*
X146560001Y-71152797D01*
X146560001Y-71152799D01*
X146562347Y-71159878D01*
X146615186Y-71319334D01*
X146707288Y-71468656D01*
X146831344Y-71592712D01*
X146980666Y-71684814D01*
X147147203Y-71739999D01*
X147249991Y-71750500D01*
X149350008Y-71750499D01*
X149452797Y-71739999D01*
X149619334Y-71684814D01*
X149768656Y-71592712D01*
X149892712Y-71468656D01*
X149984814Y-71319334D01*
X150029164Y-71185494D01*
X150068936Y-71128051D01*
X150133451Y-71101228D01*
X150146869Y-71100500D01*
X154586610Y-71100500D01*
X154586611Y-71100500D01*
X154757701Y-71073402D01*
X154922445Y-71019873D01*
X155076788Y-70941232D01*
X155216928Y-70839414D01*
X156056347Y-69999995D01*
X158794732Y-69999995D01*
X158794732Y-70000004D01*
X158813777Y-70254154D01*
X158813778Y-70254157D01*
X158870492Y-70502637D01*
X158963607Y-70739888D01*
X159091041Y-70960612D01*
X159249950Y-71159877D01*
X159436783Y-71333232D01*
X159647366Y-71476805D01*
X159647371Y-71476807D01*
X159647372Y-71476808D01*
X159647373Y-71476809D01*
X159769328Y-71535538D01*
X159876992Y-71587387D01*
X159876993Y-71587387D01*
X159876996Y-71587389D01*
X160120542Y-71662513D01*
X160372565Y-71700500D01*
X160627435Y-71700500D01*
X160879458Y-71662513D01*
X161123004Y-71587389D01*
X161352634Y-71476805D01*
X161563217Y-71333232D01*
X161750050Y-71159877D01*
X161908959Y-70960612D01*
X162036393Y-70739888D01*
X162129508Y-70502637D01*
X162186222Y-70254157D01*
X162205268Y-70000000D01*
X162186222Y-69745843D01*
X162129508Y-69497363D01*
X162036393Y-69260112D01*
X161908959Y-69039388D01*
X161750050Y-68840123D01*
X161563217Y-68666768D01*
X161352634Y-68523195D01*
X161352630Y-68523193D01*
X161352627Y-68523191D01*
X161352626Y-68523190D01*
X161123006Y-68412612D01*
X161123008Y-68412612D01*
X160879466Y-68337489D01*
X160879462Y-68337488D01*
X160879458Y-68337487D01*
X160758231Y-68319214D01*
X160627440Y-68299500D01*
X160627435Y-68299500D01*
X160372565Y-68299500D01*
X160372559Y-68299500D01*
X160215609Y-68323157D01*
X160120542Y-68337487D01*
X160120539Y-68337488D01*
X160120533Y-68337489D01*
X159876992Y-68412612D01*
X159647373Y-68523190D01*
X159647372Y-68523191D01*
X159436782Y-68666768D01*
X159249952Y-68840121D01*
X159249950Y-68840123D01*
X159091041Y-69039388D01*
X158963608Y-69260109D01*
X158870492Y-69497362D01*
X158870490Y-69497369D01*
X158813777Y-69745845D01*
X158794732Y-69999995D01*
X156056347Y-69999995D01*
X157839414Y-68216928D01*
X157941232Y-68076788D01*
X158019873Y-67922445D01*
X158073402Y-67757701D01*
X158100500Y-67586611D01*
X158100500Y-67413389D01*
X158073402Y-67242299D01*
X158019873Y-67077555D01*
X157941232Y-66923212D01*
X157839414Y-66783072D01*
X157716928Y-66660586D01*
X157576788Y-66558768D01*
X157422445Y-66480127D01*
X157257701Y-66426598D01*
X157257699Y-66426597D01*
X157257698Y-66426597D01*
X157126271Y-66405781D01*
X157086611Y-66399500D01*
X156913389Y-66399500D01*
X156873728Y-66405781D01*
X156742302Y-66426597D01*
X156577552Y-66480128D01*
X156423211Y-66558768D01*
X156343256Y-66616859D01*
X156283072Y-66660586D01*
X156283070Y-66660588D01*
X156283069Y-66660588D01*
X154080477Y-68863181D01*
X154019154Y-68896666D01*
X153992796Y-68899500D01*
X150146870Y-68899500D01*
X150079831Y-68879815D01*
X150034076Y-68827011D01*
X150029164Y-68814505D01*
X150014718Y-68770910D01*
X149984814Y-68680666D01*
X149892712Y-68531344D01*
X149768656Y-68407288D01*
X149619334Y-68315186D01*
X149452797Y-68260001D01*
X149452795Y-68260000D01*
X149350010Y-68249500D01*
X147249998Y-68249500D01*
X147249981Y-68249501D01*
X147147203Y-68260000D01*
X147147200Y-68260001D01*
X146980668Y-68315185D01*
X146980663Y-68315187D01*
X146831342Y-68407289D01*
X146707289Y-68531342D01*
X146615187Y-68680663D01*
X146615185Y-68680668D01*
X146560001Y-68847204D01*
X146560000Y-68847205D01*
X146555823Y-68888102D01*
X146529427Y-68952793D01*
X146472247Y-68992945D01*
X146432465Y-68999500D01*
X134548683Y-68999500D01*
X134481644Y-68979815D01*
X134461002Y-68963181D01*
X133017684Y-67519863D01*
X133017680Y-67519860D01*
X132853820Y-67410372D01*
X132853810Y-67410367D01*
X132671736Y-67334949D01*
X132671728Y-67334947D01*
X132478443Y-67296500D01*
X132478440Y-67296500D01*
X132281360Y-67296500D01*
X132281357Y-67296500D01*
X132088071Y-67334947D01*
X132088063Y-67334949D01*
X131905989Y-67410367D01*
X131905979Y-67410372D01*
X131742119Y-67519860D01*
X131742115Y-67519863D01*
X131602763Y-67659215D01*
X131602760Y-67659219D01*
X131493272Y-67823079D01*
X131493267Y-67823089D01*
X131417849Y-68005163D01*
X131417847Y-68005171D01*
X131379400Y-68198455D01*
X110398792Y-68198455D01*
X110477179Y-68062684D01*
X110535674Y-67882656D01*
X110555460Y-67694400D01*
X110543715Y-67582652D01*
X110556285Y-67513923D01*
X110579352Y-67482014D01*
X113774548Y-64286819D01*
X113835871Y-64253334D01*
X113862229Y-64250500D01*
X121637770Y-64250500D01*
X121704809Y-64270185D01*
X121725451Y-64286819D01*
X122021586Y-64582954D01*
X122052112Y-64603350D01*
X122067377Y-64613549D01*
X122144505Y-64665084D01*
X122144506Y-64665084D01*
X122144507Y-64665085D01*
X122281082Y-64721656D01*
X122281087Y-64721658D01*
X122281091Y-64721658D01*
X122281092Y-64721659D01*
X122426079Y-64750500D01*
X122426082Y-64750500D01*
X122426083Y-64750500D01*
X122573918Y-64750500D01*
X141717270Y-64750500D01*
X141784309Y-64770185D01*
X141804951Y-64786819D01*
X141898228Y-64880096D01*
X141928478Y-64929458D01*
X141983819Y-65099780D01*
X141983821Y-65099784D01*
X142078467Y-65263716D01*
X142167230Y-65362297D01*
X142205129Y-65404388D01*
X142358265Y-65515648D01*
X142358270Y-65515651D01*
X142531192Y-65592642D01*
X142531197Y-65592644D01*
X142716354Y-65632000D01*
X142716355Y-65632000D01*
X142905644Y-65632000D01*
X142905646Y-65632000D01*
X143090803Y-65592644D01*
X143263730Y-65515651D01*
X143416871Y-65404388D01*
X143543533Y-65263716D01*
X143638179Y-65099784D01*
X143696674Y-64919756D01*
X143716460Y-64731500D01*
X143696674Y-64543244D01*
X143638179Y-64363216D01*
X143543533Y-64199284D01*
X143416871Y-64058612D01*
X143416870Y-64058611D01*
X143336189Y-63999993D01*
X144894700Y-63999993D01*
X144894700Y-64000006D01*
X144913864Y-64231297D01*
X144913866Y-64231308D01*
X144970842Y-64456300D01*
X145064075Y-64668848D01*
X145191016Y-64863147D01*
X145191019Y-64863151D01*
X145191021Y-64863153D01*
X145348216Y-65033913D01*
X145348219Y-65033915D01*
X145348222Y-65033918D01*
X145531365Y-65176464D01*
X145531371Y-65176468D01*
X145531374Y-65176470D01*
X145735497Y-65286936D01*
X145849487Y-65326068D01*
X145955015Y-65362297D01*
X145955017Y-65362297D01*
X145955019Y-65362298D01*
X146183951Y-65400500D01*
X146183952Y-65400500D01*
X146416048Y-65400500D01*
X146416049Y-65400500D01*
X146644981Y-65362298D01*
X146864503Y-65286936D01*
X147068626Y-65176470D01*
X147068634Y-65176464D01*
X147132640Y-65126647D01*
X147197634Y-65101004D01*
X147208802Y-65100500D01*
X168783218Y-65100500D01*
X168850257Y-65120185D01*
X168870899Y-65136819D01*
X169908912Y-66174834D01*
X169908919Y-66174840D01*
X170072784Y-66284330D01*
X170072785Y-66284330D01*
X170072786Y-66284331D01*
X170254864Y-66359751D01*
X170448155Y-66398199D01*
X170448158Y-66398200D01*
X170448160Y-66398200D01*
X170645242Y-66398200D01*
X170645243Y-66398199D01*
X170838535Y-66359751D01*
X171020614Y-66284331D01*
X171184481Y-66174839D01*
X171323839Y-66035481D01*
X171433331Y-65871614D01*
X171508751Y-65689535D01*
X171547200Y-65496240D01*
X171547200Y-65299160D01*
X171547200Y-65299157D01*
X171547199Y-65299155D01*
X171512885Y-65126647D01*
X171508751Y-65105864D01*
X171433331Y-64923786D01*
X171430640Y-64919759D01*
X171323840Y-64759919D01*
X171323834Y-64759912D01*
X170203110Y-63639190D01*
X170172859Y-63589824D01*
X170168873Y-63577556D01*
X170168870Y-63577550D01*
X170151622Y-63543699D01*
X170090232Y-63423212D01*
X170085756Y-63417052D01*
X170074937Y-63402160D01*
X169988414Y-63283072D01*
X169865928Y-63160586D01*
X169725788Y-63058768D01*
X169571445Y-62980127D01*
X169406701Y-62926598D01*
X169406699Y-62926597D01*
X169406698Y-62926597D01*
X169275271Y-62905781D01*
X169235611Y-62899500D01*
X169235610Y-62899500D01*
X147208802Y-62899500D01*
X147141763Y-62879815D01*
X147132640Y-62873353D01*
X147068634Y-62823535D01*
X147068628Y-62823531D01*
X146864504Y-62713064D01*
X146864495Y-62713061D01*
X146644984Y-62637702D01*
X146473282Y-62609050D01*
X146416049Y-62599500D01*
X146183951Y-62599500D01*
X146138164Y-62607140D01*
X145955015Y-62637702D01*
X145735504Y-62713061D01*
X145735495Y-62713064D01*
X145531371Y-62823531D01*
X145531365Y-62823535D01*
X145348222Y-62966081D01*
X145348219Y-62966084D01*
X145348216Y-62966086D01*
X145348216Y-62966087D01*
X145289267Y-63030122D01*
X145191016Y-63136852D01*
X145064075Y-63331151D01*
X144970842Y-63543699D01*
X144913866Y-63768691D01*
X144913864Y-63768702D01*
X144894700Y-63999993D01*
X143336189Y-63999993D01*
X143263734Y-63947351D01*
X143263729Y-63947348D01*
X143090807Y-63870357D01*
X143090802Y-63870355D01*
X143025669Y-63856511D01*
X142964187Y-63823318D01*
X142963769Y-63822902D01*
X142557921Y-63417052D01*
X142557914Y-63417046D01*
X142475857Y-63362218D01*
X142475857Y-63362219D01*
X142434991Y-63334913D01*
X142298417Y-63278343D01*
X142298407Y-63278340D01*
X142153420Y-63249500D01*
X142153418Y-63249500D01*
X122862230Y-63249500D01*
X122795191Y-63229815D01*
X122774549Y-63213181D01*
X122478421Y-62917052D01*
X122478414Y-62917046D01*
X122404729Y-62867812D01*
X122404729Y-62867813D01*
X122355491Y-62834913D01*
X122218917Y-62778343D01*
X122218907Y-62778340D01*
X122073920Y-62749500D01*
X122073918Y-62749500D01*
X117521894Y-62749500D01*
X117455160Y-62729904D01*
X117424464Y-62746666D01*
X117398106Y-62749500D01*
X106061894Y-62749500D01*
X105995160Y-62729904D01*
X105964464Y-62746666D01*
X105938106Y-62749500D01*
X103702230Y-62749500D01*
X103635191Y-62729815D01*
X103614549Y-62713181D01*
X102629936Y-61728568D01*
X102596451Y-61667245D01*
X102601435Y-61597553D01*
X102608785Y-61581460D01*
X102744364Y-61333166D01*
X102744367Y-61333161D01*
X102844369Y-61065046D01*
X102905196Y-60785428D01*
X102925610Y-60500000D01*
X102925610Y-60499998D01*
X103994390Y-60499998D01*
X103994390Y-60500001D01*
X104014804Y-60785433D01*
X104075628Y-61065037D01*
X104075630Y-61065043D01*
X104075631Y-61065046D01*
X104137452Y-61230793D01*
X104175635Y-61333166D01*
X104312770Y-61584309D01*
X104312775Y-61584317D01*
X104484254Y-61813387D01*
X104484270Y-61813405D01*
X104686594Y-62015729D01*
X104686612Y-62015745D01*
X104915682Y-62187224D01*
X104915690Y-62187229D01*
X105166833Y-62324364D01*
X105166832Y-62324364D01*
X105166836Y-62324365D01*
X105166839Y-62324367D01*
X105434954Y-62424369D01*
X105434960Y-62424370D01*
X105434962Y-62424371D01*
X105714566Y-62485195D01*
X105714568Y-62485195D01*
X105714572Y-62485196D01*
X105924204Y-62500189D01*
X105946952Y-62501816D01*
X106002211Y-62522426D01*
X106026959Y-62506523D01*
X106053048Y-62501816D01*
X106071462Y-62500499D01*
X106285428Y-62485196D01*
X106475742Y-62443796D01*
X106565037Y-62424371D01*
X106565037Y-62424370D01*
X106565046Y-62424369D01*
X106833161Y-62324367D01*
X107084315Y-62187226D01*
X107313395Y-62015739D01*
X107515739Y-61813395D01*
X107687226Y-61584315D01*
X107824367Y-61333161D01*
X107924369Y-61065046D01*
X107985196Y-60785428D01*
X108005610Y-60500000D01*
X107985196Y-60214572D01*
X107924369Y-59934954D01*
X107824367Y-59666839D01*
X107720602Y-59476809D01*
X107687229Y-59415690D01*
X107687224Y-59415682D01*
X107515745Y-59186612D01*
X107515729Y-59186594D01*
X107313405Y-58984270D01*
X107313387Y-58984254D01*
X107270508Y-58952155D01*
X109080000Y-58952155D01*
X109080000Y-60250000D01*
X110360936Y-60250000D01*
X110349207Y-60278316D01*
X110320000Y-60425147D01*
X110320000Y-60574853D01*
X110349207Y-60721684D01*
X110360936Y-60750000D01*
X109080000Y-60750000D01*
X109080000Y-62047844D01*
X109086401Y-62107372D01*
X109086403Y-62107379D01*
X109136645Y-62242086D01*
X109136649Y-62242093D01*
X109222809Y-62357187D01*
X109222812Y-62357190D01*
X109337906Y-62443350D01*
X109337913Y-62443354D01*
X109472620Y-62493596D01*
X109472627Y-62493598D01*
X109532155Y-62499999D01*
X109532172Y-62500000D01*
X110830000Y-62500000D01*
X110830000Y-61219064D01*
X110858316Y-61230793D01*
X111005147Y-61260000D01*
X111154853Y-61260000D01*
X111301684Y-61230793D01*
X111330000Y-61219064D01*
X111330000Y-62500000D01*
X112627828Y-62500000D01*
X112627844Y-62499999D01*
X112687372Y-62493598D01*
X112687379Y-62493596D01*
X112822086Y-62443354D01*
X112822093Y-62443350D01*
X112937187Y-62357190D01*
X112937190Y-62357187D01*
X113023350Y-62242093D01*
X113023354Y-62242086D01*
X113073596Y-62107379D01*
X113073598Y-62107372D01*
X113079999Y-62047844D01*
X113080000Y-62047827D01*
X113080000Y-60750000D01*
X111799064Y-60750000D01*
X111810793Y-60721684D01*
X111840000Y-60574853D01*
X111840000Y-60499998D01*
X115454390Y-60499998D01*
X115454390Y-60500001D01*
X115474804Y-60785433D01*
X115535628Y-61065037D01*
X115535630Y-61065043D01*
X115535631Y-61065046D01*
X115597452Y-61230793D01*
X115635635Y-61333166D01*
X115772770Y-61584309D01*
X115772775Y-61584317D01*
X115944254Y-61813387D01*
X115944270Y-61813405D01*
X116146594Y-62015729D01*
X116146612Y-62015745D01*
X116375682Y-62187224D01*
X116375690Y-62187229D01*
X116626833Y-62324364D01*
X116626832Y-62324364D01*
X116626836Y-62324365D01*
X116626839Y-62324367D01*
X116894954Y-62424369D01*
X116894960Y-62424370D01*
X116894962Y-62424371D01*
X117174566Y-62485195D01*
X117174568Y-62485195D01*
X117174572Y-62485196D01*
X117384204Y-62500189D01*
X117406952Y-62501816D01*
X117462211Y-62522426D01*
X117486959Y-62506523D01*
X117513048Y-62501816D01*
X117531462Y-62500499D01*
X117745428Y-62485196D01*
X117935742Y-62443796D01*
X118025037Y-62424371D01*
X118025037Y-62424370D01*
X118025046Y-62424369D01*
X118293161Y-62324367D01*
X118544315Y-62187226D01*
X118773395Y-62015739D01*
X118975739Y-61813395D01*
X119147226Y-61584315D01*
X119284367Y-61333161D01*
X119384369Y-61065046D01*
X119445196Y-60785428D01*
X119465610Y-60500000D01*
X119445196Y-60214572D01*
X119384369Y-59934954D01*
X119284367Y-59666839D01*
X119180602Y-59476809D01*
X119147229Y-59415690D01*
X119147224Y-59415682D01*
X118975745Y-59186612D01*
X118975729Y-59186594D01*
X118773405Y-58984270D01*
X118773387Y-58984254D01*
X118730508Y-58952155D01*
X120540000Y-58952155D01*
X120540000Y-60250000D01*
X121820936Y-60250000D01*
X121809207Y-60278316D01*
X121780000Y-60425147D01*
X121780000Y-60574853D01*
X121809207Y-60721684D01*
X121820936Y-60750000D01*
X120540000Y-60750000D01*
X120540000Y-62047844D01*
X120546401Y-62107372D01*
X120546403Y-62107379D01*
X120596645Y-62242086D01*
X120596649Y-62242093D01*
X120682809Y-62357187D01*
X120682812Y-62357190D01*
X120797906Y-62443350D01*
X120797913Y-62443354D01*
X120932620Y-62493596D01*
X120932627Y-62493598D01*
X120992155Y-62499999D01*
X120992172Y-62500000D01*
X122290000Y-62500000D01*
X122290000Y-61219064D01*
X122318316Y-61230793D01*
X122465147Y-61260000D01*
X122614853Y-61260000D01*
X122761684Y-61230793D01*
X122790000Y-61219064D01*
X122790000Y-62500000D01*
X124087828Y-62500000D01*
X124087844Y-62499999D01*
X124147372Y-62493598D01*
X124147379Y-62493596D01*
X124282086Y-62443354D01*
X124282093Y-62443350D01*
X124397187Y-62357190D01*
X124397190Y-62357187D01*
X124483350Y-62242093D01*
X124483354Y-62242086D01*
X124533596Y-62107379D01*
X124533598Y-62107372D01*
X124539999Y-62047844D01*
X124540000Y-62047827D01*
X124540000Y-60750000D01*
X123259064Y-60750000D01*
X123270793Y-60721684D01*
X123300000Y-60574853D01*
X123300000Y-60499998D01*
X128494390Y-60499998D01*
X128494390Y-60500001D01*
X128514804Y-60785433D01*
X128575628Y-61065037D01*
X128575630Y-61065043D01*
X128575631Y-61065046D01*
X128637452Y-61230793D01*
X128675635Y-61333166D01*
X128812770Y-61584309D01*
X128812775Y-61584317D01*
X128984254Y-61813387D01*
X128984270Y-61813405D01*
X129186594Y-62015729D01*
X129186612Y-62015745D01*
X129415682Y-62187224D01*
X129415690Y-62187229D01*
X129666833Y-62324364D01*
X129666832Y-62324364D01*
X129666836Y-62324365D01*
X129666839Y-62324367D01*
X129934954Y-62424369D01*
X129934960Y-62424370D01*
X129934962Y-62424371D01*
X130214566Y-62485195D01*
X130214568Y-62485195D01*
X130214572Y-62485196D01*
X130468220Y-62503337D01*
X130499999Y-62505610D01*
X130500000Y-62505610D01*
X130500001Y-62505610D01*
X130528595Y-62503564D01*
X130785428Y-62485196D01*
X130975742Y-62443796D01*
X131065037Y-62424371D01*
X131065037Y-62424370D01*
X131065046Y-62424369D01*
X131333161Y-62324367D01*
X131584315Y-62187226D01*
X131813395Y-62015739D01*
X132015739Y-61813395D01*
X132187226Y-61584315D01*
X132324367Y-61333161D01*
X132424369Y-61065046D01*
X132485196Y-60785428D01*
X132505610Y-60500000D01*
X132505610Y-60499998D01*
X133574891Y-60499998D01*
X133574891Y-60500001D01*
X133595300Y-60785362D01*
X133656109Y-61064895D01*
X133756091Y-61332958D01*
X133893191Y-61584038D01*
X133893196Y-61584046D01*
X133999882Y-61726561D01*
X133999883Y-61726562D01*
X134894767Y-60831677D01*
X134906497Y-60859995D01*
X134989670Y-60984472D01*
X135095528Y-61090330D01*
X135220005Y-61173503D01*
X135248320Y-61185231D01*
X134353436Y-62080115D01*
X134495960Y-62186807D01*
X134495961Y-62186808D01*
X134747042Y-62323908D01*
X134747041Y-62323908D01*
X135015104Y-62423890D01*
X135294637Y-62484699D01*
X135579999Y-62505109D01*
X135580001Y-62505109D01*
X135865362Y-62484699D01*
X136144895Y-62423890D01*
X136412958Y-62323908D01*
X136664047Y-62186803D01*
X136806561Y-62080116D01*
X136806562Y-62080115D01*
X135911679Y-61185231D01*
X135939995Y-61173503D01*
X136064472Y-61090330D01*
X136170330Y-60984472D01*
X136253503Y-60859995D01*
X136265231Y-60831678D01*
X137160115Y-61726562D01*
X137160116Y-61726561D01*
X137266803Y-61584047D01*
X137403908Y-61332958D01*
X137503890Y-61064895D01*
X137564699Y-60785362D01*
X137585109Y-60500001D01*
X137585109Y-60499998D01*
X137564699Y-60214637D01*
X137503890Y-59935104D01*
X137403908Y-59667041D01*
X137266808Y-59415961D01*
X137266807Y-59415960D01*
X137160115Y-59273436D01*
X136265231Y-60168320D01*
X136253503Y-60140005D01*
X136170330Y-60015528D01*
X136064472Y-59909670D01*
X135939995Y-59826497D01*
X135911678Y-59814767D01*
X136774310Y-58952135D01*
X138659500Y-58952135D01*
X138659500Y-62047870D01*
X138659501Y-62047876D01*
X138665908Y-62107483D01*
X138716202Y-62242328D01*
X138716206Y-62242335D01*
X138802452Y-62357544D01*
X138802455Y-62357547D01*
X138917664Y-62443793D01*
X138917671Y-62443797D01*
X139052517Y-62494091D01*
X139052516Y-62494091D01*
X139059444Y-62494835D01*
X139112127Y-62500500D01*
X142207872Y-62500499D01*
X142267483Y-62494091D01*
X142402331Y-62443796D01*
X142517546Y-62357546D01*
X142603796Y-62242331D01*
X142654091Y-62107483D01*
X142660500Y-62047873D01*
X142660499Y-58952128D01*
X142654091Y-58892517D01*
X142624506Y-58813196D01*
X142603797Y-58757671D01*
X142603793Y-58757664D01*
X142517547Y-58642455D01*
X142517544Y-58642452D01*
X142402335Y-58556206D01*
X142402328Y-58556202D01*
X142267482Y-58505908D01*
X142267483Y-58505908D01*
X142207883Y-58499501D01*
X142207881Y-58499500D01*
X142207873Y-58499500D01*
X142207864Y-58499500D01*
X139112129Y-58499500D01*
X139112123Y-58499501D01*
X139052516Y-58505908D01*
X138917671Y-58556202D01*
X138917664Y-58556206D01*
X138802455Y-58642452D01*
X138802452Y-58642455D01*
X138716206Y-58757664D01*
X138716202Y-58757671D01*
X138665908Y-58892517D01*
X138659501Y-58952116D01*
X138659501Y-58952123D01*
X138659500Y-58952135D01*
X136774310Y-58952135D01*
X136806562Y-58919883D01*
X136806561Y-58919882D01*
X136664046Y-58813196D01*
X136664038Y-58813191D01*
X136412957Y-58676091D01*
X136412958Y-58676091D01*
X136144895Y-58576109D01*
X135865362Y-58515300D01*
X135580001Y-58494891D01*
X135579999Y-58494891D01*
X135294637Y-58515300D01*
X135015104Y-58576109D01*
X134747041Y-58676091D01*
X134495961Y-58813191D01*
X134495953Y-58813196D01*
X134353437Y-58919882D01*
X134353436Y-58919883D01*
X135248321Y-59814767D01*
X135220005Y-59826497D01*
X135095528Y-59909670D01*
X134989670Y-60015528D01*
X134906497Y-60140005D01*
X134894768Y-60168321D01*
X133999883Y-59273436D01*
X133999882Y-59273437D01*
X133893196Y-59415953D01*
X133893191Y-59415961D01*
X133756091Y-59667041D01*
X133656109Y-59935104D01*
X133595300Y-60214637D01*
X133574891Y-60499998D01*
X132505610Y-60499998D01*
X132485196Y-60214572D01*
X132424369Y-59934954D01*
X132324367Y-59666839D01*
X132220602Y-59476809D01*
X132187229Y-59415690D01*
X132187224Y-59415682D01*
X132015745Y-59186612D01*
X132015729Y-59186594D01*
X131813405Y-58984270D01*
X131813387Y-58984254D01*
X131584317Y-58812775D01*
X131584309Y-58812770D01*
X131333166Y-58675635D01*
X131333167Y-58675635D01*
X131225915Y-58635632D01*
X131065046Y-58575631D01*
X131065043Y-58575630D01*
X131065037Y-58575628D01*
X130785433Y-58514804D01*
X130500001Y-58494390D01*
X130499999Y-58494390D01*
X130214566Y-58514804D01*
X129934962Y-58575628D01*
X129666833Y-58675635D01*
X129415690Y-58812770D01*
X129415682Y-58812775D01*
X129186612Y-58984254D01*
X129186594Y-58984270D01*
X128984270Y-59186594D01*
X128984254Y-59186612D01*
X128812775Y-59415682D01*
X128812770Y-59415690D01*
X128675635Y-59666833D01*
X128575628Y-59934962D01*
X128514804Y-60214566D01*
X128494390Y-60499998D01*
X123300000Y-60499998D01*
X123300000Y-60425147D01*
X123270793Y-60278316D01*
X123259064Y-60250000D01*
X124540000Y-60250000D01*
X124540000Y-58952172D01*
X124539999Y-58952155D01*
X124533598Y-58892627D01*
X124533596Y-58892620D01*
X124483354Y-58757913D01*
X124483350Y-58757906D01*
X124397190Y-58642812D01*
X124397187Y-58642809D01*
X124282093Y-58556649D01*
X124282086Y-58556645D01*
X124147379Y-58506403D01*
X124147372Y-58506401D01*
X124087844Y-58500000D01*
X122790000Y-58500000D01*
X122790000Y-59780935D01*
X122761684Y-59769207D01*
X122614853Y-59740000D01*
X122465147Y-59740000D01*
X122318316Y-59769207D01*
X122290000Y-59780935D01*
X122290000Y-58500000D01*
X120992155Y-58500000D01*
X120932627Y-58506401D01*
X120932620Y-58506403D01*
X120797913Y-58556645D01*
X120797906Y-58556649D01*
X120682812Y-58642809D01*
X120682809Y-58642812D01*
X120596649Y-58757906D01*
X120596645Y-58757913D01*
X120546403Y-58892620D01*
X120546401Y-58892627D01*
X120540000Y-58952155D01*
X118730508Y-58952155D01*
X118544317Y-58812775D01*
X118544309Y-58812770D01*
X118293166Y-58675635D01*
X118293167Y-58675635D01*
X118185915Y-58635632D01*
X118025046Y-58575631D01*
X118025043Y-58575630D01*
X118025037Y-58575628D01*
X117745433Y-58514804D01*
X117460001Y-58494390D01*
X117459999Y-58494390D01*
X117174566Y-58514804D01*
X116894962Y-58575628D01*
X116626833Y-58675635D01*
X116375690Y-58812770D01*
X116375682Y-58812775D01*
X116146612Y-58984254D01*
X116146594Y-58984270D01*
X115944270Y-59186594D01*
X115944254Y-59186612D01*
X115772775Y-59415682D01*
X115772770Y-59415690D01*
X115635635Y-59666833D01*
X115535628Y-59934962D01*
X115474804Y-60214566D01*
X115454390Y-60499998D01*
X111840000Y-60499998D01*
X111840000Y-60425147D01*
X111810793Y-60278316D01*
X111799064Y-60250000D01*
X113080000Y-60250000D01*
X113080000Y-58952172D01*
X113079999Y-58952155D01*
X113073598Y-58892627D01*
X113073596Y-58892620D01*
X113023354Y-58757913D01*
X113023350Y-58757906D01*
X112937190Y-58642812D01*
X112937187Y-58642809D01*
X112822093Y-58556649D01*
X112822086Y-58556645D01*
X112687379Y-58506403D01*
X112687372Y-58506401D01*
X112627844Y-58500000D01*
X111330000Y-58500000D01*
X111330000Y-59780935D01*
X111301684Y-59769207D01*
X111154853Y-59740000D01*
X111005147Y-59740000D01*
X110858316Y-59769207D01*
X110830000Y-59780935D01*
X110830000Y-58500000D01*
X109532155Y-58500000D01*
X109472627Y-58506401D01*
X109472620Y-58506403D01*
X109337913Y-58556645D01*
X109337906Y-58556649D01*
X109222812Y-58642809D01*
X109222809Y-58642812D01*
X109136649Y-58757906D01*
X109136645Y-58757913D01*
X109086403Y-58892620D01*
X109086401Y-58892627D01*
X109080000Y-58952155D01*
X107270508Y-58952155D01*
X107084317Y-58812775D01*
X107084309Y-58812770D01*
X106833166Y-58675635D01*
X106833167Y-58675635D01*
X106725915Y-58635632D01*
X106565046Y-58575631D01*
X106565043Y-58575630D01*
X106565037Y-58575628D01*
X106285433Y-58514804D01*
X106000001Y-58494390D01*
X105999999Y-58494390D01*
X105714566Y-58514804D01*
X105434962Y-58575628D01*
X105166833Y-58675635D01*
X104915690Y-58812770D01*
X104915682Y-58812775D01*
X104686612Y-58984254D01*
X104686594Y-58984270D01*
X104484270Y-59186594D01*
X104484254Y-59186612D01*
X104312775Y-59415682D01*
X104312770Y-59415690D01*
X104175635Y-59666833D01*
X104075628Y-59934962D01*
X104014804Y-60214566D01*
X103994390Y-60499998D01*
X102925610Y-60499998D01*
X102905196Y-60214572D01*
X102844369Y-59934954D01*
X102744367Y-59666839D01*
X102640602Y-59476809D01*
X102607229Y-59415690D01*
X102607224Y-59415682D01*
X102435745Y-59186612D01*
X102435729Y-59186594D01*
X102233405Y-58984270D01*
X102233387Y-58984254D01*
X102004317Y-58812775D01*
X102004309Y-58812770D01*
X101753166Y-58675635D01*
X101753167Y-58675635D01*
X101645915Y-58635632D01*
X101485046Y-58575631D01*
X101485043Y-58575630D01*
X101485037Y-58575628D01*
X101205433Y-58514804D01*
X100920001Y-58494390D01*
X100919999Y-58494390D01*
X100634566Y-58514804D01*
X100354962Y-58575628D01*
X100086833Y-58675635D01*
X99835690Y-58812770D01*
X99835682Y-58812775D01*
X99606612Y-58984254D01*
X99606594Y-58984270D01*
X99404270Y-59186594D01*
X99404254Y-59186612D01*
X99232775Y-59415682D01*
X99232770Y-59415690D01*
X99095635Y-59666833D01*
X98995628Y-59934962D01*
X98934804Y-60214566D01*
X98914390Y-60499998D01*
X95000500Y-60499998D01*
X95000500Y-57999995D01*
X146594732Y-57999995D01*
X146594732Y-58000004D01*
X146613777Y-58254154D01*
X146668609Y-58494390D01*
X146670492Y-58502637D01*
X146763607Y-58739888D01*
X146891041Y-58960612D01*
X147049950Y-59159877D01*
X147236783Y-59333232D01*
X147447366Y-59476805D01*
X147447371Y-59476807D01*
X147447372Y-59476808D01*
X147447373Y-59476809D01*
X147569328Y-59535538D01*
X147676992Y-59587387D01*
X147676993Y-59587387D01*
X147676996Y-59587389D01*
X147920542Y-59662513D01*
X148172565Y-59700500D01*
X148427435Y-59700500D01*
X148679458Y-59662513D01*
X148923004Y-59587389D01*
X149152634Y-59476805D01*
X149363217Y-59333232D01*
X149550050Y-59159877D01*
X149708959Y-58960612D01*
X149836393Y-58739888D01*
X149929508Y-58502637D01*
X149986222Y-58254157D01*
X150005268Y-58000000D01*
X150005268Y-57999995D01*
X158794732Y-57999995D01*
X158794732Y-58000004D01*
X158813777Y-58254154D01*
X158868609Y-58494390D01*
X158870492Y-58502637D01*
X158963607Y-58739888D01*
X159091041Y-58960612D01*
X159249950Y-59159877D01*
X159436783Y-59333232D01*
X159647366Y-59476805D01*
X159647371Y-59476807D01*
X159647372Y-59476808D01*
X159647373Y-59476809D01*
X159769328Y-59535538D01*
X159876992Y-59587387D01*
X159876993Y-59587387D01*
X159876996Y-59587389D01*
X160120542Y-59662513D01*
X160372565Y-59700500D01*
X160627435Y-59700500D01*
X160879458Y-59662513D01*
X161123004Y-59587389D01*
X161352634Y-59476805D01*
X161563217Y-59333232D01*
X161750050Y-59159877D01*
X161908959Y-58960612D01*
X162036393Y-58739888D01*
X162129508Y-58502637D01*
X162186222Y-58254157D01*
X162205268Y-58000000D01*
X162186222Y-57745843D01*
X162129508Y-57497363D01*
X162036393Y-57260112D01*
X161908959Y-57039388D01*
X161750050Y-56840123D01*
X161563217Y-56666768D01*
X161352634Y-56523195D01*
X161352630Y-56523193D01*
X161352627Y-56523191D01*
X161352626Y-56523190D01*
X161130151Y-56416052D01*
X161123006Y-56412612D01*
X161123008Y-56412612D01*
X160879466Y-56337489D01*
X160879462Y-56337488D01*
X160879458Y-56337487D01*
X160758231Y-56319214D01*
X160627440Y-56299500D01*
X160627435Y-56299500D01*
X160372565Y-56299500D01*
X160372559Y-56299500D01*
X160215609Y-56323157D01*
X160120542Y-56337487D01*
X160120539Y-56337488D01*
X160120533Y-56337489D01*
X159876992Y-56412612D01*
X159647373Y-56523190D01*
X159647372Y-56523191D01*
X159436782Y-56666768D01*
X159249952Y-56840121D01*
X159249950Y-56840123D01*
X159091041Y-57039388D01*
X158963608Y-57260109D01*
X158870492Y-57497362D01*
X158870490Y-57497369D01*
X158813777Y-57745845D01*
X158794732Y-57999995D01*
X150005268Y-57999995D01*
X149986222Y-57745843D01*
X149929508Y-57497363D01*
X149836393Y-57260112D01*
X149708959Y-57039388D01*
X149550050Y-56840123D01*
X149363217Y-56666768D01*
X149152634Y-56523195D01*
X149152630Y-56523193D01*
X149152627Y-56523191D01*
X149152626Y-56523190D01*
X148930151Y-56416052D01*
X148923006Y-56412612D01*
X148923008Y-56412612D01*
X148679466Y-56337489D01*
X148679462Y-56337488D01*
X148679458Y-56337487D01*
X148558231Y-56319214D01*
X148427440Y-56299500D01*
X148427435Y-56299500D01*
X148172565Y-56299500D01*
X148172559Y-56299500D01*
X148015609Y-56323157D01*
X147920542Y-56337487D01*
X147920539Y-56337488D01*
X147920533Y-56337489D01*
X147676992Y-56412612D01*
X147447373Y-56523190D01*
X147447372Y-56523191D01*
X147236782Y-56666768D01*
X147049952Y-56840121D01*
X147049950Y-56840123D01*
X146891041Y-57039388D01*
X146763608Y-57260109D01*
X146670492Y-57497362D01*
X146670490Y-57497369D01*
X146613777Y-57745845D01*
X146594732Y-57999995D01*
X95000500Y-57999995D01*
X95000500Y-56193382D01*
X95020185Y-56126343D01*
X95072989Y-56080588D01*
X95142147Y-56070644D01*
X95205703Y-56099669D01*
X95220040Y-56114337D01*
X95246651Y-56146504D01*
X95246652Y-56146505D01*
X95466836Y-56353272D01*
X95466846Y-56353280D01*
X95711193Y-56530808D01*
X95711198Y-56530810D01*
X95711205Y-56530816D01*
X95975896Y-56676332D01*
X95975901Y-56676334D01*
X95975903Y-56676335D01*
X95975904Y-56676336D01*
X96256734Y-56787524D01*
X96256737Y-56787525D01*
X96354259Y-56812564D01*
X96549302Y-56862642D01*
X96696039Y-56881179D01*
X96848963Y-56900499D01*
X96848969Y-56900499D01*
X96848973Y-56900500D01*
X96848975Y-56900500D01*
X97151025Y-56900500D01*
X97151027Y-56900500D01*
X97151032Y-56900499D01*
X97151036Y-56900499D01*
X97230591Y-56890448D01*
X97450698Y-56862642D01*
X97743262Y-56787525D01*
X97743265Y-56787524D01*
X98024095Y-56676336D01*
X98024096Y-56676335D01*
X98024094Y-56676335D01*
X98024104Y-56676332D01*
X98288795Y-56530816D01*
X98533162Y-56353274D01*
X98753349Y-56146504D01*
X98945885Y-55913768D01*
X99107733Y-55658736D01*
X99236341Y-55385430D01*
X99329681Y-55098160D01*
X99348407Y-54999994D01*
X169594754Y-54999994D01*
X169594754Y-55000005D01*
X169613718Y-55301446D01*
X169613719Y-55301453D01*
X169670320Y-55598164D01*
X169763659Y-55885431D01*
X169763661Y-55885436D01*
X169892265Y-56158732D01*
X169892268Y-56158738D01*
X170054111Y-56413763D01*
X170246652Y-56646505D01*
X170466836Y-56853272D01*
X170466846Y-56853280D01*
X170711193Y-57030808D01*
X170711198Y-57030810D01*
X170711205Y-57030816D01*
X170975896Y-57176332D01*
X170975901Y-57176334D01*
X170975903Y-57176335D01*
X170975904Y-57176336D01*
X171256734Y-57287524D01*
X171256737Y-57287525D01*
X171354259Y-57312564D01*
X171549302Y-57362642D01*
X171696039Y-57381179D01*
X171848963Y-57400499D01*
X171848969Y-57400499D01*
X171848973Y-57400500D01*
X171848975Y-57400500D01*
X172151025Y-57400500D01*
X172151027Y-57400500D01*
X172151032Y-57400499D01*
X172151036Y-57400499D01*
X172230591Y-57390448D01*
X172450698Y-57362642D01*
X172743262Y-57287525D01*
X172743265Y-57287524D01*
X173024095Y-57176336D01*
X173024096Y-57176335D01*
X173024094Y-57176335D01*
X173024104Y-57176332D01*
X173288795Y-57030816D01*
X173533162Y-56853274D01*
X173753349Y-56646504D01*
X173945885Y-56413768D01*
X174107733Y-56158736D01*
X174236341Y-55885430D01*
X174329681Y-55598160D01*
X174386280Y-55301457D01*
X174399070Y-55098164D01*
X174405246Y-55000005D01*
X174405246Y-54999994D01*
X174386281Y-54698553D01*
X174386280Y-54698546D01*
X174386280Y-54698543D01*
X174329681Y-54401840D01*
X174236341Y-54114570D01*
X174107733Y-53841264D01*
X173963868Y-53614568D01*
X173945888Y-53586236D01*
X173753347Y-53353494D01*
X173533163Y-53146727D01*
X173533153Y-53146719D01*
X173288806Y-52969191D01*
X173288799Y-52969186D01*
X173288795Y-52969184D01*
X173024104Y-52823668D01*
X173024101Y-52823666D01*
X173024096Y-52823664D01*
X173024095Y-52823663D01*
X172743265Y-52712475D01*
X172743262Y-52712474D01*
X172450695Y-52637357D01*
X172151036Y-52599500D01*
X172151027Y-52599500D01*
X171848973Y-52599500D01*
X171848963Y-52599500D01*
X171549304Y-52637357D01*
X171256737Y-52712474D01*
X171256734Y-52712475D01*
X170975904Y-52823663D01*
X170975903Y-52823664D01*
X170711205Y-52969184D01*
X170711193Y-52969191D01*
X170466846Y-53146719D01*
X170466836Y-53146727D01*
X170246652Y-53353494D01*
X170054111Y-53586236D01*
X169892268Y-53841261D01*
X169892265Y-53841267D01*
X169763661Y-54114563D01*
X169763659Y-54114568D01*
X169670320Y-54401835D01*
X169613719Y-54698546D01*
X169613718Y-54698553D01*
X169594754Y-54999994D01*
X99348407Y-54999994D01*
X99386280Y-54801457D01*
X99405246Y-54500000D01*
X99399070Y-54401840D01*
X99386281Y-54198553D01*
X99386280Y-54198546D01*
X99386280Y-54198543D01*
X99329681Y-53901840D01*
X99236341Y-53614570D01*
X99107733Y-53341264D01*
X99015329Y-53195658D01*
X98945888Y-53086236D01*
X98945885Y-53086232D01*
X98753349Y-52853496D01*
X98533162Y-52646726D01*
X98533159Y-52646724D01*
X98533153Y-52646719D01*
X98288806Y-52469191D01*
X98288799Y-52469186D01*
X98288795Y-52469184D01*
X98024104Y-52323668D01*
X98024101Y-52323666D01*
X98024096Y-52323664D01*
X98024095Y-52323663D01*
X97812259Y-52239792D01*
X97757173Y-52196811D01*
X97734070Y-52130872D01*
X97750283Y-52062909D01*
X97800667Y-52014502D01*
X97857906Y-52000500D01*
X174875500Y-52000500D01*
X174942539Y-52020185D01*
G37*
%TD.AperFunction*%
%TD*%
M02*
